<svg width="240" height="240" viewBox="40 40 160 160" fill="none" xmlns="http://www.w3.org/2000/svg">
<rect width="240" height="240"/>
<path d="M 423.2 156.5 C 423.6 157.9 424.4 158.9 425.7 159.4" stroke="black" stroke-width="2"/>
<path d="M 94.4 47 C 94.4 46 94 45 93.3 44.2 C 92.5 43.5 91.5 43.1 90.5 43.1 H 90.2 C 89.2 43.1 88.2 43.5 87.4 44.2 C 86.7 45 86.3 46 86.3 47 V 61 C 86.3 61.5 86.4 62 86.6 62.5 C 86.8 63 87.1 63.4 87.4 63.8 C 87.8 64.1 88.2 64.4 88.7 64.6 C 89.2 64.8 89.7 64.9 90.2 64.9 H 90.5 C 91 64.9 91.5 64.8 92 64.6 C 92.5 64.4 92.9 64.1 93.3 63.8 C 93.6 63.4 93.9 63 94.1 62.5 C 94.3 62 94.4 61.5 94.4 61 V 47 Z" stroke="black" stroke-width="2"/>
<path d="M 115.7 47.1 C 115.7 46.1 115.3 45.1 114.5 44.4 C 113.8 43.7 112.8 43.3 111.8 43.3 H 111.5 C 110.5 43.3 109.5 43.7 108.8 44.4 C 108 45.1 107.6 46.1 107.6 47.1 V 61 C 107.6 61.5 107.7 62 107.9 62.5 C 108.1 63 108.4 63.4 108.7 63.8 C 109.1 64.1 109.5 64.4 110 64.6 C 110.5 64.8 111 64.9 111.5 64.9 H 111.8 C 112.3 64.9 112.8 64.8 113.3 64.6 C 113.8 64.4 114.2 64.1 114.6 63.8 C 114.9 63.4 115.2 63 115.4 62.5 C 115.6 62 115.7 61.5 115.7 61 V 47.1 Z" stroke="black" stroke-width="2"/>
<path d="M 138.7 47.1 C 138.7 46.6 138.6 46.1 138.4 45.6 C 138.3 45.1 138 44.7 137.6 44.3 C 137.3 44 136.8 43.7 136.4 43.5 C 135.9 43.3 135.4 43.2 134.9 43.2 H 134.6 C 134.1 43.2 133.6 43.3 133.1 43.5 C 132.7 43.7 132.2 44 131.9 44.3 C 131.5 44.7 131.2 45.1 131.1 45.6 C 130.9 46.1 130.8 46.6 130.8 47.1 V 61.1 C 130.8 61.6 130.9 62.1 131.1 62.6 C 131.3 63 131.6 63.4 131.9 63.8 C 132.3 64.1 132.7 64.4 133.1 64.6 C 133.6 64.8 134.1 64.9 134.6 64.9 H 134.9 C 135.4 64.9 135.9 64.8 136.4 64.6 C 136.8 64.4 137.2 64.1 137.6 63.8 C 137.9 63.4 138.2 63 138.4 62.6 C 138.6 62.1 138.7 61.6 138.7 61.1 V 47.1 Z" stroke="black" stroke-width="2"/>
<path d="M 160.2 47.2 C 160.2 46.2 159.8 45.2 159.1 44.4 C 158.3 43.7 157.3 43.3 156.3 43.3 H 156 C 155.5 43.3 155 43.4 154.5 43.6 C 154 43.8 153.6 44.1 153.2 44.4 C 152.9 44.8 152.6 45.2 152.4 45.7 C 152.2 46.2 152.1 46.7 152.1 47.2 V 61 C 152.1 61.5 152.2 62 152.4 62.5 C 152.6 63 152.9 63.4 153.2 63.8 C 153.6 64.1 154 64.4 154.5 64.6 C 155 64.8 155.5 64.9 156 64.9 H 156.3 C 157.3 64.9 158.3 64.5 159.1 63.8 C 159.8 63 160.2 62 160.2 61 V 47.2 Z" stroke="black" stroke-width="2"/>
<path d="M 166.2 89.5 C 166.2 87.6 165.8 85.7 165.1 83.9 C 164.4 82.2 163.3 80.6 161.9 79.2 C 160.6 77.9 158.9 76.8 157.2 76.1 C 155.4 75.4 153.5 75 151.6 75 H 94.5 C 92.6 75 90.7 75.4 88.9 76.1 C 87.1 76.8 85.5 77.9 84.1 79.2 C 82.8 80.6 81.7 82.2 81 84 C 80.3 85.8 79.9 87.7 79.9 89.6 L 80 146.8 C 80 148.7 80.4 150.6 81.1 152.4 C 81.8 154.1 82.9 155.7 84.3 157.1 C 85.6 158.4 87.2 159.5 89 160.2 C 90.8 160.9 92.7 161.3 94.6 161.3 L 151.8 161.2 C 153.7 161.2 155.6 160.8 157.4 160.1 C 159.1 159.4 160.7 158.3 162.1 156.9 C 163.4 155.6 164.5 153.9 165.2 152.2 C 165.9 150.4 166.3 148.5 166.3 146.6 L 166.2 89.5 Z" stroke="black" stroke-width="2"/>
<path d="M 69.7 85.1 C 69.7 84.1 69.3 83.1 68.6 82.4 C 67.9 81.7 66.9 81.3 65.9 81.3 L 52.1 81.2 C 51.6 81.2 51.1 81.3 50.6 81.5 C 50.2 81.7 49.7 82 49.4 82.3 C 49 82.7 48.7 83.1 48.6 83.6 C 48.4 84.1 48.3 84.6 48.3 85.1 L 48.2 85.4 C 48.2 85.9 48.3 86.4 48.5 86.9 C 48.7 87.3 49 87.8 49.3 88.1 C 49.7 88.5 50.1 88.8 50.6 88.9 C 51.1 89.1 51.6 89.2 52.1 89.2 L 65.9 89.3 C 66.9 89.3 67.9 88.9 68.6 88.2 C 69.3 87.5 69.7 86.5 69.7 85.5 V 85.1 Z" stroke="black" stroke-width="2"/>
<path d="M 198.2 85.1 C 198.2 84.6 198.1 84.1 197.9 83.6 C 197.7 83.2 197.4 82.7 197.1 82.4 C 196.7 82 196.3 81.7 195.8 81.6 C 195.3 81.4 194.8 81.3 194.3 81.3 H 180.3 C 179.3 81.3 178.3 81.7 177.6 82.4 C 176.9 83.1 176.5 84.1 176.5 85.1 V 85.4 C 176.5 85.9 176.6 86.4 176.8 86.9 C 176.9 87.4 177.2 87.8 177.6 88.2 C 177.9 88.5 178.4 88.8 178.8 89 C 179.3 89.2 179.8 89.3 180.3 89.3 L 194.3 89.2 C 194.8 89.2 195.3 89.1 195.8 88.9 C 196.3 88.8 196.7 88.5 197.1 88.1 C 197.4 87.8 197.7 87.3 197.9 86.9 C 198.1 86.4 198.2 85.9 198.2 85.4 V 85.1 Z" stroke="black" stroke-width="2"/>
<path d="M 69.7 106.5 C 69.7 106 69.6 105.5 69.4 105 C 69.2 104.5 68.9 104.1 68.6 103.7 C 68.2 103.4 67.8 103.1 67.3 102.9 C 66.8 102.7 66.3 102.6 65.8 102.6 L 52.2 102.5 C 51.7 102.5 51.2 102.6 50.7 102.8 C 50.2 103 49.8 103.3 49.4 103.6 C 49.1 104 48.8 104.4 48.6 104.9 C 48.4 105.4 48.3 105.9 48.3 106.4 V 106.8 C 48.3 107.8 48.7 108.8 49.4 109.6 C 50.2 110.3 51.2 110.7 52.2 110.7 L 65.8 110.8 C 66.3 110.8 66.8 110.7 67.3 110.5 C 67.8 110.3 68.2 110 68.6 109.7 C 68.9 109.3 69.2 108.9 69.4 108.4 C 69.6 107.9 69.7 107.4 69.7 106.9 V 106.5 Z" stroke="black" stroke-width="2"/>
<path d="M 198.1 106.5 C 198.1 105.5 197.7 104.5 197 103.7 C 196.2 103 195.2 102.6 194.2 102.6 H 180.5 C 179.5 102.6 178.5 103 177.7 103.7 C 177 104.5 176.6 105.5 176.6 106.5 V 106.8 C 176.6 107.8 177 108.8 177.7 109.6 C 178.5 110.3 179.5 110.7 180.5 110.7 H 194.2 C 195.2 110.7 196.2 110.3 197 109.6 C 197.7 108.8 198.1 107.8 198.1 106.8 V 106.5 Z" stroke="black" stroke-width="2"/>
<path d="M 69.7 129.6 C 69.7 129.1 69.6 128.6 69.4 128.1 C 69.2 127.6 69 127.2 68.6 126.8 C 68.2 126.4 67.8 126.1 67.3 125.9 C 66.8 125.7 66.3 125.6 65.8 125.6 H 52.2 C 51.2 125.6 50.2 126 49.5 126.7 C 48.7 127.4 48.3 128.4 48.3 129.4 V 129.8 C 48.3 130.8 48.7 131.8 49.4 132.5 C 50.1 133.3 51.1 133.7 52.1 133.7 L 65.8 133.8 C 66.3 133.8 66.8 133.7 67.3 133.5 C 67.8 133.3 68.2 133 68.6 132.7 C 68.9 132.3 69.2 131.9 69.4 131.4 C 69.6 130.9 69.7 130.4 69.7 129.9 V 129.6 Z" stroke="black" stroke-width="2"/>
<path d="M 198.1 129.5 C 198.1 128.5 197.7 127.5 197 126.8 C 196.3 126.1 195.3 125.7 194.3 125.7 L 180.4 125.6 C 179.4 125.6 178.4 126 177.7 126.8 C 177 127.5 176.6 128.5 176.6 129.5 V 129.8 C 176.6 130.8 177 131.8 177.7 132.5 C 178.4 133.3 179.4 133.7 180.4 133.7 H 194.3 C 195.3 133.7 196.3 133.3 197 132.6 C 197.7 131.9 198.1 130.9 198.1 129.9 V 129.5 Z" stroke="black" stroke-width="2"/>
<path d="M 69.7 150.9 C 69.7 150.4 69.6 149.9 69.4 149.4 C 69.2 148.9 68.9 148.5 68.6 148.1 C 68.2 147.8 67.8 147.5 67.3 147.3 C 66.8 147.1 66.3 147 65.8 147 H 52.2 C 51.2 147 50.2 147.4 49.4 148.1 C 48.7 148.9 48.3 149.9 48.3 150.9 V 151.3 C 48.3 152.3 48.7 153.3 49.4 154.1 C 50.2 154.8 51.2 155.2 52.2 155.2 H 65.8 C 66.8 155.2 67.8 154.8 68.6 154.1 C 69.3 153.3 69.7 152.3 69.7 151.3 V 150.9 Z" stroke="black" stroke-width="2"/>
<path d="M 198.1 151 C 198.1 150.5 198 150 197.8 149.5 C 197.6 149 197.4 148.6 197 148.2 C 196.6 147.8 196.2 147.5 195.7 147.3 C 195.2 147.1 194.7 147 194.2 147 H 180.5 C 180 147 179.5 147.1 179 147.3 C 178.5 147.5 178.1 147.7 177.7 148.1 C 177.3 148.5 177 148.9 176.8 149.4 C 176.6 149.9 176.5 150.4 176.5 150.9 V 151.3 C 176.5 151.8 176.6 152.3 176.8 152.8 C 177 153.3 177.3 153.7 177.7 154.1 C 178.1 154.5 178.5 154.7 179 154.9 C 179.5 155.1 180 155.2 180.5 155.2 H 194.2 C 195.2 155.2 196.2 154.8 197 154.1 C 197.7 153.3 198.1 152.3 198.1 151.3 V 151 Z" stroke="black" stroke-width="2"/>
<path d="M 94.4 175.5 C 94.4 174.5 94 173.5 93.3 172.7 C 92.5 172 91.5 171.6 90.5 171.6 H 90.2 C 89.2 171.6 88.2 172 87.4 172.7 C 86.7 173.5 86.3 174.5 86.3 175.5 V 189.1 C 86.3 190.1 86.7 191.1 87.4 191.9 C 88.2 192.6 89.2 193 90.2 193 H 90.5 C 91.5 193 92.5 192.6 93.3 191.9 C 94 191.1 94.4 190.1 94.4 189.1 V 175.5 Z" stroke="black" stroke-width="2"/>
<path d="M 138.8 175.4 C 138.8 174.9 138.7 174.4 138.5 173.9 C 138.3 173.5 138 173 137.7 172.7 C 137.3 172.3 136.9 172 136.4 171.9 C 135.9 171.7 135.4 171.6 134.9 171.6 H 134.6 C 133.6 171.6 132.6 172 131.9 172.7 C 131.2 173.4 130.8 174.4 130.8 175.4 L 130.7 189.2 C 130.7 189.7 130.8 190.2 131 190.7 C 131.2 191.1 131.5 191.6 131.8 191.9 C 132.2 192.3 132.6 192.6 133.1 192.7 C 133.6 192.9 134.1 193 134.6 193 L 134.9 193.1 C 135.4 193.1 135.9 193 136.4 192.8 C 136.8 192.6 137.3 192.3 137.6 192 C 138 191.6 138.3 191.2 138.4 190.7 C 138.6 190.2 138.7 189.7 138.7 189.2 L 138.8 175.4 Z" stroke="black" stroke-width="2"/>
<path d="M 115.8 175.6 C 115.8 174.6 115.4 173.6 114.7 172.9 C 114 172.2 113 171.8 112 171.8 H 111.4 C 110.4 171.8 109.5 172.2 108.7 172.9 C 108 173.6 107.6 174.5 107.6 175.5 V 189.2 C 107.6 190.2 108 191.1 108.7 191.9 C 109.4 192.6 110.3 193 111.3 193 H 111.9 C 112.9 193 113.9 192.6 114.6 191.9 C 115.3 191.2 115.7 190.2 115.7 189.2 L 115.8 175.6 Z" stroke="black" stroke-width="2"/>
<path d="M 160.3 175.7 C 160.3 175.2 160.2 174.7 160 174.2 C 159.8 173.7 159.5 173.3 159.1 172.9 C 158.8 172.5 158.3 172.3 157.8 172.1 C 157.3 171.9 156.8 171.8 156.3 171.8 H 155.9 C 154.9 171.8 153.9 172.2 153.1 172.9 C 152.4 173.7 152 174.7 152 175.7 V 189.1 C 152 189.6 152.1 190.1 152.3 190.6 C 152.5 191.1 152.7 191.6 153.1 191.9 C 153.5 192.3 153.9 192.6 154.4 192.8 C 154.9 193 155.4 193.1 155.9 193.1 H 156.3 C 156.8 193.1 157.4 193 157.8 192.8 C 158.3 192.6 158.8 192.3 159.2 192 C 159.5 191.6 159.8 191.1 160 190.6 C 160.2 190.2 160.3 189.6 160.3 189.1 V 175.7 Z" stroke="black" stroke-width="2"/>
<path d="M 158.1 89.5 C 158.1 87.9 157.5 86.3 156.3 85.2 C 155.2 84 153.6 83.3 152 83.3 L 94.5 83.2 C 92.9 83.2 91.3 83.9 90.1 85 C 89 86.2 88.3 87.8 88.3 89.4 L 88.2 146.7 C 88.2 148.3 88.9 149.9 90 151.1 C 91.2 152.2 92.8 152.9 94.4 152.9 L 151.8 153 C 153.4 153 155 152.4 156.1 151.2 C 157.3 150.1 158 148.5 158 146.9 L 158.1 89.5 Z" stroke="black" stroke-width="2"/>
<path fill="black" d="M 90.5 43.1 H 90.2 C 88 43.1 86.3 44.8 86.3 47 V 61 C 86.3 63.2 88 64.9 90.2 64.9 H 90.5 C 92.7 64.9 94.4 63.2 94.4 61 V 47 C 94.4 44.8 92.7 43.1 90.5 43.1 Z"/>
<path fill="black" d="M 111.8 43.3 H 111.5 C 109.3 43.3 107.6 45 107.6 47.2 V 61 C 107.6 63.2 109.3 64.9 111.5 64.9 H 111.8 C 114 64.9 115.7 63.2 115.7 61 V 47.2 C 115.7 45 114 43.3 111.8 43.3 Z"/>
<path fill="black" d="M 135 43.2 H 134.6 C 132.5 43.2 130.8 44.9 130.8 47 V 61.1 C 130.8 63.2 132.5 64.9 134.6 64.9 H 135 C 137.1 64.9 138.8 63.2 138.8 61.1 V 47 C 138.8 44.9 137.1 43.2 135 43.2 Z"/>
<path fill="black" d="M 156.4 43.3 H 156 C 153.8 43.3 152.1 45 152.1 47.2 V 61 C 152.1 63.2 153.8 64.9 156 64.9 H 156.4 C 158.6 64.9 160.3 63.2 160.3 61 V 47.2 C 160.3 45 158.6 43.3 156.4 43.3 Z"/>
<path fill="black" d="M 166.3 146.6 C 166.3 148.5 165.9 150.4 165.2 152.2 C 164.5 153.9 163.4 155.6 162.1 156.9 C 160.7 158.3 159.1 159.4 157.4 160.1 C 155.6 160.8 153.7 161.2 151.8 161.2 L 94.6 161.3 C 92.7 161.3 90.8 160.9 89 160.2 C 87.2 159.5 85.6 158.4 84.3 157.1 C 82.9 155.7 81.8 154.1 81.1 152.4 C 80.4 150.6 80 148.7 80 146.8 L 79.9 89.6 C 79.9 87.7 80.3 85.8 81 84 C 81.7 82.2 82.8 80.6 84.1 79.2 C 85.5 77.9 87.1 76.8 88.9 76.1 C 90.7 75.4 92.6 75 94.5 75 H 151.6 C 153.5 75 155.4 75.4 157.2 76.1 C 158.9 76.8 160.6 77.9 161.9 79.2 C 163.3 80.6 164.4 82.2 165.1 83.9 C 165.8 85.7 166.2 87.6 166.2 89.5 L 166.3 146.6 Z M 158.1 89.5 C 158.1 87.9 157.5 86.3 156.3 85.2 C 155.2 84 153.6 83.3 152 83.3 L 94.5 83.2 C 92.9 83.2 91.3 83.9 90.1 85 C 89 86.2 88.3 87.8 88.3 89.4 L 88.2 146.7 C 88.2 148.3 88.9 149.9 90 151.1 C 91.2 152.2 92.8 152.9 94.4 152.9 L 151.8 153 C 153.4 153 155 152.4 156.1 151.2 C 157.3 150.1 158 148.5 158 146.9 L 158.1 89.5 Z"/>
<path fill="black" d="M 66 81.3 L 52.1 81.3 C 50 81.3 48.3 83 48.3 85.1 L 48.3 85.5 C 48.3 87.6 50 89.3 52.1 89.3 L 66 89.3 C 68.1 89.3 69.8 87.6 69.8 85.5 L 69.8 85.1 C 69.8 83 68.1 81.3 66 81.3 Z"/>
<path fill="black" d="M 194.3 81.3 L 180.3 81.3 C 178.2 81.3 176.5 83 176.5 85.1 L 176.5 85.5 C 176.5 87.6 178.2 89.3 180.3 89.3 L 194.3 89.3 C 196.4 89.3 198.1 87.6 198.1 85.5 L 198.1 85.1 C 198.1 83 196.4 81.3 194.3 81.3 Z"/>
<path fill="black" d="M 65.9 102.5 L 52.2 102.5 C 50.1 102.5 48.3 104.2 48.3 106.3 L 48.3 106.7 C 48.3 108.9 50 110.7 52.2 110.7 L 65.9 110.7 C 68 110.7 69.8 109 69.8 106.9 L 69.8 106.5 C 69.8 104.3 68.1 102.5 65.9 102.5 Z"/>
<path fill="black" d="M 194.2 102.6 L 180.4 102.6 C 178.2 102.6 176.5 104.4 176.5 106.5 L 176.5 106.8 C 176.5 109 178.3 110.7 180.4 110.7 L 194.2 110.7 C 196.4 110.7 198.1 108.9 198.1 106.8 L 198.1 106.5 C 198.1 104.3 196.3 102.6 194.2 102.6 Z"/>
<path fill="black" d="M 65.8 125.6 L 52.2 125.6 C 50.1 125.6 48.3 127.3 48.3 129.4 L 48.3 129.7 C 48.3 131.9 50 133.7 52.2 133.7 L 65.8 133.7 C 67.9 133.7 69.7 132 69.7 129.9 L 69.7 129.6 C 69.7 127.4 68 125.6 65.8 125.6 Z"/>
<path fill="black" d="M 194.2 125.7 L 180.4 125.7 C 178.3 125.7 176.5 127.4 176.5 129.6 L 176.5 129.9 C 176.5 132 178.2 133.8 180.4 133.8 L 194.2 133.8 C 196.3 133.8 198.1 132.1 198.1 129.9 L 198.1 129.6 C 198.1 127.5 196.4 125.7 194.2 125.7 Z"/>
<path fill="black" d="M 65.9 147 H 52.2 C 50 147 48.3 148.7 48.3 150.9 V 151.3 C 48.3 153.5 50 155.2 52.2 155.2 H 65.9 C 68.1 155.2 69.8 153.5 69.8 151.3 V 150.9 C 69.8 148.7 68.1 147 65.9 147 Z"/>
<path fill="black" d="M 194.2 147 L 180.4 147 C 178.3 147 176.5 148.7 176.5 150.9 L 176.5 151.3 C 176.5 153.4 178.2 155.2 180.4 155.2 L 194.2 155.2 C 196.3 155.2 198.1 153.5 198.1 151.3 L 198.1 150.9 C 198.1 148.8 196.4 147 194.2 147 Z"/>
<path fill="black" d="M 90.6 171.6 H 90.2 C 88 171.6 86.3 173.3 86.3 175.5 V 189.1 C 86.3 191.3 88 193 90.2 193 H 90.6 C 92.8 193 94.5 191.3 94.5 189.1 V 175.5 C 94.5 173.3 92.8 171.6 90.6 171.6 Z"/>
<path fill="black" d="M 134.9 171.6 L 134.5 171.6 C 132.4 171.6 130.7 173.3 130.7 175.4 L 130.7 189.3 C 130.7 191.4 132.4 193.1 134.5 193.1 L 134.9 193.1 C 137 193.1 138.7 191.4 138.7 189.3 L 138.7 175.4 C 138.7 173.3 137 171.6 134.9 171.6 Z"/>
<path fill="black" d="M 111.9 171.8 L 111.4 171.8 C 109.3 171.8 107.6 173.5 107.6 175.6 L 107.6 189.2 C 107.6 191.3 109.3 193 111.4 193 L 111.9 193 C 114 193 115.7 191.3 115.7 189.2 L 115.7 175.6 C 115.7 173.5 114 171.8 111.9 171.8 Z"/>
<path d="M 156.3 171.8 H 155.9 C 153.7 171.8 152 173.5 152 175.7 V 189.2 C 152 191.4 153.7 193.1 155.9 193.1 H 156.3 C 158.5 193.1 160.2 191.4 160.2 189.2 V 175.7 C 160.2 173.5 158.5 171.8 156.3 171.8 Z" fill="black"/>
</svg>
