<?xml version="1.0" encoding="UTF-8"?>
<!DOCTYPE svg PUBLIC "-//W3C//DTD SVG 1.1//EN" "http://www.w3.org/Graphics/SVG/1.1/DTD/svg11.dtd">
<!-- Creator: CorelDRAW -->
<svg xmlns="http://www.w3.org/2000/svg" xml:space="preserve" width="78.2193mm" height="13.2738mm" version="1.1" style="shape-rendering:geometricPrecision; text-rendering:geometricPrecision; image-rendering:optimizeQuality; fill-rule:evenodd; clip-rule:evenodd"
viewBox="0 0 121785.48 20666.97"
 xmlns:xlink="http://www.w3.org/1999/xlink"
 xmlns:xodm="http://www.corel.com/coreldraw/odm/2003">
 <defs>
  <style type="text/css">
   <![CDATA[
    .str1 {stroke:#999999;stroke-width:131.88;stroke-miterlimit:22.9256}
    .str0 {stroke:black;stroke-width:118.64;stroke-miterlimit:22.9256}
    .fil2 {fill:none;fill-rule:nonzero}
    .fil0 {fill:black;fill-rule:nonzero}
    .fil1 {fill:#999999;fill-rule:nonzero}
    .fil3 {fill:#CC9933;fill-rule:nonzero}
   ]]>
  </style>
 </defs>
 <g id="Layer_x0020_1">
  <metadata id="CorelCorpID_0Corel-Layer"/>
  <g id="Hollow_x0020_Colorido">
   <path class="fil0" d="M23274.44 16025.47c0,172.2 155.07,327.28 327.28,327.28l1567.25 0c189.33,0 327.12,-155.07 327.12,-327.28l0 -7405.44 34.41 0 7061.35 7784.41c86.1,86.1 172.2,120.51 292.71,120.51l241.18 0c172.2,0 327.12,-137.79 327.12,-309.99l0 -11590.43c0,-172.36 -154.92,-327.28 -327.12,-327.28l-1584.53 0c-189.33,0 -327.12,154.92 -327.12,327.28l0 7112.73 -34.56 0 -7026.78 -7491.7c-86.1,-86.1 -172.2,-120.51 -292.71,-120.51l-258.3 0c-172.2,0 -327.28,137.79 -327.28,309.99l0 11590.43z"/>
   <path id="_1" class="fil0" d="M36380.58 16025.47c0,172.2 137.79,327.28 327.28,327.28l1584.38 0c172.2,0 327.28,-155.07 327.28,-327.28l0 -4391.6 1911.65 0 2290.47 4563.8c34.56,68.97 120.67,155.07 275.58,155.07l1808.43 0c292.71,0 413.22,-275.58 292.71,-499.48l-2359.44 -4374.32c1498.28,-602.86 2548.92,-1894.53 2548.92,-3478.9 0,-2049.45 -1687.76,-3702.8 -3754.49,-3702.8l-4925.49 0c-189.48,0 -327.28,154.92 -327.28,327.28l0 11400.95zm2256.06 -6234.44l0 -3427.21 2807.23 0c912.85,0 1705.04,757.78 1705.04,1670.63 0,964.39 -792.19,1756.58 -1705.04,1756.58l-2807.23 0z"/>
   <path id="_2" class="fil0" d="M49693.34 16025.47c0,172.2 155.07,327.28 327.28,327.28l1601.66 0c172.2,0 327.28,-155.07 327.28,-327.28l0 -9661.65 2634.87 0c189.48,0 327.28,-154.92 327.28,-327.12l0 -1412.18c0,-172.36 -137.79,-327.28 -327.28,-327.28l-7525.95 0c-189.48,0 -327.28,154.92 -327.28,327.28l0 1412.18c0,172.2 137.79,327.12 327.28,327.12l2634.87 0 0 9661.65z"/>
   <path id="_3" class="fil1" d="M56444.54 15129.9c-218.13,-195.09 -252.7,-390.33 -103.38,-585.42l258.3 -327.28c172.2,-229.65 355.92,-264.06 551.17,-103.38 975.91,838.12 1963.35,1257.26 2962.14,1257.26 689.12,0 1245.89,-189.48 1670.79,-568.3 424.74,-378.97 637.11,-843.88 637.11,-1395.05 0,-562.53 -235.26,-1044.73 -706.09,-1446.59 -470.67,-401.86 -1240.13,-826.75 -2307.9,-1274.54 -528.13,-229.65 -955.83,-436.26 -1283.1,-619.99 -327.12,-183.72 -637.11,-410.42 -929.98,-680.24 -292.71,-269.82 -502.28,-582.62 -628.55,-938.54 -126.27,-355.92 -189.48,-775.06 -189.48,-1257.26 0,-321.52 66.02,-648.79 198.05,-981.67 132.03,-333.04 333.04,-660.16 602.86,-981.67 269.82,-321.52 654.4,-585.58 1153.87,-792.19 499.48,-206.77 1070.58,-309.99 1713.61,-309.99 505.24,0 1001.91,74.58 1489.87,223.89 487.96,149.16 852.44,292.71 1093.62,430.5l361.69 223.89c229.5,114.75 264.06,309.99 103.23,585.58l-172.2 292.71c-126.27,218.13 -327.28,246.94 -602.7,86.1 -769.3,-459.15 -1532.84,-688.81 -2290.78,-688.81 -815.23,0 -1415.13,200.85 -1799.71,602.7 -384.57,401.86 -576.86,832.51 -576.86,1291.67 0,562.69 183.57,1013.28 551.01,1351.92 367.45,338.8 958.79,674.64 1773.86,1007.52 1320.63,539.65 2287.82,1079.29 2902.2,1618.94 614.23,539.65 921.26,1274.38 921.26,2204.36 0,884.05 -364.49,1633.27 -1093.62,2247.49 -728.98,614.38 -1604.46,921.42 -2626.46,921.42 -608.47,0 -1208.37,-111.95 -1799.71,-335.84 -591.34,-223.89 -1004.72,-418.98 -1239.97,-585.58 -235.41,-166.44 -433.46,-324.32 -594.14,-473.63z"/>
   <path id="_4" class="fil1" d="M65348.41 12357.24c0,-1125.23 390.49,-2095.38 1171.16,-2910.61 780.82,-815.08 1722.17,-1222.69 2824.51,-1222.69 1102.18,0 2043.69,407.62 2824.35,1222.69 780.82,815.23 1171.16,1785.38 1171.16,2910.61 0,1136.59 -390.33,2118.26 -1171.16,2945.02 -780.67,826.6 -1722.17,1239.97 -2824.35,1239.97 -1102.34,0 -2043.69,-413.38 -2824.51,-1239.97 -780.67,-826.75 -1171.16,-1808.43 -1171.16,-2945.02zm1257.26 0c0,838.12 261.26,1552.77 783.63,2144.11 522.37,591.34 1173.96,887.01 1954.78,887.01 769.15,0 1414.98,-295.67 1937.5,-887.01 522.37,-591.34 783.47,-1305.99 783.47,-2144.11 0,-815.23 -261.1,-1515.56 -783.47,-2101.14 -522.52,-585.58 -1168.35,-878.29 -1937.5,-878.29 -769.3,0 -1417.94,292.71 -1946.22,878.29 -528.13,585.58 -792.19,1285.91 -792.19,2101.14z"/>
   <path id="_5" class="fil1" d="M76077.99 15973.94l0 -6475.61 -1274.54 0c-103.23,0 -192.29,-37.37 -266.87,-111.95 -74.73,-74.58 -111.95,-163.64 -111.95,-266.87l0 -344.56c0,-114.75 37.21,-206.61 111.95,-275.58 74.58,-68.82 163.64,-103.23 266.87,-103.23l1274.54 0 0 -1257.26c0,-987.43 226.7,-1736.49 680.24,-2247.49 453.55,-510.84 1110.75,-766.34 1971.91,-766.34 884.05,0 1613.18,275.58 2187.24,826.6 149.16,149.31 172.2,298.47 68.82,447.79l-327.12 413.38c-114.9,160.68 -281.35,166.44 -499.48,17.13 -505.24,-367.29 -993.19,-551.01 -1463.87,-551.01 -895.57,0 -1343.36,619.99 -1343.36,1859.96l0 1257.26 2359.44 0c103.38,0 192.29,34.41 266.87,103.23 74.73,68.97 111.95,160.84 111.95,275.58l0 344.56c0,103.23 -37.21,192.29 -111.95,266.87 -74.58,74.58 -163.48,111.95 -266.87,111.95l-2359.44 0 0 6475.61c0,103.23 -37.37,192.29 -111.95,266.87 -74.58,74.58 -163.64,111.95 -267.02,111.95l-516.6 0c-103.38,0 -192.29,-37.37 -266.87,-111.95 -74.73,-74.58 -111.95,-163.64 -111.95,-266.87z"/>
   <path id="_6" class="fil1" d="M82312.28 9498.32l-1050.49 0c-114.9,0 -209.57,-37.37 -284.15,-111.95 -74.73,-74.58 -111.95,-163.64 -111.95,-266.87l0 -344.56c0,-252.54 132.03,-378.81 396.09,-378.81l1050.49 0 0 -2204.52c0,-103.23 37.37,-189.33 111.95,-258.3 74.73,-68.82 163.64,-108.99 267.02,-120.51l533.89 -34.41c103.23,-11.52 189.33,22.89 258.3,103.23 68.82,80.34 103.38,172.2 103.38,275.58l0 2238.93 2342.16 0c114.75,0 209.57,34.41 284.15,103.23 74.58,68.97 111.95,160.84 111.95,275.58l0 344.56c0,103.23 -37.37,192.29 -111.95,266.87 -74.58,74.58 -169.4,111.95 -284.15,111.95l-2342.16 0 0 4753.29c0,757.78 235.26,1136.75 706.09,1136.75 493.72,0 1016.08,-172.2 1567.1,-516.76 218.29,-137.79 384.73,-86.1 499.48,155.07l155.07 361.69c91.86,218.13 45.93,390.33 -137.79,516.6 -608.47,424.9 -1354.88,637.27 -2238.93,637.27 -700.33,0 -1179.72,-192.29 -1438.02,-577.01 -258.3,-384.57 -387.53,-927.02 -387.53,-1627.51l0 -4839.39z"/>
   <path id="_7" class="fil1" d="M93024.57 10359.49l-34.41 0 -2342.31 5975.98c-45.93,137.79 -155.07,206.77 -327.28,206.77l-103.38 0c-172.2,0 -286.95,-68.97 -344.4,-206.77l-2204.36 -7491.54c-80.5,-298.63 22.89,-447.79 309.99,-447.79l585.42 0c206.77,0 327.28,74.58 361.69,223.89l1463.87 5407.68 34.56 0 2238.77 -5614.45c45.93,-126.27 160.99,-189.33 344.71,-189.33l103.23 0c172.2,0 281.35,63.06 327.28,189.33l2221.65 5631.73 34.41 0 1463.87 -5424.97c34.56,-149.31 143.55,-223.89 327.28,-223.89l602.7 0c287.11,0 378.97,149.16 275.58,447.79l-2169.96 7491.54c-34.41,137.79 -143.55,206.77 -327.28,206.77l-103.23 0c-160.84,0 -275.58,-68.97 -344.56,-206.77l-2393.85 -5975.98z"/>
   <path id="_8" class="fil1" d="M100404.32 15827.43c-465.07,-476.43 -697.52,-1104.99 -697.52,-1885.81 0,-780.67 281.19,-1415.13 843.88,-1903.09 562.53,-487.96 1343.36,-731.93 2342.16,-731.93 252.54,0 519.56,20.08 800.91,60.41 281.19,40.17 502.28,83.14 662.96,129.07l241.18 68.97c11.52,-792.34 -68.97,-1354.88 -241.18,-1687.76 -172.2,-333.04 -528.13,-499.48 -1067.77,-499.48 -642.87,0 -1429.46,154.92 -2359.44,464.91 -172.2,68.97 -298.47,0 -378.81,-206.61l-172.2 -465.07c-57.45,-183.57 22.89,-327.12 241.02,-430.5 792.19,-344.4 1705.04,-516.6 2738.41,-516.6 975.91,0 1630.31,249.74 1963.35,749.06 332.88,499.48 499.32,1363.44 499.32,2592.05l0 4408.89c0,103.23 -37.21,192.29 -111.95,266.87 -74.58,74.58 -163.48,111.95 -266.87,111.95l-327.28 0c-160.68,0 -269.82,-97.62 -327.12,-292.71l-155.07 -533.89c-677.44,677.28 -1498.28,1016.08 -2462.82,1016.08 -711.85,0 -1300.23,-238.22 -1765.14,-714.81zm559.58 -1885.81c0,413.38 132.19,757.78 396.25,1033.36 264.06,275.58 608.47,413.38 1033.21,413.38 459.31,0 892.77,-106.19 1300.39,-318.71 407.46,-212.37 703.13,-462.11 886.85,-749.06l0 -1618.94c-390.33,-206.61 -952.87,-309.99 -1687.76,-309.99 -574.06,0 -1039.12,134.83 -1395.05,404.66 -355.92,269.82 -533.89,651.59 -533.89,1145.31z"/>
   <path id="_9" class="fil1" d="M108438.47 15973.94l0 -7198.98c0,-91.86 37.21,-177.96 111.95,-258.3 74.58,-80.34 163.64,-120.51 266.87,-120.51l275.58 0c183.72,0 298.47,91.86 344.4,275.58l137.79 568.3c57.45,-80.34 146.36,-175.16 267.02,-284.15 120.51,-109.14 390.33,-258.3 809.47,-447.79 418.98,-189.48 875.33,-284.15 1369.05,-284.15 183.72,0 353.12,8.56 508.04,25.85 155.07,17.13 315.75,45.93 482.35,86.1 166.44,40.17 286.95,106.19 361.53,198.05 74.73,91.86 89.06,200.85 43.13,327.12l-223.89 619.99c-80.34,229.65 -235.41,292.87 -465.07,189.48 -332.88,-149.16 -619.99,-223.89 -861.01,-223.89 -287.11,0 -556.93,34.41 -809.47,103.38 -252.54,68.82 -456.35,152.12 -611.42,249.74 -154.92,97.62 -292.71,198.05 -413.22,301.27 -120.67,103.38 -203.81,189.48 -249.74,258.46l-68.97 103.23 0 5511.22c0,103.23 -40.17,192.29 -120.51,266.87 -80.34,74.58 -166.44,111.95 -258.3,111.95l-516.76 0c-103.23,0 -192.29,-37.37 -266.87,-111.95 -74.73,-74.58 -111.95,-163.64 -111.95,-266.87z"/>
   <path id="_10" class="fil1" d="M114328.35 12374.37c0,-1159.63 350.16,-2141.15 1050.49,-2944.86 700.48,-803.71 1636.22,-1205.57 2807.23,-1205.57 1044.89,0 1906.05,341.44 2583.33,1024.65 677.44,683.2 1016.08,1547.17 1016.08,2591.9 0,137.79 -11.37,298.63 -34.41,482.35 -22.89,229.5 -143.55,344.4 -361.69,344.4l-5786.65 0c23.04,688.81 287.11,1314.55 792.34,1877.24 505.08,562.53 1107.94,843.88 1808.27,843.88 769.3,0 1486.91,-218.13 2152.83,-654.55 149.16,-103.23 258.3,-157.88 327.12,-163.48 68.97,-5.76 160.84,66.02 275.58,215.17l206.61 292.87c68.97,103.23 109.14,172.2 120.67,206.61 11.37,34.41 5.76,83.3 -17.28,146.36 -22.89,63.21 -80.34,129.23 -172.2,198.05 -769.3,608.62 -1739.45,912.85 -2910.61,912.85 -1171,0 -2106.74,-399.05 -2807.23,-1197 -700.33,-797.95 -1050.49,-1788.19 -1050.49,-2970.86zm1291.67 -723.21l4891.08 0c-22.89,-608.62 -252.54,-1139.55 -688.81,-1593.1 -436.42,-453.55 -981.67,-680.24 -1636.22,-680.24 -665.92,0 -1239.97,220.93 -1722.17,662.96 -482.2,442.03 -763.54,978.87 -843.88,1610.38z"/>
   <path id="_11" class="fil2 str0" d="M23274.44 16025.47c0,172.2 155.07,327.28 327.28,327.28l1567.25 0c189.33,0 327.12,-155.07 327.12,-327.28l0 -7405.44 34.41 0 7061.35 7784.41c86.1,86.1 172.2,120.51 292.71,120.51l241.18 0c172.2,0 327.12,-137.79 327.12,-309.99l0 -11590.43c0,-172.36 -154.92,-327.28 -327.12,-327.28l-1584.53 0c-189.33,0 -327.12,154.92 -327.12,327.28l0 7112.73 -34.56 0 -7026.78 -7491.7c-86.1,-86.1 -172.2,-120.51 -292.71,-120.51l-258.3 0c-172.2,0 -327.28,137.79 -327.28,309.99l0 11590.43z"/>
   <path id="_12" class="fil2 str0" d="M36380.58 16025.47c0,172.2 137.79,327.28 327.28,327.28l1584.38 0c172.2,0 327.28,-155.07 327.28,-327.28l0 -4391.6 1911.65 0 2290.47 4563.8c34.56,68.97 120.67,155.07 275.58,155.07l1808.43 0c292.71,0 413.22,-275.58 292.71,-499.48l-2359.44 -4374.32c1498.28,-602.86 2548.92,-1894.53 2548.92,-3478.9 0,-2049.45 -1687.76,-3702.8 -3754.49,-3702.8l-4925.49 0c-189.48,0 -327.28,154.92 -327.28,327.28l0 11400.95zm2256.06 -6234.44l0 -3427.21 2807.23 0c912.85,0 1705.04,757.78 1705.04,1670.63 0,964.39 -792.19,1756.58 -1705.04,1756.58l-2807.23 0z"/>
   <path id="_13" class="fil2 str0" d="M49693.34 16025.47c0,172.2 155.07,327.28 327.28,327.28l1601.66 0c172.2,0 327.28,-155.07 327.28,-327.28l0 -9661.65 2634.87 0c189.48,0 327.28,-154.92 327.28,-327.12l0 -1412.18c0,-172.36 -137.79,-327.28 -327.28,-327.28l-7525.95 0c-189.48,0 -327.28,154.92 -327.28,327.28l0 1412.18c0,172.2 137.79,327.12 327.28,327.12l2634.87 0 0 9661.65z"/>
   <path id="_14" class="fil2" d="M56444.54 15129.9c-218.13,-195.09 -252.7,-390.33 -103.38,-585.42l258.3 -327.28c172.2,-229.65 355.92,-264.06 551.17,-103.38 975.91,838.12 1963.35,1257.26 2962.14,1257.26 689.12,0 1245.89,-189.48 1670.79,-568.3 424.74,-378.97 637.11,-843.88 637.11,-1395.05 0,-562.53 -235.26,-1044.73 -706.09,-1446.59 -470.67,-401.86 -1240.13,-826.75 -2307.9,-1274.54 -528.13,-229.65 -955.83,-436.26 -1283.1,-619.99 -327.12,-183.72 -637.11,-410.42 -929.98,-680.24 -292.71,-269.82 -502.28,-582.62 -628.55,-938.54 -126.27,-355.92 -189.48,-775.06 -189.48,-1257.26 0,-321.52 66.02,-648.79 198.05,-981.67 132.03,-333.04 333.04,-660.16 602.86,-981.67 269.82,-321.52 654.4,-585.58 1153.87,-792.19 499.48,-206.77 1070.58,-309.99 1713.61,-309.99 505.24,0 1001.91,74.58 1489.87,223.89 487.96,149.16 852.44,292.71 1093.62,430.5l361.69 223.89c229.5,114.75 264.06,309.99 103.23,585.58l-172.2 292.71c-126.27,218.13 -327.28,246.94 -602.7,86.1 -769.3,-459.15 -1532.84,-688.81 -2290.78,-688.81 -815.23,0 -1415.13,200.85 -1799.71,602.7 -384.57,401.86 -576.86,832.51 -576.86,1291.67 0,562.69 183.57,1013.28 551.01,1351.92 367.45,338.8 958.79,674.64 1773.86,1007.52 1320.63,539.65 2287.82,1079.29 2902.2,1618.94 614.23,539.65 921.26,1274.38 921.26,2204.36 0,884.05 -364.49,1633.27 -1093.62,2247.49 -728.98,614.38 -1604.46,921.42 -2626.46,921.42 -608.47,0 -1208.37,-111.95 -1799.71,-335.84 -591.34,-223.89 -1004.72,-418.98 -1239.97,-585.58 -235.41,-166.44 -433.46,-324.32 -594.14,-473.63z"/>
   <path id="_15" class="fil2" d="M65348.41 12357.24c0,-1125.23 390.49,-2095.38 1171.16,-2910.61 780.82,-815.08 1722.17,-1222.69 2824.51,-1222.69 1102.18,0 2043.69,407.62 2824.35,1222.69 780.82,815.23 1171.16,1785.38 1171.16,2910.61 0,1136.59 -390.33,2118.26 -1171.16,2945.02 -780.67,826.6 -1722.17,1239.97 -2824.35,1239.97 -1102.34,0 -2043.69,-413.38 -2824.51,-1239.97 -780.67,-826.75 -1171.16,-1808.43 -1171.16,-2945.02zm1257.26 0c0,838.12 261.26,1552.77 783.63,2144.11 522.37,591.34 1173.96,887.01 1954.78,887.01 769.15,0 1414.98,-295.67 1937.5,-887.01 522.37,-591.34 783.47,-1305.99 783.47,-2144.11 0,-815.23 -261.1,-1515.56 -783.47,-2101.14 -522.52,-585.58 -1168.35,-878.29 -1937.5,-878.29 -769.3,0 -1417.94,292.71 -1946.22,878.29 -528.13,585.58 -792.19,1285.91 -792.19,2101.14z"/>
   <path id="_16" class="fil2" d="M76077.99 15973.94l0 -6475.61 -1274.54 0c-103.23,0 -192.29,-37.37 -266.87,-111.95 -74.73,-74.58 -111.95,-163.64 -111.95,-266.87l0 -344.56c0,-114.75 37.21,-206.61 111.95,-275.58 74.58,-68.82 163.64,-103.23 266.87,-103.23l1274.54 0 0 -1257.26c0,-987.43 226.7,-1736.49 680.24,-2247.49 453.55,-510.84 1110.75,-766.34 1971.91,-766.34 884.05,0 1613.18,275.58 2187.24,826.6 149.16,149.31 172.2,298.47 68.82,447.79l-327.12 413.38c-114.9,160.68 -281.35,166.44 -499.48,17.13 -505.24,-367.29 -993.19,-551.01 -1463.87,-551.01 -895.57,0 -1343.36,619.99 -1343.36,1859.96l0 1257.26 2359.44 0c103.38,0 192.29,34.41 266.87,103.23 74.73,68.97 111.95,160.84 111.95,275.58l0 344.56c0,103.23 -37.21,192.29 -111.95,266.87 -74.58,74.58 -163.48,111.95 -266.87,111.95l-2359.44 0 0 6475.61c0,103.23 -37.37,192.29 -111.95,266.87 -74.58,74.58 -163.64,111.95 -267.02,111.95l-516.6 0c-103.38,0 -192.29,-37.37 -266.87,-111.95 -74.73,-74.58 -111.95,-163.64 -111.95,-266.87z"/>
   <path id="_17" class="fil2" d="M82312.28 9498.32l-1050.49 0c-114.9,0 -209.57,-37.37 -284.15,-111.95 -74.73,-74.58 -111.95,-163.64 -111.95,-266.87l0 -344.56c0,-252.54 132.03,-378.81 396.09,-378.81l1050.49 0 0 -2204.52c0,-103.23 37.37,-189.33 111.95,-258.3 74.73,-68.82 163.64,-108.99 267.02,-120.51l533.89 -34.41c103.23,-11.52 189.33,22.89 258.3,103.23 68.82,80.34 103.38,172.2 103.38,275.58l0 2238.93 2342.16 0c114.75,0 209.57,34.41 284.15,103.23 74.58,68.97 111.95,160.84 111.95,275.58l0 344.56c0,103.23 -37.37,192.29 -111.95,266.87 -74.58,74.58 -169.4,111.95 -284.15,111.95l-2342.16 0 0 4753.29c0,757.78 235.26,1136.75 706.09,1136.75 493.72,0 1016.08,-172.2 1567.1,-516.76 218.29,-137.79 384.73,-86.1 499.48,155.07l155.07 361.69c91.86,218.13 45.93,390.33 -137.79,516.6 -608.47,424.9 -1354.88,637.27 -2238.93,637.27 -700.33,0 -1179.72,-192.29 -1438.02,-577.01 -258.3,-384.57 -387.53,-927.02 -387.53,-1627.51l0 -4839.39z"/>
   <path id="_18" class="fil2" d="M93024.57 10359.49l-34.41 0 -2342.31 5975.98c-45.93,137.79 -155.07,206.77 -327.28,206.77l-103.38 0c-172.2,0 -286.95,-68.97 -344.4,-206.77l-2204.36 -7491.54c-80.5,-298.63 22.89,-447.79 309.99,-447.79l585.42 0c206.77,0 327.28,74.58 361.69,223.89l1463.87 5407.68 34.56 0 2238.77 -5614.45c45.93,-126.27 160.99,-189.33 344.71,-189.33l103.23 0c172.2,0 281.35,63.06 327.28,189.33l2221.65 5631.73 34.41 0 1463.87 -5424.97c34.56,-149.31 143.55,-223.89 327.28,-223.89l602.7 0c287.11,0 378.97,149.16 275.58,447.79l-2169.96 7491.54c-34.41,137.79 -143.55,206.77 -327.28,206.77l-103.23 0c-160.84,0 -275.58,-68.97 -344.56,-206.77l-2393.85 -5975.98z"/>
   <path id="_19" class="fil2" d="M100404.32 15827.43c-465.07,-476.43 -697.52,-1104.99 -697.52,-1885.81 0,-780.67 281.19,-1415.13 843.88,-1903.09 562.53,-487.96 1343.36,-731.93 2342.16,-731.93 252.54,0 519.56,20.08 800.91,60.41 281.19,40.17 502.28,83.14 662.96,129.07l241.18 68.97c11.52,-792.34 -68.97,-1354.88 -241.18,-1687.76 -172.2,-333.04 -528.13,-499.48 -1067.77,-499.48 -642.87,0 -1429.46,154.92 -2359.44,464.91 -172.2,68.97 -298.47,0 -378.81,-206.61l-172.2 -465.07c-57.45,-183.57 22.89,-327.12 241.02,-430.5 792.19,-344.4 1705.04,-516.6 2738.41,-516.6 975.91,0 1630.31,249.74 1963.35,749.06 332.88,499.48 499.32,1363.44 499.32,2592.05l0 4408.89c0,103.23 -37.21,192.29 -111.95,266.87 -74.58,74.58 -163.48,111.95 -266.87,111.95l-327.28 0c-160.68,0 -269.82,-97.62 -327.12,-292.71l-155.07 -533.89c-677.44,677.28 -1498.28,1016.08 -2462.82,1016.08 -711.85,0 -1300.23,-238.22 -1765.14,-714.81zm559.58 -1885.81c0,413.38 132.19,757.78 396.25,1033.36 264.06,275.58 608.47,413.38 1033.21,413.38 459.31,0 892.77,-106.19 1300.39,-318.71 407.46,-212.37 703.13,-462.11 886.85,-749.06l0 -1618.94c-390.33,-206.61 -952.87,-309.99 -1687.76,-309.99 -574.06,0 -1039.12,134.83 -1395.05,404.66 -355.92,269.82 -533.89,651.59 -533.89,1145.31z"/>
   <path id="_20" class="fil2" d="M108438.47 15973.94l0 -7198.98c0,-91.86 37.21,-177.96 111.95,-258.3 74.58,-80.34 163.64,-120.51 266.87,-120.51l275.58 0c183.72,0 298.47,91.86 344.4,275.58l137.79 568.3c57.45,-80.34 146.36,-175.16 267.02,-284.15 120.51,-109.14 390.33,-258.3 809.47,-447.79 418.98,-189.48 875.33,-284.15 1369.05,-284.15 183.72,0 353.12,8.56 508.04,25.85 155.07,17.13 315.75,45.93 482.35,86.1 166.44,40.17 286.95,106.19 361.53,198.05 74.73,91.86 89.06,200.85 43.13,327.12l-223.89 619.99c-80.34,229.65 -235.41,292.87 -465.07,189.48 -332.88,-149.16 -619.99,-223.89 -861.01,-223.89 -287.11,0 -556.93,34.41 -809.47,103.38 -252.54,68.82 -456.35,152.12 -611.42,249.74 -154.92,97.62 -292.71,198.05 -413.22,301.27 -120.67,103.38 -203.81,189.48 -249.74,258.46l-68.97 103.23 0 5511.22c0,103.23 -40.17,192.29 -120.51,266.87 -80.34,74.58 -166.44,111.95 -258.3,111.95l-516.76 0c-103.23,0 -192.29,-37.37 -266.87,-111.95 -74.73,-74.58 -111.95,-163.64 -111.95,-266.87z"/>
   <path id="_21" class="fil2" d="M114328.35 12374.37c0,-1159.63 350.16,-2141.15 1050.49,-2944.86 700.48,-803.71 1636.22,-1205.57 2807.23,-1205.57 1044.89,0 1906.05,341.44 2583.33,1024.65 677.44,683.2 1016.08,1547.17 1016.08,2591.9 0,137.79 -11.37,298.63 -34.41,482.35 -22.89,229.5 -143.55,344.4 -361.69,344.4l-5786.65 0c23.04,688.81 287.11,1314.55 792.34,1877.24 505.08,562.53 1107.94,843.88 1808.27,843.88 769.3,0 1486.91,-218.13 2152.83,-654.55 149.16,-103.23 258.3,-157.88 327.12,-163.48 68.97,-5.76 160.84,66.02 275.58,215.17l206.61 292.87c68.97,103.23 109.14,172.2 120.67,206.61 11.37,34.41 5.76,83.3 -17.28,146.36 -22.89,63.21 -80.34,129.23 -172.2,198.05 -769.3,608.62 -1739.45,912.85 -2910.61,912.85 -1171,0 -2106.74,-399.05 -2807.23,-1197 -700.33,-797.95 -1050.49,-1788.19 -1050.49,-2970.86zm1291.67 -723.21l4891.08 0c-22.89,-608.62 -252.54,-1139.55 -688.81,-1593.1 -436.42,-453.55 -981.67,-680.24 -1636.22,-680.24 -665.92,0 -1239.97,220.93 -1722.17,662.96 -482.2,442.03 -763.54,978.87 -843.88,1610.38z"/>
   <g id="Chipset">
    <g>
     <path class="fil3" d="M20067.23 5105.16l-2130.25 4.83c-319.49,0.62 -577.79,329.14 -577.17,733.49l0 77.07c0.62,404.5 259.86,731.93 579.19,731.16l2130.41 -4.67c319.34,-0.78 577.79,-329.14 577.17,-733.65l0 -77.07c-0.62,-404.5 -259.86,-731.78 -579.35,-731.16z"/>
     <path class="fil3" d="M20052.12 7994.13l-2100.05 4.52c-327.74,0.78 -592.9,333.66 -592.27,743.77l0 57.14c0.62,409.95 266.71,741.74 594.45,740.96l2099.89 -4.52c327.74,-0.78 593.05,-333.66 592.43,-743.77l0 -56.99c-0.62,-410.11 -266.71,-741.9 -594.45,-741.12z"/>
     <path class="fil3" d="M20055.24 11129.1l-2099.89 -9.19c-327.74,-1.56 -594.3,328.52 -595.54,737.23l0 56.99c-1.09,408.71 263.6,741.12 591.34,742.68l2099.74 9.03c327.74,1.56 594.3,-328.68 595.39,-737.23l0.16 -56.99c1.25,-408.71 -263.44,-741.12 -591.18,-742.52z"/>
     <path class="fil3" d="M20054.15 14013.24l-2099.89 -4.52c-327.74,-0.78 -593.83,326.81 -594.45,731.78l0 75.2c-0.62,404.81 264.53,733.65 592.27,734.43l2100.05 4.52c327.74,0.78 593.83,-326.81 594.45,-731.78l0 -75.2c0.62,-404.97 -264.69,-733.65 -592.43,-734.43z"/>
    </g>
    <g>
     <path class="fil3" d="M2714.74 5114.66l-2124.65 -9.34c-320.89,-1.4 -581.84,324.32 -582.93,727.57l-0.16 76.76c-1.25,403.26 257.99,731.31 578.73,732.71l2124.8 9.19c320.74,1.56 581.69,-324.16 582.93,-727.42l0.16 -76.91c1.09,-403.1 -257.99,-731.16 -578.88,-732.56z"/>
     <path class="fil3" d="M2700.73 8000.83l-2094.29 -13.55c-329.14,-2.02 -597.57,322.61 -599.12,725.39l-0.47 74.73c-1.71,402.79 263.91,730.84 593.05,732.87l2094.13 13.55c329.3,2.02 597.57,-322.76 599.28,-725.24l0.31 -74.89c1.71,-402.63 -263.75,-730.84 -592.9,-732.87z"/>
     <path class="fil3" d="M2691.08 11119.91l-2088.53 -13.7c-330.86,-2.02 -600.37,326.65 -602.08,734.27l-0.31 56.67c-1.56,407.62 265,739.72 595.85,741.9l2088.53 13.55c330.86,2.02 600.37,-326.65 602.08,-734.27l0.31 -56.67c1.71,-407.62 -265,-739.72 -595.85,-741.74z"/>
     <path class="fil3" d="M2697.61 14008.1l-2094.6 0c-329.3,0 -596.32,329.46 -596.32,735.83l0 75.51c0,406.37 267.02,735.83 596.32,735.83l2094.6 0c329.3,0 596.17,-329.46 596.17,-735.83l0 -75.51c0,-406.37 -266.87,-735.83 -596.17,-735.83z"/>
    </g>
    <g>
     <path class="fil3" d="M5929.89 17359.49l-75.51 0c-406.37,0 -735.67,268.27 -735.67,599.12l0 2089.15c0,330.86 329.3,598.97 735.67,598.97l75.51 0c406.21,0 735.67,-268.11 735.67,-598.97l0 -2089.15c0,-330.86 -329.46,-599.12 -735.67,-599.12z"/>
     <path class="fil3" d="M11928.3 17366.65l-77.07 0c-404.35,-0.62 -732.87,258.92 -733.49,579.82l-4.67 2124.8c-0.78,320.74 326.34,581.37 730.84,581.84l77.07 0c404.5,0.62 732.71,-258.92 733.65,-579.66l4.52 -2124.8c0.78,-320.89 -326.5,-581.37 -730.84,-582z"/>
     <path class="fil3" d="M8821.82 17373.66l-94.98 -0.31c-398.27,-1.09 -722.28,261.57 -723.53,586.98l-9.19 2108.46c-1.25,325.25 320.43,589.94 718.7,591.03l94.98 0.31c398.27,1.09 722.28,-261.73 723.53,-586.98l9.19 -2108.46c1.25,-325.41 -320.43,-590.09 -718.7,-591.03z"/>
     <path class="fil3" d="M14819.29 17380.04l-75.36 0c-406.53,0 -735.98,269.36 -735.98,601.77l0 2083.23c0,332.41 329.46,601.93 735.98,601.93l75.36 0c406.53,0 735.98,-269.51 735.98,-601.93l0 -2083.23c0,-332.41 -329.46,-601.77 -735.98,-601.77z"/>
    </g>
    <g>
     <path class="fil3" d="M5914.01 -0.16l-57.3 0c-411.35,0 -744.86,263.28 -744.86,588.07l0 2111.1c0,324.78 333.5,588.07 744.86,588.07l57.3 0c411.2,0 744.7,-263.28 744.7,-588.07l0 -2111.1c0,-324.78 -333.5,-588.07 -744.7,-588.07z"/>
     <path class="fil3" d="M8795.97 13.55l-57.3 0c-411.35,0 -744.86,265.62 -744.86,593.36l0 2100.2c0,327.74 333.5,593.52 744.86,593.52l57.3 0c411.35,0 745.01,-265.78 745.01,-593.52l0 -2100.2c0,-327.74 -333.66,-593.36 -745.01,-593.36z"/>
     <path class="fil3" d="M11938.26 6.69l-77.38 0c-405.9,0 -734.74,257.68 -734.74,575.61l0 2135.86c0,317.93 328.83,575.61 734.74,575.61l77.38 0c405.9,0 734.74,-257.68 734.74,-575.61l0 -2135.86c0,-317.93 -328.83,-575.61 -734.74,-575.61z"/>
     <path class="fil3" d="M14832.83 13.39l-75.36 0c-406.37,0 -735.67,265.62 -735.67,593.52l0 2100.2c0,327.9 329.3,593.52 735.67,593.52l75.36 0c406.37,0 735.83,-265.62 735.83,-593.52l0 -2100.2c0,-327.9 -329.46,-593.52 -735.83,-593.52z"/>
    </g>
    <path class="fil1 str1" d="M16103.01 14138.58c1.71,256.59 -47.18,510.84 -144.02,748.28 -96.69,237.44 -239.62,453.39 -420.07,635.4 -180.45,182.01 -395.16,326.34 -631.66,425.05 -236.66,98.4 -490.14,149.16 -746.41,149.16l-7661.72 13.39c-256.12,1.71 -510.22,-47.18 -747.35,-144.18 -237.13,-96.84 -452.92,-239.93 -634.62,-420.54 -181.85,-180.76 -326.19,-395.78 -424.59,-632.44 -98.4,-236.97 -149.16,-490.76 -149.16,-747.35l-13.23 -7670.59c-1.87,-257.68 47.49,-513.18 145.27,-751.4 97.47,-238.37 241.49,-454.95 423.5,-637.11 182.01,-182.17 398.27,-326.34 636.34,-424.12 238.06,-97.62 493.09,-147.13 750.46,-145.42l7648.33 0c256.12,-1.71 510.22,47.33 747.35,144.18 237.13,97 452.92,239.93 634.78,420.69 181.7,180.61 325.87,395.63 424.43,632.44 98.4,236.82 149,490.76 149,747.19l13.39 7657.36zm-1098.29 -7657.36c0,-218.13 -85.63,-427.7 -238.53,-583.24 -152.89,-155.54 -360.6,-244.6 -578.57,-248.18l-7701.89 -13.39c-220.31,0 -431.44,87.66 -587.29,243.51 -155.7,155.85 -243.2,367.45 -243.2,587.91l-13.39 7684.14c0,220.47 87.5,431.9 243.2,587.91 155.7,156.01 366.98,243.51 587.29,243.51l7688.5 13.55c217.98,0 427.08,-85.79 582.46,-238.84 155.39,-153.05 244.6,-361.06 248.03,-579.35l13.39 -7697.53z"/>
   </g>
  </g>
 </g>
</svg>
