<svg width="980" height="240" viewBox="0 0 980 240" fill="none" xmlns="http://www.w3.org/2000/svg">
<rect width="980" height="240"/>
<path d="M381.6 87.3C376.2 81.5 369.433 78.5667 361.3 78.5C350.7 78.5 340.3 78.5 330.1 78.5C329.755 78.5 329.425 78.637 329.181 78.8808C328.937 79.1246 328.8 79.4552 328.8 79.8V158C328.8 159 329.3 159.5 330.3 159.5H338.8C339.198 159.5 339.579 159.342 339.861 159.061C340.142 158.779 340.3 158.398 340.3 158V133.5C340.3 133.367 340.353 133.24 340.446 133.146C340.54 133.053 340.667 133 340.8 133H359.8C360.133 133 360.433 133.167 360.7 133.5C365.767 140.967 370.867 148.467 376 156C379.4 161 383.8 159.5 388.8 159.5C388.996 159.496 389.188 159.44 389.355 159.337C389.522 159.234 389.659 159.088 389.75 158.915C389.842 158.741 389.886 158.547 389.877 158.351C389.868 158.155 389.807 157.964 389.7 157.8L371.7 131.8C371.5 131.533 371.567 131.333 371.9 131.2C382.167 126.467 387.8 118.4 388.8 107" stroke="black" stroke-width="2"/>
<path d="M423.2 156.5C423.6 157.9 424.433 158.867 425.7 159.4" stroke="black" stroke-width="2"/>
<path d="M94.4 47C94.4 45.9657 93.9891 44.9737 93.2577 44.2423C92.5263 43.5109 91.5344 43.1 90.5 43.1H90.2C89.1657 43.1 88.1737 43.5109 87.4423 44.2423C86.7109 44.9737 86.3 45.9657 86.3 47V61C86.3 61.5122 86.4009 62.0193 86.5969 62.4925C86.7929 62.9656 87.0802 63.3956 87.4423 63.7577C87.8044 64.1199 88.2344 64.4071 88.7076 64.6031C89.1807 64.7991 89.6879 64.9 90.2 64.9H90.5C91.0122 64.9 91.5193 64.7991 91.9925 64.6031C92.4656 64.4071 92.8956 64.1199 93.2577 63.7577C93.6199 63.3956 93.9071 62.9656 94.1031 62.4925C94.2991 62.0193 94.4 61.5122 94.4 61V47Z" stroke="black" stroke-width="2"/>
<path d="M115.7 47.1C115.674 46.0831 115.252 45.1166 114.523 44.4067C113.794 43.6968 112.817 43.2997 111.8 43.3H111.5C110.483 43.2997 109.506 43.6968 108.777 44.4067C108.048 45.1166 107.626 46.0831 107.6 47.1V61C107.6 61.5122 107.701 62.0193 107.897 62.4925C108.093 62.9656 108.38 63.3956 108.742 63.7577C109.104 64.1199 109.534 64.4071 110.008 64.6031C110.481 64.7991 110.988 64.9 111.5 64.9H111.8C112.312 64.9 112.819 64.7991 113.292 64.6031C113.766 64.4071 114.196 64.1199 114.558 63.7577C114.92 63.3956 115.207 62.9656 115.403 62.4925C115.599 62.0193 115.7 61.5122 115.7 61V47.1Z" stroke="black" stroke-width="2"/>
<path d="M138.7 47.1C138.713 46.5926 138.625 46.0877 138.44 45.6151C138.255 45.1424 137.977 44.7116 137.623 44.3481C137.269 43.9846 136.845 43.6957 136.378 43.4985C135.91 43.3013 135.408 43.1998 134.9 43.2H134.6C134.092 43.1998 133.59 43.3013 133.122 43.4985C132.655 43.6957 132.231 43.9846 131.877 44.3481C131.523 44.7116 131.245 45.1424 131.06 45.6151C130.875 46.0877 130.787 46.5926 130.8 47.1V61.1C130.8 61.599 130.898 62.0932 131.089 62.5542C131.28 63.0152 131.56 63.4341 131.913 63.787C132.266 64.1399 132.685 64.4198 133.146 64.6107C133.607 64.8017 134.101 64.9 134.6 64.9H134.9C135.399 64.9 135.893 64.8017 136.354 64.6107C136.815 64.4198 137.234 64.1399 137.587 63.787C137.94 63.4341 138.22 63.0152 138.411 62.5542C138.602 62.0932 138.7 61.599 138.7 61.1V47.1Z" stroke="black" stroke-width="2"/>
<path d="M160.2 47.2C160.2 46.1657 159.789 45.1737 159.058 44.4423C158.326 43.7109 157.334 43.3 156.3 43.3H156C155.488 43.3 154.981 43.4009 154.508 43.5969C154.034 43.7929 153.604 44.0801 153.242 44.4423C152.88 44.8044 152.593 45.2344 152.397 45.7075C152.201 46.1807 152.1 46.6878 152.1 47.2V61C152.1 61.5122 152.201 62.0193 152.397 62.4925C152.593 62.9656 152.88 63.3956 153.242 63.7577C153.604 64.1199 154.034 64.4071 154.508 64.6031C154.981 64.7991 155.488 64.9 156 64.9H156.3C157.334 64.9 158.326 64.4891 159.058 63.7577C159.789 63.0263 160.2 62.0343 160.2 61V47.2Z" stroke="black" stroke-width="2"/>
<path d="M166.2 89.5C166.2 87.5874 165.822 85.6937 165.087 83.9279C164.352 82.1621 163.275 80.5592 161.918 79.2114C160.561 77.8637 158.95 76.7977 157.18 76.0749C155.409 75.3521 153.513 74.9868 151.6 75H94.5C92.579 74.9867 90.6745 75.3553 88.8971 76.0843C87.1198 76.8133 85.505 77.8882 84.1466 79.2466C82.7882 80.605 81.7133 82.2198 80.9843 83.9971C80.2553 85.7745 79.8867 87.679 79.9 89.6L80 146.8C80 148.713 80.3783 150.606 81.1132 152.372C81.8482 154.138 82.9252 155.741 84.2823 157.089C85.6393 158.436 87.2496 159.502 89.0204 160.225C90.7912 160.948 92.6874 161.313 94.6 161.3L151.8 161.2C153.713 161.2 155.606 160.822 157.372 160.087C159.138 159.352 160.741 158.275 162.089 156.918C163.436 155.561 164.502 153.95 165.225 152.18C165.948 150.409 166.313 148.513 166.3 146.6L166.2 89.5Z" stroke="black" stroke-width="2"/>
<path d="M302.8 136.9C286.533 118.033 270.2 98.9 253.8 79.5C252.5 77.9 248.2 78.5 246.5 78.5C246.093 78.5255 245.712 78.7052 245.433 79.0026C245.154 79.2999 244.999 79.6924 245 80.1V157.8C245.026 158.26 245.226 158.692 245.561 159.009C245.896 159.325 246.339 159.501 246.8 159.5H254.8C255.198 159.5 255.579 159.342 255.861 159.061C256.142 158.779 256.3 158.398 256.3 158L256.6 101.7C256.6 101.233 256.733 101.2 257 101.6C272.867 119.733 288.7 137.867 304.5 156C306.967 158.8 310.1 159.967 313.9 159.5C314.058 159.487 314.212 159.444 314.352 159.371C314.493 159.299 314.618 159.2 314.721 159.079C314.823 158.958 314.9 158.818 314.948 158.667C314.996 158.517 315.014 158.358 315 158.2V79.5C315 79.2348 314.895 78.9804 314.707 78.7929C314.52 78.6054 314.265 78.5 314 78.5H304.8C304.535 78.5 304.28 78.6054 304.093 78.7929C303.905 78.9804 303.8 79.2348 303.8 79.5V136.5C303.8 137.433 303.467 137.567 302.8 136.9Z" stroke="black" stroke-width="2"/>
<path d="M69.7 85.1C69.7 84.0922 69.2997 83.1256 68.587 82.413C67.8744 81.7004 66.9078 81.3 65.9 81.3L52.1 81.2C51.5925 81.1998 51.09 81.3013 50.6223 81.4985C50.1547 81.6957 49.7312 81.9846 49.377 82.3481C49.0228 82.7116 48.745 83.1424 48.5601 83.6151C48.3751 84.0877 48.2867 84.5926 48.3 85.1L48.2 85.4C48.1998 85.9076 48.3013 86.41 48.4985 86.8777C48.6957 87.3453 48.9846 87.7688 49.3481 88.123C49.7116 88.4772 50.1424 88.755 50.6151 88.94C51.0877 89.1249 51.5926 89.2134 52.1 89.2L65.9 89.3C66.9078 89.3 67.8744 88.8996 68.587 88.187C69.2997 87.4744 69.7 86.5078 69.7 85.5V85.1Z" stroke="black" stroke-width="2"/>
<path d="M198.2 85.1C198.2 84.5924 198.099 84.09 197.902 83.6223C197.704 83.1546 197.415 82.7312 197.052 82.377C196.688 82.0228 196.258 81.745 195.785 81.56C195.312 81.3751 194.807 81.2866 194.3 81.3H180.3C179.292 81.3 178.326 81.7004 177.613 82.413C176.9 83.1256 176.5 84.0922 176.5 85.1V85.4C176.487 85.9074 176.575 86.4123 176.76 86.8849C176.945 87.3576 177.223 87.7884 177.577 88.1519C177.931 88.5154 178.355 88.8043 178.822 89.0015C179.29 89.1987 179.792 89.3002 180.3 89.3L194.3 89.2C194.807 89.2133 195.312 89.1249 195.785 88.94C196.258 88.755 196.688 88.4772 197.052 88.123C197.415 87.7688 197.704 87.3453 197.902 86.8777C198.099 86.41 198.2 85.9075 198.2 85.4V85.1Z" stroke="black" stroke-width="2"/>
<path d="M69.7 106.5C69.7 105.988 69.5991 105.481 69.4031 105.008C69.2072 104.534 68.9199 104.104 68.5577 103.742C68.1956 103.38 67.7657 103.093 67.2925 102.897C66.8193 102.701 66.3122 102.6 65.8 102.6L52.2 102.5C51.6879 102.5 51.1807 102.601 50.7076 102.797C50.2344 102.993 49.8045 103.28 49.4423 103.642C49.0802 104.004 48.7929 104.434 48.5969 104.908C48.4009 105.381 48.3 105.888 48.3 106.4V106.8C48.3 107.834 48.7109 108.826 49.4423 109.558C50.1737 110.289 51.1657 110.7 52.2 110.7L65.8 110.8C66.3122 110.8 66.8193 110.699 67.2925 110.503C67.7657 110.307 68.1956 110.02 68.5577 109.658C68.9199 109.296 69.2072 108.866 69.4031 108.392C69.5991 107.919 69.7 107.412 69.7 106.9V106.5Z" stroke="black" stroke-width="2"/>
<path d="M198.1 106.5C198.1 105.466 197.689 104.474 196.958 103.742C196.226 103.011 195.234 102.6 194.2 102.6H180.5C179.466 102.6 178.474 103.011 177.742 103.742C177.011 104.474 176.6 105.466 176.6 106.5V106.8C176.6 107.834 177.011 108.826 177.742 109.558C178.474 110.289 179.466 110.7 180.5 110.7H194.2C195.234 110.7 196.226 110.289 196.958 109.558C197.689 108.826 198.1 107.834 198.1 106.8V106.5Z" stroke="black" stroke-width="2"/>
<path d="M69.7 129.6C69.7134 129.079 69.6224 128.562 69.4324 128.077C69.2423 127.592 68.9572 127.15 68.5937 126.777C68.2302 126.405 67.7958 126.108 67.316 125.906C66.8361 125.704 66.3207 125.6 65.8 125.6H52.2C51.1828 125.6 50.2057 125.997 49.4771 126.707C48.7485 127.417 48.3261 128.383 48.3 129.4V129.8C48.2997 130.817 48.6968 131.794 49.4067 132.523C50.1166 133.252 51.0831 133.674 52.1 133.7L65.8 133.8C66.3122 133.8 66.8193 133.699 67.2925 133.503C67.7657 133.307 68.1956 133.02 68.5577 132.658C68.9199 132.296 69.2072 131.866 69.4031 131.392C69.5991 130.919 69.7 130.412 69.7 129.9V129.6Z" stroke="black" stroke-width="2"/>
<path d="M198.1 129.5C198.075 128.5 197.666 127.548 196.959 126.841C196.252 126.134 195.3 125.725 194.3 125.7L180.4 125.6C179.383 125.626 178.417 126.048 177.707 126.777C176.997 127.506 176.6 128.483 176.6 129.5V129.8C176.6 130.817 176.997 131.794 177.707 132.523C178.417 133.252 179.383 133.674 180.4 133.7H194.3C195.3 133.675 196.252 133.266 196.959 132.559C197.666 131.852 198.075 130.9 198.1 129.9V129.5Z" stroke="black" stroke-width="2"/>
<path d="M69.7 150.9C69.7 150.388 69.5991 149.881 69.4031 149.408C69.2072 148.934 68.9199 148.504 68.5577 148.142C68.1956 147.78 67.7657 147.493 67.2925 147.297C66.8193 147.101 66.3122 147 65.8 147H52.2C51.1657 147 50.1737 147.411 49.4423 148.142C48.7109 148.874 48.3 149.866 48.3 150.9V151.3C48.3 152.334 48.7109 153.326 49.4423 154.058C50.1737 154.789 51.1657 155.2 52.2 155.2H65.8C66.8344 155.2 67.8263 154.789 68.5577 154.058C69.2891 153.326 69.7 152.334 69.7 151.3V150.9Z" stroke="black" stroke-width="2"/>
<path d="M198.1 151C198.113 150.479 198.022 149.962 197.832 149.477C197.642 148.992 197.357 148.55 196.994 148.177C196.63 147.805 196.196 147.508 195.716 147.306C195.236 147.104 194.721 147 194.2 147H180.5C179.979 146.987 179.462 147.078 178.977 147.268C178.492 147.458 178.05 147.743 177.677 148.106C177.305 148.47 177.008 148.904 176.806 149.384C176.604 149.864 176.5 150.379 176.5 150.9V151.3C176.5 151.821 176.604 152.336 176.806 152.816C177.008 153.296 177.305 153.73 177.677 154.094C178.05 154.457 178.492 154.742 178.977 154.932C179.462 155.122 179.979 155.213 180.5 155.2H194.2C195.234 155.2 196.226 154.789 196.958 154.058C197.689 153.326 198.1 152.334 198.1 151.3V151Z" stroke="black" stroke-width="2"/>
<path d="M94.4 175.5C94.4 174.466 93.9891 173.474 93.2577 172.742C92.5263 172.011 91.5344 171.6 90.5 171.6H90.2C89.1657 171.6 88.1737 172.011 87.4423 172.742C86.7109 173.474 86.3 174.466 86.3 175.5V189.1C86.3 190.134 86.7109 191.126 87.4423 191.858C88.1737 192.589 89.1657 193 90.2 193H90.5C91.5344 193 92.5263 192.589 93.2577 191.858C93.9891 191.126 94.4 190.134 94.4 189.1V175.5Z" stroke="black" stroke-width="2"/>
<path d="M138.8 175.4C138.8 174.892 138.699 174.39 138.501 173.922C138.304 173.455 138.015 173.031 137.652 172.677C137.288 172.323 136.858 172.045 136.385 171.86C135.912 171.675 135.407 171.587 134.9 171.6H134.6C133.592 171.6 132.626 172 131.913 172.713C131.2 173.426 130.8 174.392 130.8 175.4L130.7 189.2C130.7 189.708 130.801 190.21 130.999 190.678C131.196 191.145 131.485 191.569 131.848 191.923C132.212 192.277 132.642 192.555 133.115 192.74C133.588 192.925 134.093 193.013 134.6 193L134.9 193.1C135.408 193.1 135.91 192.999 136.378 192.801C136.845 192.604 137.269 192.315 137.623 191.952C137.977 191.588 138.255 191.158 138.44 190.685C138.625 190.212 138.713 189.707 138.7 189.2L138.8 175.4Z" stroke="black" stroke-width="2"/>
<path d="M115.8 175.6C115.8 174.592 115.4 173.626 114.687 172.913C113.974 172.2 113.008 171.8 112 171.8H111.4C110.409 171.8 109.458 172.186 108.748 172.877C108.038 173.569 107.626 174.51 107.6 175.5V189.2C107.6 190.191 107.986 191.142 108.677 191.852C109.369 192.562 110.31 192.974 111.3 193H111.9C112.908 193 113.874 192.6 114.587 191.887C115.3 191.174 115.7 190.208 115.7 189.2L115.8 175.6Z" stroke="black" stroke-width="2"/>
<path d="M160.3 175.7C160.3 175.179 160.196 174.664 159.994 174.184C159.792 173.704 159.495 173.27 159.123 172.906C158.75 172.543 158.308 172.258 157.823 172.068C157.338 171.878 156.821 171.787 156.3 171.8H155.9C154.866 171.8 153.874 172.211 153.142 172.942C152.411 173.674 152 174.666 152 175.7V189.1C151.987 189.621 152.078 190.138 152.268 190.623C152.458 191.108 152.743 191.55 153.106 191.923C153.47 192.295 153.904 192.592 154.384 192.794C154.864 192.996 155.379 193.1 155.9 193.1H156.3C156.829 193.114 157.355 193.02 157.847 192.824C158.338 192.627 158.785 192.333 159.159 191.959C159.533 191.585 159.827 191.138 160.024 190.647C160.22 190.155 160.314 189.629 160.3 189.1V175.7Z" stroke="black" stroke-width="2"/>
<path d="M425.7 159.4H433.3C434.1 159.4 434.5 159.033 434.5 158.3L434.7 89.9C434.7 89.6333 434.833 89.5 435.1 89.5H459.3C459.671 89.5 460.027 89.3525 460.29 89.09C460.552 88.8274 460.7 88.4713 460.7 88.1L460.6 79.2C460.6 79.1081 460.582 79.017 460.547 78.9321C460.512 78.8472 460.46 78.77 460.395 78.705C460.33 78.64 460.253 78.5885 460.168 78.5533C460.083 78.5181 459.992 78.5 459.9 78.5H398.3C397.955 78.5 397.625 78.637 397.381 78.8808C397.137 79.1246 397 79.4552 397 79.8V87.5C397 88.0304 397.211 88.5391 397.586 88.9142C397.961 89.2893 398.47 89.5 399 89.5H422.7C423.033 89.5 423.2 89.6667 423.2 90V156.5" stroke="black" stroke-width="2"/>
<path d="M388.8 107C388.867 99.6 386.467 93.0333 381.6 87.3" stroke="black" stroke-width="2"/>
<path d="M477 86C470.3 93.5 469.4 105.7 476.9 113.1C483.7 119.8 493.8 123.3 504.4 127.3C515.5 131.4 516.3 144 504.6 148C494 151.7 485.9 147 477.9 140C477.719 139.837 477.506 139.712 477.276 139.633C477.045 139.555 476.8 139.524 476.557 139.543C476.314 139.561 476.077 139.629 475.861 139.742C475.645 139.855 475.454 140.011 475.3 140.2L470.3 145.7C470.061 145.959 469.928 146.298 469.928 146.65C469.928 147.002 470.061 147.341 470.3 147.6C480.5 159.1 496.3 163.7 511.1 157.1C518.9 153.6 524.8 145.5 524.4 136.8C523.6 122.6 507.9 116.8 497 112.5C491.8 110.5 485.3 108 483.4 102.6C480.8 95.2 488.3 89.3 495.3 88.8C503.6 88.2 508.9 91.9 515.3 96.5C515.615 96.727 516.001 96.8319 516.388 96.7951C516.774 96.7583 517.134 96.5823 517.4 96.3C519.1 94.3 524.1 89.9 521 87.2C509.3 77.1 488.6 73 477 86Z" stroke="black" stroke-width="2"/>
<path d="M612.4 108.8C612.067 102.2 612.1 98.0333 612.5 96.3C614.6 87.4 624.1 86.9 630.6 90.5C630.807 90.618 631.037 90.6911 631.275 90.7144C631.512 90.7377 631.752 90.7107 631.978 90.6353C632.205 90.5598 632.413 90.4375 632.589 90.2764C632.765 90.1153 632.905 89.9189 633 89.7L635.9 83.2C636.047 82.9059 636.077 82.5671 635.985 82.2516C635.892 81.9362 635.683 81.6676 635.4 81.5C623.4 74.6 604.1 77.5 601.8 93.8C601.2 97.6 601.033 102.533 601.3 108.6C601.367 109 601.2 109.2 600.8 109.2L595.3 109.4C594.628 109.426 593.992 109.711 593.526 110.196C593.06 110.681 592.8 111.327 592.8 112V118.6C592.799 118.822 592.88 119.037 593.027 119.203C593.175 119.37 593.379 119.475 593.6 119.5H600.7C601.1 119.5 601.3 119.667 601.3 120C601.3 131.733 601.3 143.5 601.3 155.3C601.3 160.9 607.5 159.5 611 159.5C611.345 159.5 611.675 159.363 611.919 159.119C612.163 158.875 612.3 158.545 612.3 158.2V120.3C612.3 119.767 612.533 119.5 613 119.5H624.6C624.753 119.514 624.906 119.496 625.052 119.447C625.197 119.398 625.33 119.319 625.443 119.215C625.556 119.112 625.646 118.986 625.708 118.845C625.769 118.705 625.801 118.553 625.8 118.4V110.8C625.8 110.402 625.642 110.021 625.361 109.739C625.221 109.6 625.056 109.49 624.874 109.414C624.692 109.339 624.497 109.3 624.3 109.3L612.8 109.2C612.533 109.2 612.4 109.067 612.4 108.8Z" stroke="black" stroke-width="2"/>
<path d="M654.3 108.7V95C654.38 94.5491 654.277 94.0851 654.014 93.7101C653.752 93.335 653.351 93.0796 652.9 93C652.449 92.9204 651.985 93.0232 651.61 93.2858C651.235 93.5483 650.98 93.9491 650.9 94.4C648.167 102.067 643.6 108.567 637.2 113.9C635.4 115.4 634.8 117.5 635.9 119.5C635.991 119.657 636.122 119.787 636.281 119.875C636.439 119.963 636.619 120.006 636.8 120H642.5C642.833 120 643 120.167 643 120.5C643 133.3 643.133 141.767 643.4 145.9C643.8 151.9 646.2 157.6 652 159.2C656.2 160.3 664.2 160.6 667.9 157.5C668.037 157.377 668.138 157.219 668.191 157.042C668.244 156.866 668.247 156.678 668.2 156.5L666.7 149.9C666.607 149.569 666.386 149.288 666.086 149.119C665.786 148.951 665.431 148.908 665.1 149C661 149.9 654.4 150.6 654.3 144.3C654.233 136.367 654.2 128.433 654.2 120.5C654.2 120.167 654.4 120 654.8 120H664.8C665.933 120 666.5 119.433 666.5 118.3V111.2C666.5 109.933 665.867 109.3 664.6 109.3L654.7 109.2C654.433 109.2 654.3 109.033 654.3 108.7Z" stroke="black" stroke-width="2"/>
<path d="M584.9 134.4C584.874 127.575 582.144 121.038 577.308 116.221C572.473 111.404 565.925 108.7 559.1 108.7C552.292 108.726 545.77 111.442 540.956 116.256C536.142 121.07 533.426 127.592 533.4 134.4C533.4 141.225 536.104 147.773 540.921 152.608C545.738 157.444 552.275 160.174 559.1 160.2C565.943 160.2 572.505 157.482 577.343 152.643C582.182 147.805 584.9 141.243 584.9 134.4Z" stroke="black" stroke-width="2"/>
<path d="M791 126.4C783.1 128.2 775.4 129.3 767.9 132.6C755 138.3 754.8 156.3 770.2 159.4C778 161.067 785.233 159.467 791.9 154.6C791.994 154.538 792.104 154.499 792.215 154.488C792.327 154.476 792.437 154.492 792.531 154.534C792.625 154.576 792.701 154.642 792.748 154.724C792.796 154.807 792.814 154.903 792.8 155C792.933 156.6 793.567 157.967 794.7 159.1C794.967 159.367 795.3 159.5 795.7 159.5H802C802.145 159.487 802.285 159.446 802.414 159.379C802.543 159.312 802.657 159.22 802.75 159.108C802.843 158.997 802.913 158.868 802.956 158.729C802.999 158.59 803.014 158.445 803 158.3C802.2 148.633 801.833 139.1 801.9 129.7C801.967 125.167 801.667 121.933 801 120C795.5 103.8 773.3 108.3 761.8 114.2C761.459 114.391 761.2 114.699 761.071 115.068C760.943 115.436 760.953 115.839 761.1 116.2L763.8 122.4C763.875 122.574 763.985 122.73 764.123 122.86C764.26 122.99 764.423 123.091 764.6 123.156C764.778 123.222 764.967 123.251 765.156 123.241C765.345 123.231 765.53 123.183 765.7 123.1C771.7 119.9 791 113.2 791.5 125.8C791.502 125.943 791.453 126.082 791.361 126.192C791.269 126.303 791.141 126.376 791 126.4Z" stroke="black" stroke-width="2"/>
<path d="M868.8 138.5C879.467 138.433 890.133 138.433 900.8 138.5C904.2 138.5 905.9 135.3 905.8 132C904.7 104.8 867.6 100.3 858.1 125C856.233 129.8 855.867 134.8 857 140C861.6 161.5 889 166.7 902.7 150.5C902.896 150.245 903.004 149.937 903.004 149.628C903.004 149.318 902.896 149.026 902.7 148.8L899.9 145.2C899.633 144.867 899.333 144.8 899 145C897.267 145.933 895.533 146.833 893.8 147.7C884.7 152.4 870.9 151.1 868.3 139.1C868.233 138.7 868.4 138.5 868.8 138.5Z" stroke="black" stroke-width="2"/>
<path d="M826 113.6C825.1 108.5 820.2 109.1 816.3 109.4C815.963 109.423 815.646 109.568 815.407 109.807C815.168 110.046 815.023 110.363 815 110.7V158.3C815.025 158.627 815.173 158.933 815.414 159.155C815.655 159.378 815.972 159.501 816.3 159.5H824.5C824.898 159.5 825.279 159.342 825.561 159.061C825.842 158.779 826 158.398 826 158C826 148.4 826 138.867 826 129.4C826 122.3 833 118.7 839.5 119.3C840.433 119.367 842.4 120 845.4 121.2C845.564 121.288 845.753 121.316 845.936 121.28C846.119 121.243 846.283 121.144 846.4 121L851.2 114.1C851.322 113.958 851.41 113.79 851.456 113.607C851.503 113.424 851.507 113.231 851.469 113.042C851.431 112.852 851.352 112.669 851.236 112.507C851.121 112.344 850.972 112.205 850.8 112.1C842.2 107.367 834.133 107.933 826.6 113.8C826.267 114.067 826.067 114 826 113.6Z" stroke="black" stroke-width="2"/>
<path d="M729.6 140.4C729.4 141.133 729.133 141.133 728.8 140.4L716.5 111.5C716.256 110.919 715.846 110.423 715.321 110.075C714.796 109.726 714.18 109.54 713.55 109.54C712.92 109.54 712.304 109.726 711.779 110.075C711.254 110.423 710.844 110.919 710.6 111.5L698.3 140.6C698.033 141.2 697.8 141.2 697.6 140.6L686.5 110.5C686.233 109.7 685.667 109.3 684.8 109.3H675.9C675.727 109.285 675.553 109.316 675.396 109.389C675.238 109.461 675.102 109.574 675.001 109.715C674.9 109.856 674.838 110.021 674.82 110.194C674.802 110.367 674.83 110.541 674.9 110.7L694.1 158.5C694.202 158.725 694.354 158.923 694.545 159.079C694.735 159.235 694.96 159.345 695.2 159.4C697.133 159.8 698.433 159.267 699.1 157.8C703.767 148 708.467 138.233 713.2 128.5C713.4 127.967 713.633 127.967 713.9 128.5L728.2 158.1C728.451 158.554 728.824 158.929 729.276 159.184C729.729 159.439 730.243 159.563 730.762 159.542C731.28 159.521 731.783 159.357 732.214 159.067C732.644 158.777 732.986 158.373 733.2 157.9L752.2 110.5C752.247 110.368 752.262 110.227 752.245 110.088C752.228 109.949 752.178 109.816 752.101 109.699C752.023 109.583 751.919 109.486 751.798 109.417C751.676 109.347 751.54 109.307 751.4 109.3H742.2C741.841 109.298 741.493 109.403 741.205 109.6C740.918 109.798 740.706 110.078 740.6 110.4L729.6 140.4Z" stroke="black" stroke-width="2"/>
<path d="M158.1 89.5C158.1 87.8728 157.461 86.3108 156.32 85.1509C155.178 83.991 153.627 83.3262 152 83.3L94.5 83.2C92.8557 83.2 91.2787 83.8532 90.116 85.0159C88.9532 86.1787 88.3 87.7557 88.3 89.4L88.2 146.7C88.2 148.344 88.8532 149.921 90.016 151.084C91.1787 152.247 92.7557 152.9 94.4 152.9L151.8 153C153.427 153 154.989 152.361 156.149 151.22C157.309 150.078 157.974 148.527 158 146.9L158.1 89.5Z" stroke="black" stroke-width="2"/>
<path d="M340.2 90.1V121.4C340.199 121.488 340.217 121.575 340.253 121.655C340.289 121.735 340.343 121.807 340.409 121.864C340.476 121.921 340.555 121.963 340.64 121.987C340.724 122.01 340.813 122.015 340.9 122H360.8C362.976 122 365.13 121.598 367.138 120.817C369.147 120.037 370.97 118.893 372.504 117.453C374.037 116.012 375.251 114.303 376.074 112.423C376.897 110.543 377.314 108.53 377.3 106.5V104.9C377.301 102.877 376.874 100.874 376.045 99.0058C375.216 97.1372 374.001 95.4393 372.469 94.0092C370.936 92.5792 369.117 91.4449 367.115 90.6712C365.113 89.8975 362.967 89.4995 360.8 89.5H340.8C340.641 89.5 340.488 89.5632 340.376 89.6757C340.263 89.7883 340.2 89.9409 340.2 90.1Z" stroke="black" stroke-width="2"/>
<path d="M574.4 134.5C574.4 130.459 572.802 126.583 569.954 123.716C567.106 120.85 563.24 119.226 559.2 119.2C557.191 119.2 555.201 119.596 553.345 120.365C551.489 121.134 549.802 122.261 548.381 123.681C546.961 125.102 545.834 126.789 545.065 128.645C544.296 130.501 543.9 132.491 543.9 134.5C543.926 138.54 545.55 142.406 548.416 145.254C551.283 148.102 555.159 149.7 559.2 149.7C563.223 149.674 567.074 148.064 569.919 145.219C572.764 142.374 574.374 138.523 574.4 134.5Z" stroke="black" stroke-width="2"/>
<path d="M770.7 143.4C769.3 145.333 769.267 147.167 770.6 148.9C774.7 154.2 786.4 149.8 790.9 146.7C791.167 146.5 791.3 146.267 791.3 146V136.3C791.3 135.967 791.133 135.833 790.8 135.9C785.1 136.9 774.2 138.7 770.7 143.4Z" stroke="black" stroke-width="2"/>
<path d="M868.3 130.1L894.1 130C894.107 130.013 894.116 130.025 894.127 130.034C894.138 130.044 894.151 130.051 894.165 130.056C894.179 130.061 894.193 130.063 894.208 130.062C894.223 130.06 894.237 130.057 894.25 130.05C894.263 130.043 894.275 130.034 894.284 130.023C894.294 130.012 894.301 129.999 894.306 129.985C894.311 129.971 894.313 129.957 894.312 129.942C894.31 129.927 894.307 129.913 894.3 129.9C894.301 128.468 893.966 127.05 893.313 125.727C892.66 124.404 891.703 123.202 890.495 122.19C889.288 121.178 887.854 120.375 886.277 119.828C884.699 119.28 883.008 118.999 881.3 119H881.1C877.654 119.002 874.348 120.151 871.91 122.195C869.473 124.239 868.102 127.01 868.1 129.9C868.073 129.927 868.059 129.962 868.059 130C868.059 130.038 868.073 130.073 868.1 130.1C868.126 130.127 868.163 130.141 868.2 130.141C868.238 130.141 868.273 130.127 868.3 130.1Z" stroke="black" stroke-width="2"/>
<path d="M90.5 43.1H90.2C88.0461 43.1 86.3 44.8461 86.3 47V61C86.3 63.1539 88.0461 64.9 90.2 64.9H90.5C92.6539 64.9 94.4 63.1539 94.4 61V47C94.4 44.8461 92.6539 43.1 90.5 43.1Z" fill="black"/>
<path d="M111.8 43.3H111.5C109.346 43.3 107.6 45.0461 107.6 47.2V61C107.6 63.1539 109.346 64.9 111.5 64.9H111.8C113.954 64.9 115.7 63.1539 115.7 61V47.2C115.7 45.0461 113.954 43.3 111.8 43.3Z" fill="black"/>
<path d="M135 43.2H134.6C132.501 43.2 130.8 44.9013 130.8 47V61.1C130.8 63.1987 132.501 64.9 134.6 64.9H135C137.099 64.9 138.8 63.1987 138.8 61.1V47C138.8 44.9013 137.099 43.2 135 43.2Z" fill="black"/>
<path d="M156.4 43.3H156C153.846 43.3 152.1 45.0461 152.1 47.2V61C152.1 63.1539 153.846 64.9 156 64.9H156.4C158.554 64.9 160.3 63.1539 160.3 61V47.2C160.3 45.0461 158.554 43.3 156.4 43.3Z" fill="black"/>
<path d="M166.3 146.6C166.313 148.513 165.948 150.409 165.225 152.18C164.502 153.95 163.436 155.561 162.089 156.918C160.741 158.275 159.138 159.352 157.372 160.087C155.606 160.822 153.713 161.2 151.8 161.2L94.6 161.3C92.6874 161.313 90.7912 160.948 89.0204 160.225C87.2496 159.502 85.6393 158.436 84.2823 157.089C82.9252 155.741 81.8482 154.138 81.1132 152.372C80.3783 150.606 80 148.713 80 146.8L79.9 89.6C79.8867 87.679 80.2553 85.7745 80.9843 83.9971C81.7133 82.2198 82.7882 80.605 84.1466 79.2466C85.505 77.8882 87.1198 76.8133 88.8971 76.0843C90.6745 75.3553 92.579 74.9867 94.5 75H151.6C153.513 74.9868 155.409 75.3521 157.18 76.0749C158.95 76.7977 160.561 77.8637 161.918 79.2114C163.275 80.5592 164.352 82.1621 165.087 83.9279C165.822 85.6937 166.2 87.5874 166.2 89.5L166.3 146.6ZM158.1 89.5C158.1 87.8728 157.461 86.3108 156.32 85.1509C155.178 83.991 153.627 83.3262 152 83.3L94.5 83.2C92.8557 83.2 91.2787 83.8532 90.1159 85.0159C88.9532 86.1787 88.3 87.7557 88.3 89.4L88.2 146.7C88.2 148.344 88.8532 149.921 90.0159 151.084C91.1787 152.247 92.7557 152.9 94.4 152.9L151.8 153C153.427 153 154.989 152.361 156.149 151.22C157.309 150.078 157.974 148.527 158 146.9L158.1 89.5Z" fill="black"/>
<path d="M477 86C488.6 73 509.3 77.1 521 87.2C524.1 89.9 519.1 94.3 517.4 96.3C517.134 96.5823 516.774 96.7583 516.388 96.7951C516.001 96.8319 515.615 96.727 515.3 96.5C508.9 91.9 503.6 88.2 495.3 88.8C488.3 89.3 480.8 95.2 483.4 102.6C485.3 108 491.8 110.5 497 112.5C507.9 116.8 523.6 122.6 524.4 136.8C524.8 145.5 518.9 153.6 511.1 157.1C496.3 163.7 480.5 159.1 470.3 147.6C470.061 147.341 469.928 147.002 469.928 146.65C469.928 146.298 470.061 145.959 470.3 145.7L475.3 140.2C475.454 140.011 475.645 139.855 475.861 139.742C476.077 139.629 476.314 139.561 476.557 139.543C476.8 139.524 477.045 139.555 477.276 139.633C477.506 139.712 477.719 139.837 477.9 140C485.9 147 494 151.7 504.6 148C516.3 144 515.5 131.4 504.4 127.3C493.8 123.3 483.7 119.8 476.9 113.1C469.4 105.7 470.3 93.5 477 86Z" fill="black"/>
<path d="M612.8 109.2L624.3 109.3C624.497 109.3 624.692 109.339 624.874 109.414C625.056 109.49 625.221 109.6 625.361 109.739C625.5 109.879 625.61 110.044 625.686 110.226C625.761 110.408 625.8 110.603 625.8 110.8V118.4C625.801 118.553 625.769 118.705 625.708 118.845C625.646 118.986 625.556 119.112 625.443 119.215C625.33 119.319 625.197 119.398 625.052 119.447C624.906 119.496 624.753 119.514 624.6 119.5H613C612.533 119.5 612.3 119.767 612.3 120.3V158.2C612.3 158.545 612.163 158.875 611.919 159.119C611.675 159.363 611.345 159.5 611 159.5C607.5 159.5 601.3 160.9 601.3 155.3C601.3 143.5 601.3 131.733 601.3 120C601.3 119.667 601.1 119.5 600.7 119.5H593.6C593.379 119.475 593.175 119.37 593.027 119.203C592.88 119.037 592.799 118.822 592.8 118.6V112C592.8 111.327 593.06 110.681 593.526 110.196C593.992 109.711 594.628 109.426 595.3 109.4L600.8 109.2C601.2 109.2 601.367 109 601.3 108.6C601.033 102.533 601.2 97.6 601.8 93.8C604.1 77.5 623.4 74.6 635.4 81.5C635.683 81.6676 635.892 81.9362 635.985 82.2516C636.077 82.5671 636.047 82.9059 635.9 83.2L633 89.7C632.905 89.9189 632.765 90.1153 632.589 90.2764C632.413 90.4375 632.205 90.5598 631.978 90.6353C631.752 90.7107 631.512 90.7377 631.275 90.7144C631.037 90.6911 630.807 90.618 630.6 90.5C624.1 86.9 614.6 87.4 612.5 96.3C612.1 98.0333 612.067 102.2 612.4 108.8C612.4 109.067 612.533 109.2 612.8 109.2Z" fill="black"/>
<path d="M302.8 136.9C303.467 137.567 303.8 137.433 303.8 136.5V79.5C303.8 79.2348 303.905 78.9804 304.093 78.7929C304.28 78.6054 304.535 78.5 304.8 78.5H314C314.265 78.5 314.52 78.6054 314.707 78.7929C314.895 78.9804 315 79.2348 315 79.5V158.2C315.014 158.358 314.996 158.517 314.948 158.667C314.9 158.818 314.823 158.958 314.721 159.079C314.618 159.2 314.493 159.299 314.352 159.371C314.212 159.444 314.058 159.487 313.9 159.5C310.1 159.967 306.967 158.8 304.5 156C288.7 137.867 272.867 119.733 257 101.6C256.733 101.2 256.6 101.233 256.6 101.7L256.3 158C256.3 158.398 256.142 158.779 255.861 159.061C255.579 159.342 255.198 159.5 254.8 159.5H246.8C246.339 159.501 245.896 159.325 245.561 159.009C245.226 158.692 245.026 158.26 245 157.8V80.1C244.999 79.6924 245.154 79.2999 245.433 79.0026C245.712 78.7052 246.093 78.5255 246.5 78.5C248.2 78.5 252.5 77.9 253.8 79.5C270.2 98.9 286.533 118.033 302.8 136.9Z" fill="black"/>
<path d="M381.6 87.3C386.467 93.0333 388.867 99.6 388.8 107C387.8 118.4 382.167 126.467 371.9 131.2C371.567 131.333 371.5 131.533 371.7 131.8L389.7 157.8C389.807 157.964 389.868 158.155 389.877 158.351C389.886 158.547 389.842 158.741 389.75 158.915C389.659 159.088 389.522 159.234 389.355 159.337C389.188 159.44 388.996 159.496 388.8 159.5C383.8 159.5 379.4 161 376 156C370.867 148.467 365.767 140.967 360.7 133.5C360.433 133.167 360.133 133 359.8 133H340.8C340.667 133 340.54 133.053 340.446 133.146C340.353 133.24 340.3 133.367 340.3 133.5V158C340.3 158.398 340.142 158.779 339.861 159.061C339.579 159.342 339.198 159.5 338.8 159.5H330.3C329.3 159.5 328.8 159 328.8 158V79.8C328.8 79.4552 328.937 79.1246 329.181 78.8808C329.425 78.637 329.755 78.5 330.1 78.5C340.3 78.5 350.7 78.5 361.3 78.5C369.433 78.5667 376.2 81.5 381.6 87.3ZM340.2 90.1V121.4C340.199 121.488 340.217 121.575 340.253 121.655C340.289 121.735 340.343 121.807 340.409 121.864C340.476 121.921 340.555 121.963 340.64 121.987C340.724 122.01 340.813 122.015 340.9 122H360.8C362.976 122 365.13 121.598 367.138 120.817C369.147 120.037 370.97 118.893 372.504 117.453C374.037 116.012 375.251 114.303 376.074 112.423C376.897 110.543 377.314 108.53 377.3 106.5V104.9C377.301 102.877 376.874 100.874 376.045 99.0058C375.216 97.1372 374.001 95.4393 372.469 94.0092C370.936 92.5792 369.117 91.4449 367.115 90.6712C365.113 89.8975 362.967 89.4995 360.8 89.5H340.8C340.641 89.5 340.488 89.5632 340.376 89.6757C340.263 89.7883 340.2 89.9409 340.2 90.1Z" fill="black"/>
<path d="M425.7 159.4C424.433 158.867 423.6 157.9 423.2 156.5V90C423.2 89.6667 423.033 89.5 422.7 89.5H399C398.47 89.5 397.961 89.2893 397.586 88.9142C397.211 88.5391 397 88.0304 397 87.5V79.8C397 79.4552 397.137 79.1246 397.381 78.8808C397.625 78.637 397.955 78.5 398.3 78.5H459.9C459.992 78.5 460.083 78.5181 460.168 78.5533C460.253 78.5885 460.33 78.64 460.395 78.705C460.46 78.77 460.512 78.8472 460.547 78.9321C460.582 79.017 460.6 79.1081 460.6 79.2L460.7 88.1C460.7 88.4713 460.552 88.8274 460.29 89.09C460.027 89.3525 459.671 89.5 459.3 89.5H435.1C434.833 89.5 434.7 89.6333 434.7 89.9L434.5 158.3C434.5 159.033 434.1 159.4 433.3 159.4H425.7Z" fill="black"/>
<path d="M66.0139 81.3245L52.114 81.2759C50.0153 81.2686 48.3081 82.964 48.3008 85.0626L48.2994 85.4626C48.292 87.5613 49.9874 89.2686 52.0861 89.2759L65.986 89.3244C68.0847 89.3317 69.7919 87.6364 69.7992 85.5377L69.8006 85.1377C69.808 83.039 68.1126 81.3318 66.0139 81.3245Z" fill="black"/>
<path d="M194.293 81.2878L180.293 81.3122C178.194 81.3159 176.496 83.0202 176.5 85.1188L176.5 85.5188C176.504 87.6175 178.208 89.3159 180.307 89.3122L194.307 89.2878C196.406 89.2841 198.104 87.5798 198.1 85.4811L198.1 85.0812C198.096 82.9825 196.392 81.2841 194.293 81.2878Z" fill="black"/>
<path d="M654.7 109.2L664.6 109.3C665.867 109.3 666.5 109.933 666.5 111.2V118.3C666.5 119.433 665.933 120 664.8 120H654.8C654.4 120 654.2 120.167 654.2 120.5C654.2 128.433 654.233 136.367 654.3 144.3C654.4 150.6 661 149.9 665.1 149C665.431 148.908 665.786 148.951 666.086 149.119C666.386 149.288 666.607 149.569 666.7 149.9L668.2 156.5C668.247 156.678 668.244 156.866 668.191 157.042C668.138 157.219 668.037 157.377 667.9 157.5C664.2 160.6 656.2 160.3 652 159.2C646.2 157.6 643.8 151.9 643.4 145.9C643.133 141.767 643 133.3 643 120.5C643 120.167 642.833 120 642.5 120H636.8C636.619 120.006 636.439 119.963 636.281 119.875C636.122 119.787 635.991 119.657 635.9 119.5C634.8 117.5 635.4 115.4 637.2 113.9C643.6 108.567 648.167 102.067 650.9 94.4C650.98 93.9491 651.235 93.5483 651.61 93.2858C651.985 93.0232 652.449 92.9204 652.9 93C653.351 93.0796 653.752 93.335 654.014 93.7101C654.277 94.0851 654.38 94.5491 654.3 95V108.7C654.3 109.033 654.433 109.2 654.7 109.2Z" fill="black"/>
<path d="M65.9214 102.536L52.2216 102.464C50.0677 102.453 48.3125 104.19 48.3012 106.344L48.2991 106.744C48.2878 108.898 50.0248 110.653 52.1786 110.664L65.8784 110.736C68.0323 110.747 69.7875 109.01 69.7988 106.857L69.8009 106.457C69.8122 104.303 68.0753 102.547 65.9214 102.536Z" fill="black"/>
<path d="M194.193 102.588L180.393 102.612C178.239 102.616 176.496 104.365 176.5 106.519L176.5 106.819C176.504 108.973 178.253 110.716 180.407 110.712L194.207 110.688C196.361 110.684 198.104 108.935 198.1 106.781L198.1 106.481C198.096 104.327 196.347 102.584 194.193 102.588Z" fill="black"/>
<path d="M584.9 134.4C584.9 141.243 582.182 147.805 577.343 152.643C572.505 157.482 565.943 160.2 559.1 160.2C552.275 160.174 545.738 157.444 540.921 152.608C536.104 147.773 533.4 141.225 533.4 134.4C533.426 127.592 536.142 121.07 540.956 116.256C545.77 111.442 552.292 108.726 559.1 108.7C565.925 108.7 572.473 111.404 577.308 116.221C582.144 121.038 584.874 127.575 584.9 134.4ZM574.4 134.5C574.4 130.459 572.802 126.583 569.954 123.716C567.106 120.85 563.24 119.226 559.2 119.2C557.191 119.2 555.201 119.596 553.345 120.365C551.489 121.134 549.802 122.261 548.381 123.681C546.961 125.102 545.834 126.789 545.065 128.645C544.296 130.501 543.9 132.491 543.9 134.5C543.926 138.54 545.55 142.406 548.416 145.254C551.283 148.102 555.159 149.7 559.2 149.7C563.223 149.674 567.074 148.064 569.919 145.219C572.764 142.374 574.374 138.523 574.4 134.5Z" fill="black"/>
<path d="M791.5 125.8C791 113.2 771.7 119.9 765.7 123.1C765.53 123.183 765.345 123.231 765.156 123.241C764.967 123.251 764.778 123.222 764.6 123.156C764.423 123.091 764.26 122.99 764.123 122.86C763.985 122.73 763.875 122.574 763.8 122.4L761.1 116.2C760.953 115.839 760.943 115.436 761.071 115.068C761.2 114.699 761.459 114.391 761.8 114.2C773.3 108.3 795.5 103.8 801 120C801.667 121.933 801.967 125.167 801.9 129.7C801.833 139.1 802.2 148.633 803 158.3C803.014 158.445 802.999 158.59 802.956 158.729C802.913 158.868 802.843 158.997 802.75 159.108C802.657 159.22 802.543 159.312 802.414 159.379C802.285 159.446 802.145 159.487 802 159.5H795.7C795.3 159.5 794.967 159.367 794.7 159.1C793.567 157.967 792.933 156.6 792.8 155C792.814 154.903 792.796 154.807 792.748 154.724C792.701 154.642 792.625 154.576 792.531 154.534C792.437 154.492 792.327 154.476 792.215 154.488C792.104 154.499 791.994 154.538 791.9 154.6C785.233 159.467 778 161.067 770.2 159.4C754.8 156.3 755 138.3 767.9 132.6C775.4 129.3 783.1 128.2 791 126.4C791.141 126.376 791.269 126.303 791.361 126.192C791.453 126.082 791.502 125.943 791.5 125.8ZM770.7 143.4C769.3 145.333 769.267 147.167 770.6 148.9C774.7 154.2 786.4 149.8 790.9 146.7C791.167 146.5 791.3 146.267 791.3 146V136.3C791.3 135.967 791.133 135.833 790.8 135.9C785.1 136.9 774.2 138.7 770.7 143.4Z" fill="black"/>
<path d="M868.3 139.1C870.9 151.1 884.7 152.4 893.8 147.7C895.533 146.833 897.267 145.933 899 145C899.333 144.8 899.633 144.867 899.9 145.2L902.7 148.8C902.896 149.026 903.004 149.318 903.004 149.628C903.004 149.937 902.896 150.245 902.7 150.5C889 166.7 861.6 161.5 857 140C855.867 134.8 856.233 129.8 858.1 125C867.6 100.3 904.7 104.8 905.8 132C905.9 135.3 904.2 138.5 900.8 138.5C890.133 138.433 879.467 138.433 868.8 138.5C868.4 138.5 868.233 138.7 868.3 139.1ZM868.3 130.1L894.1 130C894.107 130.013 894.116 130.025 894.127 130.034C894.138 130.044 894.151 130.051 894.165 130.056C894.179 130.061 894.193 130.063 894.208 130.062C894.223 130.06 894.237 130.057 894.25 130.05C894.263 130.043 894.275 130.034 894.285 130.023C894.294 130.012 894.301 129.999 894.306 129.985C894.311 129.971 894.313 129.957 894.312 129.942C894.311 129.927 894.307 129.913 894.3 129.9C894.301 128.468 893.966 127.05 893.313 125.727C892.66 124.404 891.703 123.202 890.495 122.19C889.288 121.178 887.855 120.375 886.277 119.828C884.699 119.28 883.008 118.999 881.3 119H881.1C877.654 119.002 874.348 120.151 871.91 122.195C869.473 124.239 868.102 127.01 868.1 129.9C868.073 129.927 868.059 129.962 868.059 130C868.059 130.038 868.073 130.073 868.1 130.1C868.127 130.127 868.163 130.141 868.2 130.141C868.238 130.141 868.273 130.127 868.3 130.1Z" fill="black"/>
<path d="M826.6 113.8C834.133 107.933 842.2 107.367 850.8 112.1C850.972 112.205 851.121 112.344 851.236 112.507C851.352 112.669 851.431 112.852 851.469 113.042C851.507 113.231 851.503 113.424 851.456 113.607C851.41 113.79 851.322 113.958 851.2 114.1L846.4 121C846.283 121.144 846.119 121.243 845.936 121.28C845.753 121.316 845.564 121.288 845.4 121.2C842.4 120 840.433 119.367 839.5 119.3C833 118.7 826 122.3 826 129.4C826 138.867 826 148.4 826 158C826 158.398 825.842 158.779 825.561 159.061C825.279 159.342 824.898 159.5 824.5 159.5H816.3C815.972 159.501 815.655 159.378 815.414 159.155C815.173 158.933 815.025 158.627 815 158.3V110.7C815.023 110.363 815.168 110.046 815.407 109.807C815.646 109.568 815.963 109.423 816.3 109.4C820.2 109.1 825.1 108.5 826 113.6C826.067 114 826.267 114.067 826.6 113.8Z" fill="black"/>
<path d="M729.6 140.4L740.6 110.4C740.706 110.078 740.918 109.798 741.205 109.6C741.493 109.403 741.841 109.298 742.2 109.3H751.4C751.54 109.307 751.676 109.347 751.798 109.417C751.919 109.486 752.023 109.583 752.101 109.699C752.178 109.816 752.228 109.949 752.245 110.088C752.262 110.227 752.247 110.368 752.2 110.5L733.2 157.9C732.986 158.373 732.644 158.777 732.214 159.067C731.783 159.357 731.28 159.521 730.762 159.542C730.243 159.563 729.729 159.439 729.276 159.184C728.824 158.929 728.451 158.554 728.2 158.1L713.9 128.5C713.633 127.967 713.4 127.967 713.2 128.5C708.467 138.233 703.767 148 699.1 157.8C698.433 159.267 697.133 159.8 695.2 159.4C694.96 159.345 694.735 159.235 694.545 159.079C694.354 158.923 694.202 158.725 694.1 158.5L674.9 110.7C674.83 110.541 674.802 110.367 674.82 110.194C674.838 110.021 674.9 109.856 675.001 109.715C675.102 109.574 675.238 109.461 675.396 109.389C675.553 109.316 675.727 109.285 675.9 109.3H684.8C685.667 109.3 686.233 109.7 686.5 110.5L697.6 140.6C697.8 141.2 698.033 141.2 698.3 140.6L710.6 111.5C710.844 110.919 711.254 110.423 711.779 110.075C712.304 109.726 712.92 109.54 713.55 109.54C714.18 109.54 714.796 109.726 715.321 110.075C715.846 110.423 716.256 110.919 716.5 111.5L728.8 140.4C729.133 141.133 729.4 141.133 729.6 140.4Z" fill="black"/>
<path d="M65.8214 125.636L52.2216 125.564C50.0677 125.553 48.3125 127.29 48.3012 129.444L48.2996 129.744C48.2884 131.898 50.0253 133.653 52.1792 133.664L65.779 133.736C67.9329 133.747 69.6881 132.01 69.6993 129.856L69.7009 129.556C69.7122 127.402 67.9753 125.647 65.8214 125.636Z" fill="black"/>
<path d="M194.214 125.724L180.414 125.676C178.26 125.668 176.508 127.408 176.5 129.562L176.499 129.862C176.492 132.016 178.232 133.768 180.386 133.776L194.186 133.824C196.34 133.832 198.092 132.092 198.099 129.938L198.1 129.638C198.108 127.484 196.368 125.732 194.214 125.724Z" fill="black"/>
<path d="M65.9 147H52.2C50.0461 147 48.3 148.746 48.3 150.9V151.3C48.3 153.454 50.0461 155.2 52.2 155.2H65.9C68.0539 155.2 69.8 153.454 69.8 151.3V150.9C69.8 148.746 68.0539 147 65.9 147Z" fill="black"/>
<path d="M194.207 147.012L180.407 146.988C178.253 146.984 176.504 148.727 176.5 150.881L176.5 151.281C176.496 153.435 178.239 155.184 180.393 155.188L194.193 155.212C196.347 155.216 198.096 153.473 198.1 151.319L198.1 150.919C198.104 148.765 196.361 147.016 194.207 147.012Z" fill="black"/>
<path d="M90.6 171.6H90.2C88.0461 171.6 86.3 173.346 86.3 175.5V189.1C86.3 191.254 88.0461 193 90.2 193H90.6C92.7539 193 94.5 191.254 94.5 189.1V175.5C94.5 173.346 92.7539 171.6 90.6 171.6Z" fill="black"/>
<path d="M134.919 171.6L134.519 171.6C132.42 171.596 130.716 173.294 130.712 175.393L130.688 189.293C130.684 191.392 132.382 193.096 134.481 193.1L134.881 193.1C136.98 193.104 138.684 191.406 138.688 189.307L138.712 175.407C138.716 173.308 137.017 171.604 134.919 171.6Z" fill="black"/>
<path d="M111.937 171.801L111.437 171.799C109.338 171.792 107.631 173.487 107.624 175.586L107.576 189.186C107.569 191.284 109.264 192.992 111.363 192.999L111.863 193.001C113.962 193.008 115.669 191.313 115.676 189.214L115.724 175.614C115.731 173.515 114.036 171.808 111.937 171.801Z" fill="black"/>
<path d="M156.3 171.8H155.9C153.746 171.8 152 173.546 152 175.7V189.2C152 191.354 153.746 193.1 155.9 193.1H156.3C158.454 193.1 160.2 191.354 160.2 189.2V175.7C160.2 173.546 158.454 171.8 156.3 171.8Z" fill="black"/>
</svg>
