<?xml version="1.0" encoding="UTF-8"?>
<!DOCTYPE svg PUBLIC "-//W3C//DTD SVG 1.1//EN" "http://www.w3.org/Graphics/SVG/1.1/DTD/svg11.dtd">
<!-- Creator: CorelDRAW -->
<svg xmlns="http://www.w3.org/2000/svg" xml:space="preserve" width="78.2236mm" height="13.2738mm" version="1.1" style="shape-rendering:geometricPrecision; text-rendering:geometricPrecision; image-rendering:optimizeQuality; fill-rule:evenodd; clip-rule:evenodd"
viewBox="0 0 115682.91 19630.29"
 xmlns:xlink="http://www.w3.org/1999/xlink"
 xmlns:xodm="http://www.corel.com/coreldraw/odm/2003">
 <defs>
  <style type="text/css">
   <![CDATA[
    .str0 {stroke:black;stroke-width:112.69;stroke-miterlimit:22.9256}
    .fil2 {fill:none;fill-rule:nonzero}
    .fil0 {fill:black;fill-rule:nonzero}
    .fil1 {fill:#999999;fill-rule:nonzero}
   ]]>
  </style>
 </defs>
 <g id="Layer_x0020_1">
  <metadata id="CorelCorpID_0Corel-Layer"/>
  <g id="Hollow_x0020_Monocromático">
   <path class="fil0" d="M22113.17 15221.61c0,163.56 147.3,310.86 310.86,310.86l1488.78 0c179.83,0 310.71,-147.3 310.71,-310.86l0 -7033.97 32.68 0 6706.99 7393.93c81.78,81.78 163.56,114.46 278.03,114.46l229.08 0c163.56,0 310.71,-130.88 310.71,-294.44l0 -11009.04c0,-163.71 -147.15,-310.86 -310.71,-310.86l-1505.05 0c-179.83,0 -310.71,147.15 -310.71,310.86l0 6755.94 -32.83 0 -6674.31 -7115.9c-81.78,-81.78 -163.56,-114.46 -278.03,-114.46l-245.35 0c-163.56,0 -310.86,130.88 -310.86,294.44l0 11009.04z"/>
   <path id="_1" class="fil0" d="M34561.89 15221.61c0,163.56 130.88,310.86 310.86,310.86l1504.9 0c163.56,0 310.86,-147.3 310.86,-310.86l0 -4171.31 1815.76 0 2175.57 4334.88c32.83,65.51 114.61,147.3 261.76,147.3l1717.71 0c278.03,0 392.49,-261.76 278.03,-474.42l-2241.09 -4154.9c1423.12,-572.62 2421.07,-1799.49 2421.07,-3304.4 0,-1946.64 -1603.1,-3517.06 -3566.16,-3517.06l-4678.42 0c-179.98,0 -310.86,147.15 -310.86,310.86l0 10829.06zm2142.89 -5921.71l0 -3255.3 2666.41 0c867.06,0 1619.52,719.77 1619.52,1586.83 0,916.02 -752.45,1668.47 -1619.52,1668.47l-2666.41 0z"/>
   <path id="_2" class="fil0" d="M47206.86 15221.61c0,163.56 147.3,310.86 310.86,310.86l1521.32 0c163.56,0 310.86,-147.3 310.86,-310.86l0 -9177.01 2502.7 0c179.98,0 310.86,-147.15 310.86,-310.71l0 -1341.34c0,-163.71 -130.88,-310.86 -310.86,-310.86l-7148.44 0c-179.98,0 -310.86,147.15 -310.86,310.86l0 1341.34c0,163.56 130.88,310.71 310.86,310.71l2502.7 0 0 9177.01z"/>
   <path id="_3" class="fil1" d="M53619.41 14370.97c-207.19,-185.3 -240.02,-370.75 -98.2,-556.06l245.49 -310.86c163.56,-218.13 338.07,-250.82 523.52,-98.2 926.96,796.08 1864.86,1194.19 2813.56,1194.19 654.4,0 1183.25,-179.98 1586.83,-539.79 403.44,-359.96 605.16,-801.55 605.16,-1325.07 0,-534.32 -223.46,-992.32 -670.67,-1374.02 -447.06,-381.7 -1177.78,-785.28 -2191.99,-1210.61 -501.63,-218.13 -907.88,-414.38 -1218.74,-588.89 -310.71,-174.51 -605.16,-389.83 -883.33,-646.12 -278.03,-256.29 -477.08,-553.39 -597.17,-891.47 -119.94,-338.07 -179.98,-736.18 -179.98,-1194.19 0,-305.39 62.7,-616.25 188.11,-932.43 125.56,-316.33 316.48,-627.04 572.77,-932.43 256.29,-305.39 621.57,-556.2 1095.99,-752.45 474.42,-196.39 1016.87,-294.44 1627.65,-294.44 479.75,0 951.51,70.84 1414.99,212.66 463.48,141.68 809.68,278.03 1038.76,408.91l343.54 212.66c217.99,108.99 250.82,294.44 98.05,556.2l-163.56 278.03c-119.94,207.19 -310.86,234.55 -572.47,81.78 -730.71,-436.12 -1455.95,-654.25 -2175.72,-654.25 -774.34,0 -1344.15,190.77 -1709.43,572.47 -365.28,381.7 -547.92,790.75 -547.92,1226.87 0,534.47 174.36,962.45 523.37,1284.11 349.01,321.8 910.69,640.8 1684.88,956.98 1254.23,512.58 2172.91,1025.16 2756.47,1537.73 583.42,512.58 875.05,1210.46 875.05,2093.79 0,839.71 -346.2,1551.34 -1038.76,2134.76 -692.41,583.56 -1523.98,875.2 -2494.57,875.2 -577.94,0 -1147.75,-106.33 -1709.43,-318.99 -561.68,-212.66 -954.32,-397.97 -1177.78,-556.2 -223.61,-158.09 -411.72,-308.05 -564.49,-449.87z"/>
   <path id="_4" class="fil1" d="M62076.65 11737.39c0,-1068.78 370.9,-1990.27 1112.41,-2764.61 741.66,-774.19 1635.78,-1161.36 2682.83,-1161.36 1046.9,0 1941.17,387.17 2682.68,1161.36 741.66,774.34 1112.41,1695.83 1112.41,2764.61 0,1079.58 -370.75,2012.01 -1112.41,2797.29 -741.51,785.13 -1635.78,1177.78 -2682.68,1177.78 -1047.04,0 -1941.17,-392.64 -2682.83,-1177.78 -741.51,-785.28 -1112.41,-1717.71 -1112.41,-2797.29zm1194.19 0c0,796.08 248.16,1474.88 744.32,2036.56 496.16,561.68 1115.07,842.51 1856.73,842.51 730.56,0 1344,-280.84 1840.31,-842.51 496.16,-561.68 744.17,-1240.48 744.17,-2036.56 0,-774.34 -248.01,-1439.54 -744.17,-1995.74 -496.31,-556.2 -1109.75,-834.23 -1840.31,-834.23 -730.71,0 -1346.81,278.03 -1848.59,834.23 -501.63,556.2 -752.45,1221.4 -752.45,1995.74z"/>
   <path id="_5" class="fil1" d="M72268.02 15172.66l0 -6150.79 -1210.61 0c-98.05,0 -182.64,-35.49 -253.48,-106.33 -70.99,-70.84 -106.33,-155.43 -106.33,-253.48l0 -327.27c0,-108.99 35.35,-196.25 106.33,-261.76 70.84,-65.37 155.43,-98.05 253.48,-98.05l1210.61 0 0 -1194.19c0,-937.9 215.32,-1649.39 646.12,-2134.76 430.8,-485.22 1055.03,-727.9 1872.99,-727.9 839.71,0 1532.26,261.76 2077.52,785.13 141.68,141.82 163.56,283.5 65.37,425.32l-310.71 392.64c-109.14,152.62 -267.23,158.09 -474.42,16.27 -479.89,-348.87 -943.37,-523.37 -1390.44,-523.37 -850.65,0 -1275.97,588.89 -1275.97,1766.66l0 1194.19 2241.09 0c98.2,0 182.64,32.68 253.48,98.05 70.99,65.51 106.33,152.77 106.33,261.76l0 327.27c0,98.05 -35.35,182.64 -106.33,253.48 -70.84,70.84 -155.28,106.33 -253.48,106.33l-2241.09 0 0 6150.79c0,98.05 -35.49,182.64 -106.33,253.48 -70.84,70.84 -155.43,106.33 -253.63,106.33l-490.69 0c-98.2,0 -182.64,-35.49 -253.48,-106.33 -70.99,-70.84 -106.33,-155.43 -106.33,-253.48z"/>
   <path id="_6" class="fil1" d="M78189.59 9021.88l-997.8 0c-109.14,0 -199.06,-35.49 -269.89,-106.33 -70.99,-70.84 -106.33,-155.43 -106.33,-253.48l0 -327.27c0,-239.87 125.41,-359.81 376.23,-359.81l997.8 0 0 -2093.94c0,-98.05 35.49,-179.83 106.33,-245.35 70.99,-65.37 155.43,-103.52 253.63,-114.46l507.11 -32.68c98.05,-10.94 179.83,21.74 245.35,98.05 65.37,76.31 98.2,163.56 98.2,261.76l0 2126.62 2224.67 0c108.99,0 199.06,32.68 269.89,98.05 70.84,65.51 106.33,152.77 106.33,261.76l0 327.27c0,98.05 -35.49,182.64 -106.33,253.48 -70.84,70.84 -160.9,106.33 -269.89,106.33l-2224.67 0 0 4514.86c0,719.77 223.46,1079.73 670.67,1079.73 468.95,0 965.11,-163.56 1488.49,-490.84 207.34,-130.88 365.43,-81.78 474.42,147.3l147.3 343.54c87.25,207.19 43.63,370.75 -130.88,490.69 -577.94,403.58 -1286.92,605.3 -2126.62,605.3 -665.2,0 -1120.54,-182.64 -1365.89,-548.07 -245.35,-365.28 -368.09,-880.52 -368.09,-1545.87l0 -4596.64z"/>
   <path id="_7" class="fil1" d="M88364.54 9839.84l-32.68 0 -2224.67 5676.22c-43.63,130.88 -147.3,196.39 -310.86,196.39l-98.2 0c-163.56,0 -272.56,-65.51 -327.13,-196.39l-2093.94 -7115.75c-76.46,-283.65 21.74,-425.32 294.44,-425.32l556.06 0c196.39,0 311.01,70.84 343.69,212.66l1390.44 5136.43 32.83 0 2126.47 -5332.82c43.63,-119.94 152.77,-179.83 327.27,-179.83l98.05 0c163.56,0 267.23,59.89 310.86,179.83l2110.21 5349.24 32.68 0 1390.44 -5152.84c32.83,-141.82 136.35,-212.66 310.86,-212.66l572.47 0c272.7,0 359.96,141.68 261.76,425.32l-2061.11 7115.75c-32.68,130.88 -136.35,196.39 -310.86,196.39l-98.05 0c-152.77,0 -261.76,-65.51 -327.27,-196.39l-2273.77 -5676.22z"/>
   <path id="_8" class="fil1" d="M95374.11 15033.5c-441.74,-452.54 -662.54,-1049.56 -662.54,-1791.21 0,-741.51 267.08,-1344.15 801.55,-1807.63 534.32,-463.48 1275.97,-695.22 2224.67,-695.22 239.87,0 493.5,19.08 760.73,57.38 267.08,38.15 477.08,78.97 629.7,122.6l229.08 65.51c10.94,-752.6 -65.51,-1286.92 -229.08,-1603.1 -163.56,-316.33 -501.63,-474.42 -1014.21,-474.42 -610.63,0 -1357.75,147.15 -2241.09,441.59 -163.56,65.51 -283.5,0 -359.81,-196.25l-163.56 -441.74c-54.57,-174.36 21.74,-310.71 228.93,-408.91 752.45,-327.13 1619.52,-490.69 2601.04,-490.69 926.96,0 1548.53,237.21 1864.86,711.49 316.18,474.42 474.28,1295.05 474.28,2462.03l0 4187.73c0,98.05 -35.35,182.64 -106.33,253.48 -70.84,70.84 -155.28,106.33 -253.48,106.33l-310.86 0c-152.62,0 -256.29,-92.73 -310.71,-278.03l-147.3 -507.11c-643.46,643.31 -1423.12,965.11 -2339.28,965.11 -676.14,0 -1235.01,-226.27 -1676.6,-678.95zm531.51 -1791.21c0,392.64 125.56,719.77 376.37,981.53 250.82,261.76 577.94,392.64 981.38,392.64 436.27,0 847.99,-100.86 1235.16,-302.73 387.02,-201.72 667.86,-438.93 842.37,-711.49l0 -1537.73c-370.75,-196.25 -905.07,-294.44 -1603.1,-294.44 -545.26,0 -987,128.07 -1325.07,384.36 -338.07,256.29 -507.11,618.91 -507.11,1087.86z"/>
   <path id="_9" class="fil1" d="M103005.25 15172.66l0 -6837.87c0,-87.25 35.35,-169.04 106.33,-245.35 70.84,-76.31 155.43,-114.46 253.48,-114.46l261.76 0c174.51,0 283.5,87.25 327.13,261.76l130.88 539.79c54.57,-76.31 139.01,-166.37 253.63,-269.89 114.46,-103.67 370.75,-245.35 768.87,-425.32 397.97,-179.98 831.42,-269.89 1300.37,-269.89 174.51,0 335.41,8.13 482.56,24.55 147.3,16.27 299.92,43.63 458.16,81.78 158.09,38.15 272.56,100.86 343.39,188.11 70.99,87.25 84.59,190.77 40.96,310.71l-212.66 588.89c-76.31,218.13 -223.61,278.18 -441.74,179.98 -316.18,-141.68 -588.89,-212.66 -817.82,-212.66 -272.7,0 -528.99,32.68 -768.87,98.2 -239.87,65.37 -433.46,144.49 -580.75,237.21 -147.15,92.73 -278.03,188.11 -392.49,286.16 -114.61,98.2 -193.58,179.98 -237.21,245.49l-65.51 98.05 0 5234.77c0,98.05 -38.15,182.64 -114.46,253.48 -76.31,70.84 -158.09,106.33 -245.35,106.33l-490.84 0c-98.05,0 -182.64,-35.49 -253.48,-106.33 -70.99,-70.84 -106.33,-155.43 -106.33,-253.48z"/>
   <path id="_10" class="fil1" d="M108599.69 11753.65c0,-1101.47 332.6,-2033.75 997.8,-2797.14 665.35,-763.4 1554.15,-1145.09 2666.41,-1145.09 992.47,0 1810.44,324.32 2453.75,973.25 643.61,648.93 965.26,1469.56 965.26,2461.88 0,130.88 -10.8,283.65 -32.68,458.16 -21.74,217.99 -136.35,327.13 -343.54,327.13l-5496.53 0c21.89,654.25 272.7,1248.61 752.6,1783.08 479.75,534.32 1052.37,801.55 1717.57,801.55 730.71,0 1412.33,-207.19 2044.84,-621.72 141.68,-98.05 245.35,-149.96 310.71,-155.28 65.51,-5.47 152.77,62.7 261.76,204.38l196.39 278.18c65.51,98.05 103.67,163.56 114.61,196.25 10.8,32.68 5.47,79.12 -16.42,139.01 -21.74,60.04 -76.31,122.75 -163.56,188.11 -730.86,578.09 -1652.35,867.06 -2764.76,867.06 -1112.26,0 -2001.07,-379.04 -2666.41,-1136.96 -665.2,-757.92 -997.8,-1698.49 -997.8,-2821.84zm1226.87 -686.94l4645.74 0c-21.74,-578.09 -239.87,-1082.39 -654.25,-1513.18 -414.53,-430.8 -932.43,-646.12 -1554.15,-646.12 -632.51,0 -1177.78,209.85 -1635.78,629.7 -458.01,419.85 -725.24,929.77 -801.55,1529.6z"/>
   <path id="_11" class="fil2 str0" d="M22113.17 15221.61c0,163.56 147.3,310.86 310.86,310.86l1488.78 0c179.83,0 310.71,-147.3 310.71,-310.86l0 -7033.97 32.68 0 6706.99 7393.93c81.78,81.78 163.56,114.46 278.03,114.46l229.08 0c163.56,0 310.71,-130.88 310.71,-294.44l0 -11009.04c0,-163.71 -147.15,-310.86 -310.71,-310.86l-1505.05 0c-179.83,0 -310.71,147.15 -310.71,310.86l0 6755.94 -32.83 0 -6674.31 -7115.9c-81.78,-81.78 -163.56,-114.46 -278.03,-114.46l-245.35 0c-163.56,0 -310.86,130.88 -310.86,294.44l0 11009.04z"/>
   <path id="_12" class="fil2 str0" d="M34561.89 15221.61c0,163.56 130.88,310.86 310.86,310.86l1504.9 0c163.56,0 310.86,-147.3 310.86,-310.86l0 -4171.31 1815.76 0 2175.57 4334.88c32.83,65.51 114.61,147.3 261.76,147.3l1717.71 0c278.03,0 392.49,-261.76 278.03,-474.42l-2241.09 -4154.9c1423.12,-572.62 2421.07,-1799.49 2421.07,-3304.4 0,-1946.64 -1603.1,-3517.06 -3566.16,-3517.06l-4678.42 0c-179.98,0 -310.86,147.15 -310.86,310.86l0 10829.06zm2142.89 -5921.71l0 -3255.3 2666.41 0c867.06,0 1619.52,719.77 1619.52,1586.83 0,916.02 -752.45,1668.47 -1619.52,1668.47l-2666.41 0z"/>
   <path id="_13" class="fil2 str0" d="M47206.86 15221.61c0,163.56 147.3,310.86 310.86,310.86l1521.32 0c163.56,0 310.86,-147.3 310.86,-310.86l0 -9177.01 2502.7 0c179.98,0 310.86,-147.15 310.86,-310.71l0 -1341.34c0,-163.71 -130.88,-310.86 -310.86,-310.86l-7148.44 0c-179.98,0 -310.86,147.15 -310.86,310.86l0 1341.34c0,163.56 130.88,310.71 310.86,310.71l2502.7 0 0 9177.01z"/>
   <path id="_14" class="fil2" d="M53619.41 14370.97c-207.19,-185.3 -240.02,-370.75 -98.2,-556.06l245.49 -310.86c163.56,-218.13 338.07,-250.82 523.52,-98.2 926.96,796.08 1864.86,1194.19 2813.56,1194.19 654.4,0 1183.25,-179.98 1586.83,-539.79 403.44,-359.96 605.16,-801.55 605.16,-1325.07 0,-534.32 -223.46,-992.32 -670.67,-1374.02 -447.06,-381.7 -1177.78,-785.28 -2191.99,-1210.61 -501.63,-218.13 -907.88,-414.38 -1218.74,-588.89 -310.71,-174.51 -605.16,-389.83 -883.33,-646.12 -278.03,-256.29 -477.08,-553.39 -597.17,-891.47 -119.94,-338.07 -179.98,-736.18 -179.98,-1194.19 0,-305.39 62.7,-616.25 188.11,-932.43 125.56,-316.33 316.48,-627.04 572.77,-932.43 256.29,-305.39 621.57,-556.2 1095.99,-752.45 474.42,-196.39 1016.87,-294.44 1627.65,-294.44 479.75,0 951.51,70.84 1414.99,212.66 463.48,141.68 809.68,278.03 1038.76,408.91l343.54 212.66c217.99,108.99 250.82,294.44 98.05,556.2l-163.56 278.03c-119.94,207.19 -310.86,234.55 -572.47,81.78 -730.71,-436.12 -1455.95,-654.25 -2175.72,-654.25 -774.34,0 -1344.15,190.77 -1709.43,572.47 -365.28,381.7 -547.92,790.75 -547.92,1226.87 0,534.47 174.36,962.45 523.37,1284.11 349.01,321.8 910.69,640.8 1684.88,956.98 1254.23,512.58 2172.91,1025.16 2756.47,1537.73 583.42,512.58 875.05,1210.46 875.05,2093.79 0,839.71 -346.2,1551.34 -1038.76,2134.76 -692.41,583.56 -1523.98,875.2 -2494.57,875.2 -577.94,0 -1147.75,-106.33 -1709.43,-318.99 -561.68,-212.66 -954.32,-397.97 -1177.78,-556.2 -223.61,-158.09 -411.72,-308.05 -564.49,-449.87z"/>
   <path id="_15" class="fil2" d="M62076.65 11737.39c0,-1068.78 370.9,-1990.27 1112.41,-2764.61 741.66,-774.19 1635.78,-1161.36 2682.83,-1161.36 1046.9,0 1941.17,387.17 2682.68,1161.36 741.66,774.34 1112.41,1695.83 1112.41,2764.61 0,1079.58 -370.75,2012.01 -1112.41,2797.29 -741.51,785.13 -1635.78,1177.78 -2682.68,1177.78 -1047.04,0 -1941.17,-392.64 -2682.83,-1177.78 -741.51,-785.28 -1112.41,-1717.71 -1112.41,-2797.29zm1194.19 0c0,796.08 248.16,1474.88 744.32,2036.56 496.16,561.68 1115.07,842.51 1856.73,842.51 730.56,0 1344,-280.84 1840.31,-842.51 496.16,-561.68 744.17,-1240.48 744.17,-2036.56 0,-774.34 -248.01,-1439.54 -744.17,-1995.74 -496.31,-556.2 -1109.75,-834.23 -1840.31,-834.23 -730.71,0 -1346.81,278.03 -1848.59,834.23 -501.63,556.2 -752.45,1221.4 -752.45,1995.74z"/>
   <path id="_16" class="fil2" d="M72268.02 15172.66l0 -6150.79 -1210.61 0c-98.05,0 -182.64,-35.49 -253.48,-106.33 -70.99,-70.84 -106.33,-155.43 -106.33,-253.48l0 -327.27c0,-108.99 35.35,-196.25 106.33,-261.76 70.84,-65.37 155.43,-98.05 253.48,-98.05l1210.61 0 0 -1194.19c0,-937.9 215.32,-1649.39 646.12,-2134.76 430.8,-485.22 1055.03,-727.9 1872.99,-727.9 839.71,0 1532.26,261.76 2077.52,785.13 141.68,141.82 163.56,283.5 65.37,425.32l-310.71 392.64c-109.14,152.62 -267.23,158.09 -474.42,16.27 -479.89,-348.87 -943.37,-523.37 -1390.44,-523.37 -850.65,0 -1275.97,588.89 -1275.97,1766.66l0 1194.19 2241.09 0c98.2,0 182.64,32.68 253.48,98.05 70.99,65.51 106.33,152.77 106.33,261.76l0 327.27c0,98.05 -35.35,182.64 -106.33,253.48 -70.84,70.84 -155.28,106.33 -253.48,106.33l-2241.09 0 0 6150.79c0,98.05 -35.49,182.64 -106.33,253.48 -70.84,70.84 -155.43,106.33 -253.63,106.33l-490.69 0c-98.2,0 -182.64,-35.49 -253.48,-106.33 -70.99,-70.84 -106.33,-155.43 -106.33,-253.48z"/>
   <path id="_17" class="fil2" d="M78189.59 9021.88l-997.8 0c-109.14,0 -199.06,-35.49 -269.89,-106.33 -70.99,-70.84 -106.33,-155.43 -106.33,-253.48l0 -327.27c0,-239.87 125.41,-359.81 376.23,-359.81l997.8 0 0 -2093.94c0,-98.05 35.49,-179.83 106.33,-245.35 70.99,-65.37 155.43,-103.52 253.63,-114.46l507.11 -32.68c98.05,-10.94 179.83,21.74 245.35,98.05 65.37,76.31 98.2,163.56 98.2,261.76l0 2126.62 2224.67 0c108.99,0 199.06,32.68 269.89,98.05 70.84,65.51 106.33,152.77 106.33,261.76l0 327.27c0,98.05 -35.49,182.64 -106.33,253.48 -70.84,70.84 -160.9,106.33 -269.89,106.33l-2224.67 0 0 4514.86c0,719.77 223.46,1079.73 670.67,1079.73 468.95,0 965.11,-163.56 1488.49,-490.84 207.34,-130.88 365.43,-81.78 474.42,147.3l147.3 343.54c87.25,207.19 43.63,370.75 -130.88,490.69 -577.94,403.58 -1286.92,605.3 -2126.62,605.3 -665.2,0 -1120.54,-182.64 -1365.89,-548.07 -245.35,-365.28 -368.09,-880.52 -368.09,-1545.87l0 -4596.64z"/>
   <path id="_18" class="fil2" d="M88364.54 9839.84l-32.68 0 -2224.67 5676.22c-43.63,130.88 -147.3,196.39 -310.86,196.39l-98.2 0c-163.56,0 -272.56,-65.51 -327.13,-196.39l-2093.94 -7115.75c-76.46,-283.65 21.74,-425.32 294.44,-425.32l556.06 0c196.39,0 311.01,70.84 343.69,212.66l1390.44 5136.43 32.83 0 2126.47 -5332.82c43.63,-119.94 152.77,-179.83 327.27,-179.83l98.05 0c163.56,0 267.23,59.89 310.86,179.83l2110.21 5349.24 32.68 0 1390.44 -5152.84c32.83,-141.82 136.35,-212.66 310.86,-212.66l572.47 0c272.7,0 359.96,141.68 261.76,425.32l-2061.11 7115.75c-32.68,130.88 -136.35,196.39 -310.86,196.39l-98.05 0c-152.77,0 -261.76,-65.51 -327.27,-196.39l-2273.77 -5676.22z"/>
   <path id="_19" class="fil2" d="M95374.11 15033.5c-441.74,-452.54 -662.54,-1049.56 -662.54,-1791.21 0,-741.51 267.08,-1344.15 801.55,-1807.63 534.32,-463.48 1275.97,-695.22 2224.67,-695.22 239.87,0 493.5,19.08 760.73,57.38 267.08,38.15 477.08,78.97 629.7,122.6l229.08 65.51c10.94,-752.6 -65.51,-1286.92 -229.08,-1603.1 -163.56,-316.33 -501.63,-474.42 -1014.21,-474.42 -610.63,0 -1357.75,147.15 -2241.09,441.59 -163.56,65.51 -283.5,0 -359.81,-196.25l-163.56 -441.74c-54.57,-174.36 21.74,-310.71 228.93,-408.91 752.45,-327.13 1619.52,-490.69 2601.04,-490.69 926.96,0 1548.53,237.21 1864.86,711.49 316.18,474.42 474.28,1295.05 474.28,2462.03l0 4187.73c0,98.05 -35.35,182.64 -106.33,253.48 -70.84,70.84 -155.28,106.33 -253.48,106.33l-310.86 0c-152.62,0 -256.29,-92.73 -310.71,-278.03l-147.3 -507.11c-643.46,643.31 -1423.12,965.11 -2339.28,965.11 -676.14,0 -1235.01,-226.27 -1676.6,-678.95zm531.51 -1791.21c0,392.64 125.56,719.77 376.37,981.53 250.82,261.76 577.94,392.64 981.38,392.64 436.27,0 847.99,-100.86 1235.16,-302.73 387.02,-201.72 667.86,-438.93 842.37,-711.49l0 -1537.73c-370.75,-196.25 -905.07,-294.44 -1603.1,-294.44 -545.26,0 -987,128.07 -1325.07,384.36 -338.07,256.29 -507.11,618.91 -507.11,1087.86z"/>
   <path id="_20" class="fil2" d="M103005.25 15172.66l0 -6837.87c0,-87.25 35.35,-169.04 106.33,-245.35 70.84,-76.31 155.43,-114.46 253.48,-114.46l261.76 0c174.51,0 283.5,87.25 327.13,261.76l130.88 539.79c54.57,-76.31 139.01,-166.37 253.63,-269.89 114.46,-103.67 370.75,-245.35 768.87,-425.32 397.97,-179.98 831.42,-269.89 1300.37,-269.89 174.51,0 335.41,8.13 482.56,24.55 147.3,16.27 299.92,43.63 458.16,81.78 158.09,38.15 272.56,100.86 343.39,188.11 70.99,87.25 84.59,190.77 40.96,310.71l-212.66 588.89c-76.31,218.13 -223.61,278.18 -441.74,179.98 -316.18,-141.68 -588.89,-212.66 -817.82,-212.66 -272.7,0 -528.99,32.68 -768.87,98.2 -239.87,65.37 -433.46,144.49 -580.75,237.21 -147.15,92.73 -278.03,188.11 -392.49,286.16 -114.61,98.2 -193.58,179.98 -237.21,245.49l-65.51 98.05 0 5234.77c0,98.05 -38.15,182.64 -114.46,253.48 -76.31,70.84 -158.09,106.33 -245.35,106.33l-490.84 0c-98.05,0 -182.64,-35.49 -253.48,-106.33 -70.99,-70.84 -106.33,-155.43 -106.33,-253.48z"/>
   <path id="_21" class="fil2" d="M108599.69 11753.65c0,-1101.47 332.6,-2033.75 997.8,-2797.14 665.35,-763.4 1554.15,-1145.09 2666.41,-1145.09 992.47,0 1810.44,324.32 2453.75,973.25 643.61,648.93 965.26,1469.56 965.26,2461.88 0,130.88 -10.8,283.65 -32.68,458.16 -21.74,217.99 -136.35,327.13 -343.54,327.13l-5496.53 0c21.89,654.25 272.7,1248.61 752.6,1783.08 479.75,534.32 1052.37,801.55 1717.57,801.55 730.71,0 1412.33,-207.19 2044.84,-621.72 141.68,-98.05 245.35,-149.96 310.71,-155.28 65.51,-5.47 152.77,62.7 261.76,204.38l196.39 278.18c65.51,98.05 103.67,163.56 114.61,196.25 10.8,32.68 5.47,79.12 -16.42,139.01 -21.74,60.04 -76.31,122.75 -163.56,188.11 -730.86,578.09 -1652.35,867.06 -2764.76,867.06 -1112.26,0 -2001.07,-379.04 -2666.41,-1136.96 -665.2,-757.92 -997.8,-1698.49 -997.8,-2821.84zm1226.87 -686.94l4645.74 0c-21.74,-578.09 -239.87,-1082.39 -654.25,-1513.18 -414.53,-430.8 -932.43,-646.12 -1554.15,-646.12 -632.51,0 -1177.78,209.85 -1635.78,629.7 -458.01,419.85 -725.24,929.77 -801.55,1529.6z"/>
   <g id="Chipset">
    <g>
     <path class="fil0" d="M19060.62 4849.23l-2023.4 4.44c-303.47,0.74 -548.81,312.78 -548.37,696.85l0 73.2c0.74,384.21 246.97,695.07 550.29,694.48l2023.54 -4.44c303.32,-0.74 548.81,-312.63 548.22,-696.85l0 -73.2c-0.59,-384.21 -246.82,-695.22 -550.29,-694.48z"/>
     <path class="fil0" d="M19046.13 7593.28l-1994.56 4.29c-311.3,0.74 -563.16,316.92 -562.71,706.46l0 54.13c0.74,389.54 253.48,704.68 564.78,703.94l1994.56 -4.29c311.3,-0.74 563.3,-316.92 562.71,-706.46l0 -54.27c-0.59,-389.39 -253.33,-704.68 -564.78,-703.8z"/>
     <path class="fil0" d="M19049.24 10570.85l-1994.56 -8.58c-311.3,-1.48 -564.49,312.04 -565.67,700.25l0 54.13c-1.04,388.2 250.37,703.94 561.68,705.42l1994.41 8.58c311.3,1.48 564.49,-312.19 565.52,-700.4l0.15 -53.98c1.18,-388.2 -250.23,-703.94 -561.53,-705.42z"/>
     <path class="fil0" d="M19048.2 13310.32l-1994.56 -4.14c-311.3,-0.74 -564.04,310.42 -564.78,695.07l0 71.43c-0.44,384.51 251.41,696.85 562.71,697.59l1994.56 4.29c311.45,0.74 564.19,-310.56 564.78,-695.07l0 -71.43c0.59,-384.66 -251.41,-696.99 -562.71,-697.73z"/>
    </g>
    <g>
     <path class="fil0" d="M2578.57 4858.25l-2018.07 -8.87c-304.8,-1.33 -552.66,308.05 -553.69,690.93l-0.15 73.06c-1.18,383.03 245.05,694.63 549.7,695.81l2018.22 8.87c304.65,1.33 552.51,-308.05 553.69,-691.08l0.15 -72.91c1.04,-383.03 -245.05,-694.48 -549.85,-695.81z"/>
     <path class="fil0" d="M2565.26 7599.49l-1989.23 -12.72c-312.78,-1.92 -567.59,306.42 -569.22,688.86l-0.3 71.13c-1.63,382.44 250.67,694.04 563.3,696.11l1989.09 12.72c312.78,1.92 567.59,-306.42 569.22,-688.71l0.3 -71.13c1.63,-382.44 -250.52,-694.33 -563.16,-696.25z"/>
     <path class="fil0" d="M2556.09 10562.27l-1983.76 -13.01c-314.26,-2.07 -570.25,310.27 -571.88,697.29l-0.3 53.98c-1.63,387.17 251.7,702.61 565.97,704.54l1983.76 13.01c314.26,1.92 570.25,-310.27 571.88,-697.44l0.3 -53.83c1.63,-387.17 -251.85,-702.61 -565.97,-704.54z"/>
     <path class="fil0" d="M2562.15 13305.58l-1989.38 0c-312.78,0 -566.41,312.78 -566.41,698.92l0 71.73c0,385.99 253.63,698.92 566.41,698.92l1989.38 0c312.93,0 566.41,-312.93 566.41,-698.92l0 -71.73c0,-386.13 -253.48,-698.92 -566.41,-698.92z"/>
    </g>
    <g>
     <path class="fil0" d="M5632.29 16488.86l-71.58 0c-385.99,0 -698.77,254.81 -698.77,569.07l0 1984.21c0,314.26 312.78,569.07 698.77,569.07l71.58 0c385.99,0 698.92,-254.81 698.92,-569.07l0 -1984.21c0,-314.26 -312.93,-569.07 -698.92,-569.07z"/>
     <path class="fil0" d="M11329.96 16495.66l-73.2 0c-384.21,-0.59 -696.11,245.94 -696.7,550.73l-4.44 2018.22c-0.74,304.65 309.97,552.06 694.18,552.66l73.2 0c384.21,0.59 695.96,-245.94 696.85,-550.73l4.29 -2018.07c0.74,-304.8 -310.12,-552.21 -694.18,-552.8z"/>
     <path class="fil0" d="M8379.3 16502.17l-90.21 -0.3c-378.3,-1.04 -686.05,248.6 -687.23,557.68l-8.73 2002.69c-1.18,308.94 304.35,560.35 682.65,561.38l90.21 0.3c378.3,1.04 686.05,-248.6 687.23,-557.68l8.73 -2002.54c1.18,-309.08 -304.35,-560.49 -682.65,-561.53z"/>
     <path class="fil0" d="M14075.93 16508.23l-71.58 0c-386.13,0 -699.06,255.99 -699.06,571.73l0 1978.73c0,315.74 312.93,571.59 699.06,571.59l71.58 0c386.13,0 698.92,-255.85 698.92,-571.59l0 -1978.73c0,-315.74 -312.78,-571.73 -698.92,-571.73z"/>
    </g>
    <g>
     <path class="fil0" d="M5617.36 0l-54.42 0c-390.72,0 -707.49,250.08 -707.49,558.57l0 2005.21c0,308.49 316.77,558.57 707.49,558.57l54.42 0c390.57,0 707.35,-250.08 707.35,-558.57l0 -2005.21c0,-308.49 -316.77,-558.57 -707.35,-558.57z"/>
     <path class="fil0" d="M8354.75 12.87l-54.42 0c-390.72,0 -707.64,252.44 -707.64,563.75l0 1994.71c0,311.45 316.92,563.75 707.64,563.75l54.42 0c390.72,0 707.49,-252.3 707.49,-563.75l0 -1994.71c0,-311.3 -316.77,-563.75 -707.49,-563.75z"/>
     <path class="fil0" d="M11339.42 6.51l-73.5 0c-385.54,0 -697.88,244.75 -697.88,546.74l0 2028.72c0,301.99 312.34,546.74 697.88,546.74l73.5 0c385.54,0 697.88,-244.75 697.88,-546.74l0 -2028.72c0,-301.99 -312.34,-546.74 -697.88,-546.74z"/>
     <path class="fil0" d="M14088.8 12.72l-71.58 0c-385.99,0 -698.92,252.44 -698.92,563.75l0 1995c0,311.3 312.93,563.75 698.92,563.75l71.58 0c385.99,0 698.92,-252.44 698.92,-563.75l0 -1995c0,-311.3 -312.93,-563.75 -698.92,-563.75z"/>
    </g>
    <path class="fil0" d="M15295.26 13429.51c1.63,243.72 -44.81,485.07 -136.8,710.75 -91.99,225.38 -227.6,430.65 -399,603.53 -171.4,172.73 -375.34,309.97 -600.13,403.58 -224.64,93.61 -465.4,141.82 -708.82,141.82l-7277.39 12.72c-243.42,1.63 -484.63,-44.81 -709.86,-136.94 -225.38,-92.13 -430.2,-227.89 -602.79,-399.44 -172.73,-171.7 -309.82,-375.93 -403.29,-600.87 -93.46,-224.94 -141.68,-465.99 -141.68,-709.71l-12.57 -7285.97c-1.77,-244.61 45.11,-487.29 137.83,-713.7 92.73,-226.27 229.52,-431.98 402.4,-605.01 172.88,-173.03 378.3,-309.97 604.42,-402.85 226.12,-92.87 468.36,-139.75 712.82,-138.13l7264.68 0c243.27,-1.63 484.63,44.81 709.86,136.94 225.23,91.99 430.2,227.75 602.79,399.44 172.73,171.7 309.68,375.93 403.14,600.87 93.61,224.94 141.68,466.14 141.68,709.71l12.72 7273.25zm-1043.2 -7273.25c0,-207.19 -81.34,-406.25 -226.56,-553.99 -145.23,-147.74 -342.51,-232.48 -549.55,-235.73l-7315.55 -12.72c-209.26,0 -409.8,83.26 -557.83,231.3 -147.89,148.04 -231,349.01 -231,558.42l-12.72 7298.69c0,209.41 83.11,410.24 231,558.42 147.89,148.04 348.57,231.3 557.83,231.3l7302.83 12.72c207.04,0 405.66,-81.34 553.25,-226.71 147.59,-145.52 232.18,-342.95 235.58,-550.29l12.72 -7311.41z"/>
   </g>
  </g>
 </g>
</svg>
