<?xml version="1.0" encoding="UTF-8"?>
<!DOCTYPE svg PUBLIC "-//W3C//DTD SVG 1.1//EN" "http://www.w3.org/Graphics/SVG/1.1/DTD/svg11.dtd">
<!-- Creator: CorelDRAW -->
<svg xmlns="http://www.w3.org/2000/svg" xml:space="preserve" width="78.3564mm" height="13.2739mm" version="1.1" style="shape-rendering:geometricPrecision; text-rendering:geometricPrecision; image-rendering:optimizeQuality; fill-rule:evenodd; clip-rule:evenodd"
viewBox="0 0 122212.78 20703.35"
 xmlns:xlink="http://www.w3.org/1999/xlink"
 xmlns:xodm="http://www.corel.com/coreldraw/odm/2003">
 <defs>
  <style type="text/css">
   <![CDATA[
    .str0 {stroke:black;stroke-width:118.85;stroke-miterlimit:22.9256}
    .fil2 {fill:none;fill-rule:nonzero}
    .fil4 {fill:#999999}
    .fil0 {fill:black;fill-rule:nonzero}
    .fil1 {fill:#999999;fill-rule:nonzero}
    .fil3 {fill:#CC9933;fill-rule:nonzero}
   ]]>
  </style>
 </defs>
 <g id="Layer_x0020_1">
  <metadata id="CorelCorpID_0Corel-Layer"/>
  <g id="Preenchido_x0020_Colorido">
   <path class="fil0" d="M23528.91 16185.67c0,172.5 155.35,327.85 327.85,327.85l1570.15 0c189.66,0 327.69,-155.35 327.69,-327.85l0 -7418.42 34.47 0 7073.57 7798.05c86.25,86.25 172.5,120.72 293.22,120.72l241.6 0c172.5,0 327.69,-138.03 327.69,-310.54l0 -11610.75c0,-172.66 -155.19,-327.85 -327.69,-327.85l-1587.31 0c-189.66,0 -327.69,155.19 -327.69,327.85l0 7125.19 -34.63 0 -7039.1 -7504.83c-86.25,-86.25 -172.5,-120.72 -293.22,-120.72l-258.75 0c-172.5,0 -327.85,138.03 -327.85,310.54l0 11610.75z"/>
   <path id="_1" class="fil0" d="M36658.03 16185.67c0,172.5 138.03,327.85 327.85,327.85l1587.15 0c172.5,0 327.85,-155.35 327.85,-327.85l0 -4399.3 1915 0 2294.48 4571.8c34.63,69.09 120.88,155.35 276.07,155.35l1811.6 0c293.22,0 413.95,-276.07 293.22,-500.35l-2363.58 -4381.99c1500.9,-603.92 2553.39,-1897.85 2553.39,-3485 0,-2053.04 -1690.72,-3709.29 -3761.07,-3709.29l-4934.12 0c-189.82,0 -327.85,155.19 -327.85,327.85l0 11420.93zm2260.01 -6245.37l0 -3433.22 2812.15 0c914.45,0 1708.03,759.11 1708.03,1673.56 0,966.08 -793.58,1759.66 -1708.03,1759.66l-2812.15 0z"/>
   <path id="_2" class="fil0" d="M49994.12 16185.67c0,172.5 155.35,327.85 327.85,327.85l1604.47 0c172.5,0 327.85,-155.35 327.85,-327.85l0 -9678.59 2639.49 0c189.82,0 327.85,-155.19 327.85,-327.69l0 -1414.65c0,-172.66 -138.03,-327.85 -327.85,-327.85l-7539.14 0c-189.82,0 -327.85,155.19 -327.85,327.85l0 1414.65c0,172.5 138.03,327.69 327.85,327.69l2639.49 0 0 9678.59z"/>
   <path id="_3" class="fil1" d="M56757.15 15288.53c-218.51,-195.43 -253.14,-391.02 -103.56,-586.45l258.91 -327.85c172.5,-230.06 356.55,-264.53 552.14,-103.56 977.62,839.59 1966.79,1259.46 2967.34,1259.46 690.17,0 1247.92,-189.82 1673.56,-569.29 425.49,-379.63 638.23,-845.36 638.23,-1397.49 0,-563.52 -235.67,-1046.56 -707.33,-1449.12 -471.5,-402.56 -1242.15,-828.2 -2311.79,-1276.77 -529.05,-230.06 -957.5,-437.03 -1285.35,-621.07 -327.69,-184.05 -638.23,-411.14 -931.61,-681.43 -293.22,-270.3 -503.16,-583.64 -629.81,-940.19 -126.49,-356.55 -189.82,-776.42 -189.82,-1259.46 0,-322.08 66.13,-649.93 198.39,-983.39 132.42,-333.62 333.78,-661.31 604.07,-983.39 270.3,-322.08 655.54,-586.6 1155.9,-793.58 500.35,-207.13 1072.45,-310.54 1716.61,-310.54 505.97,0 1003.51,74.71 1492.32,224.29 488.81,149.42 853.94,293.22 1095.54,431.26l362.32 224.29c229.9,114.95 264.53,310.54 103.41,586.6l-172.5 293.22c-126.49,218.51 -327.85,247.37 -603.76,86.25 -770.65,-459.96 -1535.53,-690.01 -2294.64,-690.01 -816.66,0 -1417.61,201.2 -1802.86,603.76 -385.25,402.56 -577.87,833.97 -577.87,1293.93 0,563.68 183.89,1015.06 551.98,1354.29 368.09,339.39 960.47,675.82 1776.97,1009.28 1322.78,540.59 2291.67,1081.19 2907.13,1621.78 615.3,540.59 922.88,1276.62 922.88,2208.23 0,885.6 -365.13,1636.13 -1095.54,2251.43 -730.25,615.46 -1607.27,923.03 -2630.91,923.03 -609.53,0 -1210.49,-112.14 -1802.86,-336.43 -592.38,-224.29 -1006.48,-419.72 -1242.15,-586.6 -235.83,-166.73 -434.22,-324.89 -595.34,-474.46z"/>
   <path id="_4" class="fil1" d="M65676.63 12511.01c0,-1127.2 391.17,-2099.05 1173.21,-2915.71 782.19,-816.5 1725.19,-1224.84 2829.46,-1224.84 1104.11,0 2047.27,408.33 2829.3,1224.84 782.19,816.66 1173.21,1788.51 1173.21,2915.71 0,1138.58 -391.02,2121.98 -1173.21,2950.18 -782.04,828.05 -1725.19,1242.15 -2829.3,1242.15 -1104.27,0 -2047.27,-414.1 -2829.46,-1242.15 -782.04,-828.2 -1173.21,-1811.6 -1173.21,-2950.18zm1259.46 0c0,839.59 261.72,1555.49 785,2147.87 523.28,592.38 1176.02,888.56 1958.21,888.56 770.49,0 1417.46,-296.19 1940.9,-888.56 523.28,-592.38 784.84,-1308.28 784.84,-2147.87 0,-816.66 -261.56,-1518.22 -784.84,-2104.82 -523.44,-586.6 -1170.4,-879.83 -1940.9,-879.83 -770.65,0 -1420.42,293.22 -1949.63,879.83 -529.05,586.6 -793.58,1288.16 -793.58,2104.82z"/>
   <path id="_5" class="fil1" d="M76425.02 16134.04l0 -6486.96 -1276.77 0c-103.41,0 -192.62,-37.43 -267.33,-112.14 -74.87,-74.71 -112.14,-163.92 -112.14,-267.33l0 -345.16c0,-114.95 37.28,-206.97 112.14,-276.07 74.71,-68.94 163.92,-103.41 267.33,-103.41l1276.77 0 0 -1259.46c0,-989.16 227.09,-1739.54 681.43,-2251.43 454.34,-511.74 1112.69,-767.69 1975.36,-767.69 885.6,0 1616.01,276.07 2191.07,828.05 149.42,149.58 172.5,299 68.94,448.57l-327.69 414.1c-115.11,160.96 -281.84,166.73 -500.35,17.16 -506.12,-367.93 -994.94,-551.98 -1466.43,-551.98 -897.14,0 -1345.71,621.07 -1345.71,1863.22l0 1259.46 2363.58 0c103.56,0 192.62,34.47 267.33,103.41 74.87,69.09 112.14,161.12 112.14,276.07l0 345.16c0,103.41 -37.28,192.62 -112.14,267.33 -74.71,74.71 -163.77,112.14 -267.33,112.14l-2363.58 0 0 6486.96c0,103.41 -37.43,192.62 -112.14,267.33 -74.71,74.71 -163.92,112.14 -267.49,112.14l-517.51 0c-103.56,0 -192.62,-37.43 -267.33,-112.14 -74.87,-74.71 -112.14,-163.92 -112.14,-267.33z"/>
   <path id="_6" class="fil1" d="M82670.23 9647.08l-1052.33 0c-115.11,0 -209.94,-37.43 -284.65,-112.14 -74.87,-74.71 -112.14,-163.92 -112.14,-267.33l0 -345.16c0,-252.98 132.26,-379.48 396.79,-379.48l1052.33 0 0 -2208.38c0,-103.41 37.43,-189.66 112.14,-258.75 74.87,-68.94 163.92,-109.18 267.49,-120.72l534.82 -34.47c103.41,-11.54 189.66,22.93 258.75,103.41 68.94,80.48 103.56,172.5 103.56,276.07l0 2242.85 2346.26 0c114.95,0 209.94,34.47 284.65,103.41 74.71,69.09 112.14,161.12 112.14,276.07l0 345.16c0,103.41 -37.43,192.62 -112.14,267.33 -74.71,74.71 -169.7,112.14 -284.65,112.14l-2346.26 0 0 4761.62c0,759.11 235.67,1138.74 707.33,1138.74 494.58,0 1017.86,-172.5 1569.84,-517.67 218.67,-138.03 385.4,-86.25 500.35,155.35l155.35 362.32c92.02,218.51 46.01,391.02 -138.03,517.51 -609.53,425.64 -1357.25,638.39 -2242.85,638.39 -701.55,0 -1181.79,-192.62 -1440.54,-578.03 -258.75,-385.25 -388.21,-928.65 -388.21,-1630.36l0 -4847.87z"/>
   <path id="_7" class="fil1" d="M93401.3 10509.75l-34.47 0 -2346.26 5986.46c-46.01,138.03 -155.35,207.13 -327.85,207.13l-103.56 0c-172.5,0 -287.45,-69.09 -345.01,-207.13l-2208.38 -7504.67c-80.64,-299.15 22.93,-448.57 310.54,-448.57l586.45 0c207.13,0 328.01,74.71 362.48,224.29l1466.43 5417.16 34.63 0 2242.7 -5624.29c46.01,-126.49 161.12,-189.66 345.16,-189.66l103.41 0c172.5,0 281.84,63.17 327.85,189.66l2225.54 5641.6 34.47 0 1466.43 -5434.48c34.63,-149.58 143.8,-224.29 327.85,-224.29l603.76 0c287.61,0 379.63,149.42 276.07,448.57l-2173.76 7504.67c-34.47,138.03 -143.8,207.13 -327.85,207.13l-103.41 0c-161.12,0 -276.07,-69.09 -345.16,-207.13l-2398.04 -5986.46z"/>
   <path id="_8" class="fil1" d="M100793.99 15987.28c-465.88,-477.27 -698.75,-1106.92 -698.75,-1889.11 0,-782.04 281.68,-1417.61 845.36,-1906.43 563.52,-488.81 1345.71,-733.22 2346.26,-733.22 252.98,0 520.47,20.12 802.31,60.52 281.68,40.24 503.16,83.29 664.12,129.3l241.6 69.09c11.54,-793.73 -69.09,-1357.25 -241.6,-1690.72 -172.5,-333.62 -529.05,-500.35 -1069.64,-500.35 -644,0 -1431.96,155.19 -2363.58,465.73 -172.5,69.09 -299,0 -379.48,-206.97l-172.5 -465.88c-57.55,-183.89 22.93,-327.69 241.44,-431.26 793.58,-345.01 1708.03,-517.51 2743.21,-517.51 977.62,0 1633.17,250.18 1966.79,750.37 333.46,500.35 500.2,1365.83 500.2,2596.59l0 4416.61c0,103.41 -37.28,192.62 -112.14,267.33 -74.71,74.71 -163.77,112.14 -267.33,112.14l-327.85 0c-160.96,0 -270.3,-97.79 -327.69,-293.22l-155.35 -534.82c-678.63,678.47 -1500.9,1017.86 -2467.14,1017.86 -713.1,0 -1302.51,-238.63 -1768.24,-716.06zm560.56 -1889.11c0,414.1 132.42,759.11 396.94,1035.18 264.53,276.07 609.53,414.1 1035.02,414.1 460.11,0 894.33,-106.37 1302.66,-319.27 408.17,-212.74 704.36,-462.92 888.41,-750.37l0 -1621.78c-391.02,-206.97 -954.54,-310.54 -1690.72,-310.54 -575.06,0 -1040.95,135.07 -1397.49,405.37 -356.55,270.3 -534.82,652.74 -534.82,1147.32z"/>
   <path id="_9" class="fil1" d="M108842.21 16134.04l0 -7211.6c0,-92.02 37.28,-178.27 112.14,-258.75 74.71,-80.48 163.92,-120.72 267.33,-120.72l276.07 0c184.05,0 299,92.02 345.01,276.07l138.03 569.29c57.55,-80.48 146.61,-175.47 267.49,-284.65 120.72,-109.34 391.02,-258.75 810.89,-448.57 419.72,-189.82 876.87,-284.65 1371.45,-284.65 184.05,0 353.74,8.58 508.93,25.89 155.35,17.16 316.31,46.01 483.2,86.25 166.73,40.24 287.45,106.37 362.16,198.39 74.87,92.02 89.22,201.2 43.2,327.69l-224.29 621.07c-80.48,230.06 -235.83,293.38 -465.88,189.82 -333.46,-149.42 -621.07,-224.29 -862.52,-224.29 -287.61,0 -557.91,34.47 -810.89,103.56 -252.98,68.94 -457.15,152.38 -612.5,250.18 -155.19,97.79 -293.22,198.39 -413.95,301.8 -120.88,103.56 -204.17,189.82 -250.18,258.91l-69.09 103.41 0 5520.88c0,103.41 -40.24,192.62 -120.72,267.33 -80.48,74.71 -166.73,112.14 -258.75,112.14l-517.67 0c-103.41,0 -192.62,-37.43 -267.33,-112.14 -74.87,-74.71 -112.14,-163.92 -112.14,-267.33z"/>
   <path id="_10" class="fil1" d="M114742.42 12528.16c0,-1161.67 350.78,-2144.9 1052.33,-2950.02 701.71,-805.12 1639.09,-1207.68 2812.15,-1207.68 1046.72,0 1909.39,342.04 2587.86,1026.44 678.78,684.4 1018.02,1549.88 1018.02,2596.44 0,138.03 -11.39,299.15 -34.47,483.2 -22.93,229.9 -143.8,345.01 -362.32,345.01l-5796.95 0c23.08,690.01 287.61,1316.86 793.73,1880.53 505.97,563.52 1109.89,845.36 1811.44,845.36 770.65,0 1489.52,-218.51 2156.6,-655.7 149.42,-103.41 258.75,-158.15 327.69,-163.77 69.09,-5.77 161.12,66.13 276.07,215.55l207.13 293.38c69.09,103.41 109.34,172.5 120.88,206.97 11.39,34.47 5.77,83.44 -17.31,146.61 -22.93,63.32 -80.48,129.46 -172.5,198.39 -770.81,609.69 -1742.66,914.45 -2915.87,914.45 -1173.05,0 -2110.44,-399.75 -2812.15,-1199.1 -701.55,-799.35 -1052.33,-1791.32 -1052.33,-2976.07zm1293.93 -724.48l4899.65 0c-22.93,-609.69 -252.98,-1141.55 -690.01,-1595.89 -437.18,-454.34 -983.39,-681.43 -1639.09,-681.43 -667.09,0 -1242.15,221.32 -1725.19,664.12 -483.04,442.8 -764.88,980.59 -845.36,1613.2z"/>
   <path id="_11" class="fil2 str0" d="M23528.91 16185.67c0,172.5 155.35,327.85 327.85,327.85l1570.15 0c189.66,0 327.69,-155.35 327.69,-327.85l0 -7418.42 34.47 0 7073.57 7798.05c86.25,86.25 172.5,120.72 293.22,120.72l241.6 0c172.5,0 327.69,-138.03 327.69,-310.54l0 -11610.75c0,-172.66 -155.19,-327.85 -327.69,-327.85l-1587.31 0c-189.66,0 -327.69,155.19 -327.69,327.85l0 7125.19 -34.63 0 -7039.1 -7504.83c-86.25,-86.25 -172.5,-120.72 -293.22,-120.72l-258.75 0c-172.5,0 -327.85,138.03 -327.85,310.54l0 11610.75z"/>
   <path id="_12" class="fil2 str0" d="M36658.03 16185.67c0,172.5 138.03,327.85 327.85,327.85l1587.15 0c172.5,0 327.85,-155.35 327.85,-327.85l0 -4399.3 1915 0 2294.48 4571.8c34.63,69.09 120.88,155.35 276.07,155.35l1811.6 0c293.22,0 413.95,-276.07 293.22,-500.35l-2363.58 -4381.99c1500.9,-603.92 2553.39,-1897.85 2553.39,-3485 0,-2053.04 -1690.72,-3709.29 -3761.07,-3709.29l-4934.12 0c-189.82,0 -327.85,155.19 -327.85,327.85l0 11420.93zm2260.01 -6245.37l0 -3433.22 2812.15 0c914.45,0 1708.03,759.11 1708.03,1673.56 0,966.08 -793.58,1759.66 -1708.03,1759.66l-2812.15 0z"/>
   <path id="_13" class="fil2 str0" d="M49994.12 16185.67c0,172.5 155.35,327.85 327.85,327.85l1604.47 0c172.5,0 327.85,-155.35 327.85,-327.85l0 -9678.59 2639.49 0c189.82,0 327.85,-155.19 327.85,-327.69l0 -1414.65c0,-172.66 -138.03,-327.85 -327.85,-327.85l-7539.14 0c-189.82,0 -327.85,155.19 -327.85,327.85l0 1414.65c0,172.5 138.03,327.69 327.85,327.69l2639.49 0 0 9678.59z"/>
   <path id="_14" class="fil2" d="M56757.15 15288.53c-218.51,-195.43 -253.14,-391.02 -103.56,-586.45l258.91 -327.85c172.5,-230.06 356.55,-264.53 552.14,-103.56 977.62,839.59 1966.79,1259.46 2967.34,1259.46 690.17,0 1247.92,-189.82 1673.56,-569.29 425.49,-379.63 638.23,-845.36 638.23,-1397.49 0,-563.52 -235.67,-1046.56 -707.33,-1449.12 -471.5,-402.56 -1242.15,-828.2 -2311.79,-1276.77 -529.05,-230.06 -957.5,-437.03 -1285.35,-621.07 -327.69,-184.05 -638.23,-411.14 -931.61,-681.43 -293.22,-270.3 -503.16,-583.64 -629.81,-940.19 -126.49,-356.55 -189.82,-776.42 -189.82,-1259.46 0,-322.08 66.13,-649.93 198.39,-983.39 132.42,-333.62 333.78,-661.31 604.07,-983.39 270.3,-322.08 655.54,-586.6 1155.9,-793.58 500.35,-207.13 1072.45,-310.54 1716.61,-310.54 505.97,0 1003.51,74.71 1492.32,224.29 488.81,149.42 853.94,293.22 1095.54,431.26l362.32 224.29c229.9,114.95 264.53,310.54 103.41,586.6l-172.5 293.22c-126.49,218.51 -327.85,247.37 -603.76,86.25 -770.65,-459.96 -1535.53,-690.01 -2294.64,-690.01 -816.66,0 -1417.61,201.2 -1802.86,603.76 -385.25,402.56 -577.87,833.97 -577.87,1293.93 0,563.68 183.89,1015.06 551.98,1354.29 368.09,339.39 960.47,675.82 1776.97,1009.28 1322.78,540.59 2291.67,1081.19 2907.13,1621.78 615.3,540.59 922.88,1276.62 922.88,2208.23 0,885.6 -365.13,1636.13 -1095.54,2251.43 -730.25,615.46 -1607.27,923.03 -2630.91,923.03 -609.53,0 -1210.49,-112.14 -1802.86,-336.43 -592.38,-224.29 -1006.48,-419.72 -1242.15,-586.6 -235.83,-166.73 -434.22,-324.89 -595.34,-474.46z"/>
   <path id="_15" class="fil2" d="M65676.63 12511.01c0,-1127.2 391.17,-2099.05 1173.21,-2915.71 782.19,-816.5 1725.19,-1224.84 2829.46,-1224.84 1104.11,0 2047.27,408.33 2829.3,1224.84 782.19,816.66 1173.21,1788.51 1173.21,2915.71 0,1138.58 -391.02,2121.98 -1173.21,2950.18 -782.04,828.05 -1725.19,1242.15 -2829.3,1242.15 -1104.27,0 -2047.27,-414.1 -2829.46,-1242.15 -782.04,-828.2 -1173.21,-1811.6 -1173.21,-2950.18zm1259.46 0c0,839.59 261.72,1555.49 785,2147.87 523.28,592.38 1176.02,888.56 1958.21,888.56 770.49,0 1417.46,-296.19 1940.9,-888.56 523.28,-592.38 784.84,-1308.28 784.84,-2147.87 0,-816.66 -261.56,-1518.22 -784.84,-2104.82 -523.44,-586.6 -1170.4,-879.83 -1940.9,-879.83 -770.65,0 -1420.42,293.22 -1949.63,879.83 -529.05,586.6 -793.58,1288.16 -793.58,2104.82z"/>
   <path id="_16" class="fil2" d="M76425.02 16134.04l0 -6486.96 -1276.77 0c-103.41,0 -192.62,-37.43 -267.33,-112.14 -74.87,-74.71 -112.14,-163.92 -112.14,-267.33l0 -345.16c0,-114.95 37.28,-206.97 112.14,-276.07 74.71,-68.94 163.92,-103.41 267.33,-103.41l1276.77 0 0 -1259.46c0,-989.16 227.09,-1739.54 681.43,-2251.43 454.34,-511.74 1112.69,-767.69 1975.36,-767.69 885.6,0 1616.01,276.07 2191.07,828.05 149.42,149.58 172.5,299 68.94,448.57l-327.69 414.1c-115.11,160.96 -281.84,166.73 -500.35,17.16 -506.12,-367.93 -994.94,-551.98 -1466.43,-551.98 -897.14,0 -1345.71,621.07 -1345.71,1863.22l0 1259.46 2363.58 0c103.56,0 192.62,34.47 267.33,103.41 74.87,69.09 112.14,161.12 112.14,276.07l0 345.16c0,103.41 -37.28,192.62 -112.14,267.33 -74.71,74.71 -163.77,112.14 -267.33,112.14l-2363.58 0 0 6486.96c0,103.41 -37.43,192.62 -112.14,267.33 -74.71,74.71 -163.92,112.14 -267.49,112.14l-517.51 0c-103.56,0 -192.62,-37.43 -267.33,-112.14 -74.87,-74.71 -112.14,-163.92 -112.14,-267.33z"/>
   <path id="_17" class="fil2" d="M82670.23 9647.08l-1052.33 0c-115.11,0 -209.94,-37.43 -284.65,-112.14 -74.87,-74.71 -112.14,-163.92 -112.14,-267.33l0 -345.16c0,-252.98 132.26,-379.48 396.79,-379.48l1052.33 0 0 -2208.38c0,-103.41 37.43,-189.66 112.14,-258.75 74.87,-68.94 163.92,-109.18 267.49,-120.72l534.82 -34.47c103.41,-11.54 189.66,22.93 258.75,103.41 68.94,80.48 103.56,172.5 103.56,276.07l0 2242.85 2346.26 0c114.95,0 209.94,34.47 284.65,103.41 74.71,69.09 112.14,161.12 112.14,276.07l0 345.16c0,103.41 -37.43,192.62 -112.14,267.33 -74.71,74.71 -169.7,112.14 -284.65,112.14l-2346.26 0 0 4761.62c0,759.11 235.67,1138.74 707.33,1138.74 494.58,0 1017.86,-172.5 1569.84,-517.67 218.67,-138.03 385.4,-86.25 500.35,155.35l155.35 362.32c92.02,218.51 46.01,391.02 -138.03,517.51 -609.53,425.64 -1357.25,638.39 -2242.85,638.39 -701.55,0 -1181.79,-192.62 -1440.54,-578.03 -258.75,-385.25 -388.21,-928.65 -388.21,-1630.36l0 -4847.87z"/>
   <path id="_18" class="fil2" d="M93401.3 10509.75l-34.47 0 -2346.26 5986.46c-46.01,138.03 -155.35,207.13 -327.85,207.13l-103.56 0c-172.5,0 -287.45,-69.09 -345.01,-207.13l-2208.38 -7504.67c-80.64,-299.15 22.93,-448.57 310.54,-448.57l586.45 0c207.13,0 328.01,74.71 362.48,224.29l1466.43 5417.16 34.63 0 2242.7 -5624.29c46.01,-126.49 161.12,-189.66 345.16,-189.66l103.41 0c172.5,0 281.84,63.17 327.85,189.66l2225.54 5641.6 34.47 0 1466.43 -5434.48c34.63,-149.58 143.8,-224.29 327.85,-224.29l603.76 0c287.61,0 379.63,149.42 276.07,448.57l-2173.76 7504.67c-34.47,138.03 -143.8,207.13 -327.85,207.13l-103.41 0c-161.12,0 -276.07,-69.09 -345.16,-207.13l-2398.04 -5986.46z"/>
   <path id="_19" class="fil2" d="M100793.99 15987.28c-465.88,-477.27 -698.75,-1106.92 -698.75,-1889.11 0,-782.04 281.68,-1417.61 845.36,-1906.43 563.52,-488.81 1345.71,-733.22 2346.26,-733.22 252.98,0 520.47,20.12 802.31,60.52 281.68,40.24 503.16,83.29 664.12,129.3l241.6 69.09c11.54,-793.73 -69.09,-1357.25 -241.6,-1690.72 -172.5,-333.62 -529.05,-500.35 -1069.64,-500.35 -644,0 -1431.96,155.19 -2363.58,465.73 -172.5,69.09 -299,0 -379.48,-206.97l-172.5 -465.88c-57.55,-183.89 22.93,-327.69 241.44,-431.26 793.58,-345.01 1708.03,-517.51 2743.21,-517.51 977.62,0 1633.17,250.18 1966.79,750.37 333.46,500.35 500.2,1365.83 500.2,2596.59l0 4416.61c0,103.41 -37.28,192.62 -112.14,267.33 -74.71,74.71 -163.77,112.14 -267.33,112.14l-327.85 0c-160.96,0 -270.3,-97.79 -327.69,-293.22l-155.35 -534.82c-678.63,678.47 -1500.9,1017.86 -2467.14,1017.86 -713.1,0 -1302.51,-238.63 -1768.24,-716.06zm560.56 -1889.11c0,414.1 132.42,759.11 396.94,1035.18 264.53,276.07 609.53,414.1 1035.02,414.1 460.11,0 894.33,-106.37 1302.66,-319.27 408.17,-212.74 704.36,-462.92 888.41,-750.37l0 -1621.78c-391.02,-206.97 -954.54,-310.54 -1690.72,-310.54 -575.06,0 -1040.95,135.07 -1397.49,405.37 -356.55,270.3 -534.82,652.74 -534.82,1147.32z"/>
   <path id="_20" class="fil2" d="M108842.21 16134.04l0 -7211.6c0,-92.02 37.28,-178.27 112.14,-258.75 74.71,-80.48 163.92,-120.72 267.33,-120.72l276.07 0c184.05,0 299,92.02 345.01,276.07l138.03 569.29c57.55,-80.48 146.61,-175.47 267.49,-284.65 120.72,-109.34 391.02,-258.75 810.89,-448.57 419.72,-189.82 876.87,-284.65 1371.45,-284.65 184.05,0 353.74,8.58 508.93,25.89 155.35,17.16 316.31,46.01 483.2,86.25 166.73,40.24 287.45,106.37 362.16,198.39 74.87,92.02 89.22,201.2 43.2,327.69l-224.29 621.07c-80.48,230.06 -235.83,293.38 -465.88,189.82 -333.46,-149.42 -621.07,-224.29 -862.52,-224.29 -287.61,0 -557.91,34.47 -810.89,103.56 -252.98,68.94 -457.15,152.38 -612.5,250.18 -155.19,97.79 -293.22,198.39 -413.95,301.8 -120.88,103.56 -204.17,189.82 -250.18,258.91l-69.09 103.41 0 5520.88c0,103.41 -40.24,192.62 -120.72,267.33 -80.48,74.71 -166.73,112.14 -258.75,112.14l-517.67 0c-103.41,0 -192.62,-37.43 -267.33,-112.14 -74.87,-74.71 -112.14,-163.92 -112.14,-267.33z"/>
   <path id="_21" class="fil2" d="M114742.42 12528.16c0,-1161.67 350.78,-2144.9 1052.33,-2950.02 701.71,-805.12 1639.09,-1207.68 2812.15,-1207.68 1046.72,0 1909.39,342.04 2587.86,1026.44 678.78,684.4 1018.02,1549.88 1018.02,2596.44 0,138.03 -11.39,299.15 -34.47,483.2 -22.93,229.9 -143.8,345.01 -362.32,345.01l-5796.95 0c23.08,690.01 287.61,1316.86 793.73,1880.53 505.97,563.52 1109.89,845.36 1811.44,845.36 770.65,0 1489.52,-218.51 2156.6,-655.7 149.42,-103.41 258.75,-158.15 327.69,-163.77 69.09,-5.77 161.12,66.13 276.07,215.55l207.13 293.38c69.09,103.41 109.34,172.5 120.88,206.97 11.39,34.47 5.77,83.44 -17.31,146.61 -22.93,63.32 -80.48,129.46 -172.5,198.39 -770.81,609.69 -1742.66,914.45 -2915.87,914.45 -1173.05,0 -2110.44,-399.75 -2812.15,-1199.1 -701.55,-799.35 -1052.33,-1791.32 -1052.33,-2976.07zm1293.93 -724.48l4899.65 0c-22.93,-609.69 -252.98,-1141.55 -690.01,-1595.89 -437.18,-454.34 -983.39,-681.43 -1639.09,-681.43 -667.09,0 -1242.15,221.32 -1725.19,664.12 -483.04,442.8 -764.88,980.59 -845.36,1613.2z"/>
   <g id="Chipset">
    <g>
     <path class="fil3" d="M20102.4 5114.42l-2133.99 4.68c-320.05,0.62 -578.81,329.72 -578.18,734.93l0 77.21c0.62,405.21 260.31,733.06 580.21,732.28l2134.14 -4.68c319.9,-0.62 578.81,-329.72 578.18,-734.93l0 -77.21c-0.62,-405.21 -260.31,-733.06 -580.37,-732.28z"/>
     <path class="fil3" d="M20087.27 8008.3l-2103.73 4.52c-328.32,0.78 -593.94,334.4 -593.31,745.23l0 57.09c0.62,410.83 267.18,743.2 595.49,742.42l2103.57 -4.52c328.32,-0.78 594.09,-334.4 593.47,-745.07l0 -57.24c-0.62,-410.83 -267.18,-743.2 -595.49,-742.42z"/>
     <path class="fil3" d="M20090.39 11148.76l-2103.57 -9.2c-328.32,-1.4 -595.34,329.25 -596.59,738.68l0 56.93c-1.09,409.42 264.06,742.42 592.38,743.98l2103.42 9.2c328.32,1.4 595.34,-329.25 596.43,-738.68l0.16 -56.93c1.25,-409.58 -263.9,-742.42 -592.22,-743.98z"/>
     <path class="fil3" d="M20089.3 14037.96l-2103.57 -4.52c-328.32,-0.78 -594.87,327.54 -595.49,733.06l0 75.33c-0.62,405.68 264.99,735.09 593.31,735.87l2103.73 4.37c328.32,0.94 594.87,-327.38 595.49,-733.06l0 -75.18c0.62,-405.83 -265.15,-735.09 -593.47,-735.87z"/>
    </g>
    <g>
     <path class="fil3" d="M2719.5 5123.78l-2128.37 -9.36c-321.45,-1.4 -582.86,325.04 -583.95,728.85l-0.16 77.05c-1.25,403.96 258.44,732.44 579.74,733.84l2128.53 9.36c321.3,1.4 582.71,-324.89 583.95,-728.85l0.16 -76.89c1.09,-403.96 -258.44,-732.59 -579.9,-734z"/>
     <path class="fil3" d="M2705.46 8015.01l-2097.96 -13.41c-329.72,-2.03 -598.61,323.17 -600.17,726.51l-0.47 75.02c-1.72,403.34 264.37,731.97 594.09,734l2097.8 13.57c329.88,2.03 598.61,-323.33 600.33,-726.51l0.31 -74.87c1.72,-403.5 -264.21,-732.28 -593.94,-734.31z"/>
     <path class="fil3" d="M2695.79 11139.56l-2092.19 -13.73c-331.44,-2.03 -601.42,327.23 -603.14,735.56l-0.31 56.93c-1.56,408.33 265.46,741.02 596.9,743.04l2092.19 13.57c331.44,2.18 601.42,-327.07 603.14,-735.4l0.31 -56.93c1.72,-408.33 -265.46,-741.02 -596.9,-743.04z"/>
     <path class="fil3" d="M2702.34 14032.81l-2098.27 0c-329.88,0 -597.37,330.03 -597.37,737.12l0 75.65c0,407.24 267.49,737.12 597.37,737.12l2098.27 0c329.88,0 597.21,-329.88 597.21,-737.12l0 -75.65c0,-407.08 -267.33,-737.12 -597.21,-737.12z"/>
    </g>
    <g>
     <path class="fil3" d="M5940.29 17390.23l-75.65 0c-407.08,0 -736.96,268.74 -736.96,600.17l0 2092.65c0,331.44 329.88,600.17 736.96,600.17l75.65 0c406.93,0 736.96,-268.74 736.96,-600.17l0 -2092.65c0,-331.44 -330.03,-600.17 -736.96,-600.17z"/>
     <path class="fil3" d="M11949.2 17397.4l-77.21 0c-405.06,-0.78 -734.15,259.38 -734.78,580.83l-4.68 2128.37c-0.78,321.45 326.91,582.39 732.12,583.02l77.21 0c405.21,0.62 734,-259.38 734.93,-580.83l4.52 -2128.53c0.78,-321.45 -327.07,-582.24 -732.12,-582.86z"/>
     <path class="fil3" d="M8837.28 17404.27l-95.14 -0.31c-398.97,-1.09 -723.55,262.19 -724.79,588.01l-9.2 2112.15c-1.25,325.82 320.99,591.13 719.96,592.22l95.14 0.16c398.97,1.25 723.55,-262.03 724.79,-588.01l9.2 -2112.15c1.25,-325.82 -320.99,-590.97 -719.96,-592.06z"/>
     <path class="fil3" d="M14845.26 17410.66l-75.49 0c-407.24,0 -737.27,269.98 -737.27,602.98l0 2086.88c0,333 330.03,602.83 737.27,602.83l75.49 0c407.24,0 737.27,-269.83 737.27,-602.83l0 -2086.88c0,-333 -330.03,-602.98 -737.27,-602.98z"/>
    </g>
    <g>
     <path class="fil3" d="M5924.38 0l-57.4 0c-412.07,0 -746.16,263.75 -746.16,589.1l0 2114.8c0,325.35 334.09,589.1 746.16,589.1l57.4 0c411.92,0 746.01,-263.75 746.01,-589.1l0 -2114.8c0,-325.35 -334.09,-589.1 -746.01,-589.1z"/>
     <path class="fil3" d="M8811.39 13.73l-57.4 0c-412.07,0 -746.16,266.09 -746.16,594.56l0 2103.73c0,328.32 334.09,594.56 746.16,594.56l57.4 0c412.07,0 746.32,-266.24 746.32,-594.56l0 -2103.73c0,-328.47 -334.24,-594.56 -746.32,-594.56z"/>
     <path class="fil3" d="M11959.18 6.86l-77.52 0c-406.61,0 -736.02,258.13 -736.02,576.62l0 2139.6c0,318.49 329.41,576.78 736.02,576.78l77.52 0c406.61,0 736.02,-258.29 736.02,-576.78l0 -2139.6c0,-318.49 -329.41,-576.62 -736.02,-576.62z"/>
     <path class="fil3" d="M14858.83 13.57l-75.49 0c-407.08,0 -736.96,266.24 -736.96,594.56l0 2104.04c0,328.32 329.88,594.56 736.96,594.56l75.49 0c407.08,0 737.12,-266.24 737.12,-594.56l0 -2104.04c0,-328.32 -330.03,-594.56 -737.12,-594.56z"/>
    </g>
    <rect class="fil4" x="4562.7" y="4686.8" width="11593.82" height="11593.84" rx="2070.48" ry="2056.99"/>
   </g>
  </g>
 </g>
</svg>
