<?xml version="1.0" encoding="UTF-8"?>
<!DOCTYPE svg PUBLIC "-//W3C//DTD SVG 1.1//EN" "http://www.w3.org/Graphics/SVG/1.1/DTD/svg11.dtd">
<!-- Creator: CorelDRAW -->
<svg xmlns="http://www.w3.org/2000/svg" xml:space="preserve" width="34.5056mm" height="34.5063mm" version="1.1" style="shape-rendering:geometricPrecision; text-rendering:geometricPrecision; image-rendering:optimizeQuality; fill-rule:evenodd; clip-rule:evenodd"
viewBox="0 0 736.87 736.88"
 xmlns:xlink="http://www.w3.org/1999/xlink"
 xmlns:xodm="http://www.corel.com/coreldraw/odm/2003">
 <defs>
  <style type="text/css">
   <![CDATA[
    .str0 {stroke:white;stroke-width:1.63;stroke-miterlimit:22.9256}
    .fil3 {fill:none;fill-rule:nonzero}
    .fil1 {fill:black}
    .fil0 {fill:black;fill-rule:nonzero}
    .fil2 {fill:white;fill-rule:nonzero}
   ]]>
  </style>
 </defs>
 <g id="Layer_x0020_1">
  <metadata id="CorelCorpID_0Corel-Layer"/>
  <g id="Preenchido_x0020_Monocromático">
   <g id="Chipset">
    <g>
     <path class="fil0" d="M716.19 182.03l-76.03 0.17c-11.4,0.02 -20.62,11.74 -20.6,26.16l0 2.75c0.02,14.42 9.27,26.09 20.68,26.07l76.03 -0.17c11.4,-0.03 20.62,-11.74 20.6,-26.16l0 -2.75c-0.02,-14.42 -9.27,-26.09 -20.67,-26.07z"/>
     <path class="fil0" d="M715.65 285.04l-74.95 0.16c-11.7,0.03 -21.16,11.9 -21.14,26.52l0 2.04c0.02,14.62 9.52,26.45 21.22,26.42l74.94 -0.16c11.7,-0.03 21.16,-11.9 21.14,-26.52l0 -2.04c-0.02,-14.62 -9.52,-26.45 -21.22,-26.42z"/>
     <path class="fil0" d="M715.76 396.81l-74.94 -0.32c-11.7,-0.05 -21.21,11.72 -21.25,26.29l-0 2.03c-0.04,14.57 9.41,26.43 21.11,26.48l74.94 0.32c11.7,0.05 21.21,-11.72 21.25,-26.29l0 -2.03c0.04,-14.57 -9.4,-26.43 -21.1,-26.48z"/>
     <path class="fil0" d="M715.72 499.65l-74.94 -0.16c-11.7,-0.03 -21.2,11.66 -21.22,26.09l0 2.68c-0.02,14.44 9.44,26.16 21.14,26.19l74.95 0.16c11.7,0.03 21.2,-11.66 21.22,-26.09l0 -2.68c0.02,-14.44 -9.44,-26.16 -21.14,-26.19z"/>
    </g>
    <g>
     <path class="fil0" d="M96.88 182.37l-75.83 -0.33c-11.45,-0.05 -20.77,11.56 -20.8,25.94l-0.01 2.74c-0.04,14.38 9.21,26.07 20.66,26.12l75.83 0.33c11.45,0.05 20.76,-11.56 20.8,-25.94l0.01 -2.74c0.04,-14.38 -9.21,-26.07 -20.66,-26.12z"/>
     <path class="fil0" d="M96.38 285.27l-74.74 -0.48c-11.75,-0.07 -21.33,11.5 -21.39,25.86l-0.01 2.67c-0.06,14.36 9.42,26.06 21.17,26.13l74.74 0.48c11.75,0.07 21.33,-11.51 21.39,-25.85l0.01 -2.67c0.06,-14.36 -9.41,-26.06 -21.16,-26.13z"/>
     <path class="fil0" d="M96.04 396.48l-74.54 -0.49c-11.81,-0.07 -21.43,11.65 -21.49,26.18l-0.01 2.02c-0.06,14.53 9.46,26.38 21.27,26.45l74.54 0.48c11.81,0.07 21.43,-11.64 21.49,-26.18l0.01 -2.02c0.06,-14.54 -9.46,-26.38 -21.26,-26.45z"/>
     <path class="fil0" d="M96.27 499.46l-74.75 0c-11.75,0 -21.28,11.75 -21.28,26.23l0 2.69c0,14.49 9.53,26.23 21.28,26.23l74.75 0c11.75,0 21.28,-11.74 21.28,-26.23l0 -2.69c0,-14.49 -9.53,-26.23 -21.28,-26.23z"/>
    </g>
    <g>
     <path class="fil0" d="M211.63 618.96l-2.69 0c-14.5,0 -26.26,9.56 -26.26,21.36l0 74.49c0,11.8 11.76,21.36 26.26,21.36l2.69 0c14.5,0 26.26,-9.56 26.26,-21.36l0 -74.49c0,-11.8 -11.76,-21.36 -26.26,-21.36z"/>
     <path class="fil0" d="M425.71 619.21l-2.75 0c-14.44,-0.02 -26.16,9.23 -26.18,20.67l-0.17 75.76c-0.03,11.44 11.65,20.73 26.09,20.75l2.75 0c14.44,0.02 26.15,-9.23 26.18,-20.67l0.16 -75.76c0.03,-11.44 -11.66,-20.73 -26.08,-20.75z"/>
     <path class="fil0" d="M314.84 619.46l-3.39 -0.01c-14.21,-0.04 -25.78,9.33 -25.82,20.93l-0.32 75.18c-0.05,11.6 11.43,21.04 25.65,21.08l3.39 0.01c14.22,0.04 25.78,-9.33 25.82,-20.93l0.32 -75.17c0.05,-11.6 -11.43,-21.04 -25.65,-21.08z"/>
     <path class="fil0" d="M528.89 619.69l-2.69 0c-14.5,0 -26.26,9.61 -26.26,21.46l0 74.28c0,11.85 11.76,21.46 26.26,21.46l2.69 0c14.51,0 26.26,-9.61 26.26,-21.46l0 -74.28c0,-11.85 -11.76,-21.46 -26.26,-21.46z"/>
    </g>
    <g>
     <path class="fil0" d="M211.06 0l-2.05 0c-14.68,0 -26.58,9.39 -26.58,20.97l0 75.27c0,11.58 11.9,20.97 26.58,20.97l2.05 0c14.68,0 26.58,-9.39 26.58,-20.97l0 -75.27c0,-11.58 -11.9,-20.97 -26.58,-20.97z"/>
     <path class="fil0" d="M313.92 0.49l-2.05 0c-14.68,0 -26.58,9.47 -26.58,21.16l0 74.88c0,11.69 11.9,21.16 26.58,21.16l2.05 0c14.68,0 26.59,-9.48 26.59,-21.16l0 -74.88c0,-11.69 -11.9,-21.16 -26.59,-21.16z"/>
     <path class="fil0" d="M426.07 0.25l-2.76 0c-14.49,0 -26.23,9.19 -26.23,20.52l0 76.16c0,11.34 11.74,20.52 26.23,20.52l2.76 0c14.49,0 26.23,-9.19 26.23,-20.52l0 -76.16c0,-11.34 -11.74,-20.52 -26.23,-20.52z"/>
     <path class="fil0" d="M529.38 0.48l-2.69 0c-14.5,0 -26.26,9.47 -26.26,21.16l0 74.88c0,11.69 11.76,21.16 26.26,21.16l2.69 0c14.5,0 26.26,-9.48 26.26,-21.16l0 -74.88c0,-11.69 -11.76,-21.16 -26.26,-21.16z"/>
    </g>
    <rect class="fil1" x="162.55" y="166.81" width="413.06" height="412.65" rx="73.77" ry="73.21"/>
   </g>
   <g>
    <path class="fil2" d="M375.59 451.96c0,0.83 0.75,1.59 1.59,1.59l7.62 0c0.92,0 1.59,-0.75 1.59,-1.59l0 -35.98 0.17 0 34.31 37.82c0.42,0.42 0.83,0.59 1.42,0.59l1.17 0c0.84,0 1.59,-0.67 1.59,-1.51l0 -56.32c0,-0.83 -0.75,-1.59 -1.59,-1.59l-7.7 0c-0.92,0 -1.59,0.75 -1.59,1.59l0 34.56 -0.17 0 -34.14 -36.4c-0.42,-0.42 -0.84,-0.59 -1.42,-0.59l-1.26 0c-0.84,0 -1.59,0.67 -1.59,1.51l0 56.32z"/>
    <path id="_1" class="fil2" d="M439.27 451.96c0,0.83 0.67,1.59 1.59,1.59l7.7 0c0.84,0 1.59,-0.75 1.59,-1.59l0 -21.34 9.29 0 11.13 22.17c0.17,0.34 0.59,0.75 1.34,0.75l8.79 0c1.42,0 2.01,-1.34 1.42,-2.43l-11.46 -21.25c7.28,-2.93 12.38,-9.2 12.38,-16.9 0,-9.96 -8.2,-17.99 -18.24,-17.99l-23.93 0c-0.92,0 -1.59,0.75 -1.59,1.59l0 55.39zm10.96 -30.29l0 -16.65 13.64 0c4.44,0 8.28,3.68 8.28,8.12 0,4.69 -3.85,8.53 -8.28,8.53l-13.64 0z"/>
    <path id="_2" class="fil2" d="M503.95 451.96c0,0.83 0.75,1.59 1.59,1.59l7.78 0c0.84,0 1.59,-0.75 1.59,-1.59l0 -46.94 12.8 0c0.92,0 1.59,-0.75 1.59,-1.59l0 -6.86c0,-0.83 -0.67,-1.59 -1.59,-1.59l-36.57 0c-0.92,0 -1.59,0.75 -1.59,1.59l0 6.86c0,0.84 0.67,1.59 1.59,1.59l12.8 0 0 46.94z"/>
    <path id="_3" class="fil3 str0" d="M375.59 451.96c0,0.83 0.75,1.59 1.59,1.59l7.62 0c0.92,0 1.59,-0.75 1.59,-1.59l0 -35.98 0.17 0 34.31 37.82c0.42,0.42 0.83,0.59 1.42,0.59l1.17 0c0.84,0 1.59,-0.67 1.59,-1.51l0 -56.32c0,-0.83 -0.75,-1.59 -1.59,-1.59l-7.7 0c-0.92,0 -1.59,0.75 -1.59,1.59l0 34.56 -0.17 0 -34.14 -36.4c-0.42,-0.42 -0.84,-0.59 -1.42,-0.59l-1.26 0c-0.84,0 -1.59,0.67 -1.59,1.51l0 56.32z"/>
    <path id="_4" class="fil3 str0" d="M439.27 451.96c0,0.83 0.67,1.59 1.59,1.59l7.7 0c0.84,0 1.59,-0.75 1.59,-1.59l0 -21.34 9.29 0 11.13 22.17c0.17,0.34 0.59,0.75 1.34,0.75l8.79 0c1.42,0 2.01,-1.34 1.42,-2.43l-11.46 -21.25c7.28,-2.93 12.38,-9.2 12.38,-16.9 0,-9.96 -8.2,-17.99 -18.24,-17.99l-23.93 0c-0.92,0 -1.59,0.75 -1.59,1.59l0 55.39zm10.96 -30.29l0 -16.65 13.64 0c4.44,0 8.28,3.68 8.28,8.12 0,4.69 -3.85,8.53 -8.28,8.53l-13.64 0z"/>
    <path id="_5" class="fil3 str0" d="M503.95 451.96c0,0.83 0.75,1.59 1.59,1.59l7.78 0c0.84,0 1.59,-0.75 1.59,-1.59l0 -46.94 12.8 0c0.92,0 1.59,-0.75 1.59,-1.59l0 -6.86c0,-0.83 -0.67,-1.59 -1.59,-1.59l-36.57 0c-0.92,0 -1.59,0.75 -1.59,1.59l0 6.86c0,0.84 0.67,1.59 1.59,1.59l12.8 0 0 46.94z"/>
    <path class="fil2" d="M211.84 509.28c-1.06,-0.95 -1.23,-1.9 -0.5,-2.84l1.26 -1.59c0.84,-1.11 1.73,-1.28 2.68,-0.5 4.74,4.07 9.54,6.11 14.39,6.11 3.35,0 6.05,-0.92 8.11,-2.76 2.07,-1.84 3.1,-4.1 3.1,-6.78 0,-2.73 -1.14,-5.08 -3.43,-7.03 -2.29,-1.95 -6.03,-4.01 -11.21,-6.19 -2.57,-1.12 -4.64,-2.12 -6.23,-3.01 -1.59,-0.89 -3.1,-1.99 -4.52,-3.31 -1.42,-1.31 -2.44,-2.83 -3.05,-4.56 -0.62,-1.73 -0.92,-3.76 -0.92,-6.11 0,-1.56 0.32,-3.15 0.96,-4.77 0.64,-1.62 1.62,-3.21 2.93,-4.77 1.31,-1.56 3.18,-2.84 5.61,-3.85 2.43,-1 5.2,-1.51 8.33,-1.51 2.45,0 4.87,0.36 7.24,1.09 2.37,0.73 4.14,1.42 5.31,2.09l1.76 1.09c1.12,0.56 1.28,1.51 0.5,2.85l-0.84 1.42c-0.61,1.06 -1.59,1.2 -2.93,0.42 -3.74,-2.23 -7.45,-3.35 -11.13,-3.35 -3.96,0 -6.88,0.98 -8.74,2.93 -1.87,1.95 -2.8,4.04 -2.8,6.27 0,2.73 0.89,4.92 2.68,6.57 1.79,1.65 4.66,3.28 8.62,4.9 6.42,2.62 11.12,5.24 14.1,7.87 2.99,2.62 4.48,6.19 4.48,10.71 0,4.3 -1.77,7.94 -5.31,10.92 -3.54,2.98 -7.8,4.48 -12.76,4.48 -2.96,0 -5.87,-0.54 -8.74,-1.63 -2.87,-1.09 -4.88,-2.04 -6.03,-2.84 -1.14,-0.81 -2.11,-1.58 -2.89,-2.3z"/>
    <path id="_1_0" class="fil2" d="M255.09 495.81c0,-5.47 1.9,-10.18 5.69,-14.14 3.79,-3.96 8.37,-5.94 13.72,-5.94 5.36,0 9.93,1.98 13.72,5.94 3.79,3.96 5.69,8.67 5.69,14.14 0,5.52 -1.9,10.29 -5.69,14.31 -3.79,4.02 -8.37,6.02 -13.72,6.02 -5.35,0 -9.93,-2.01 -13.72,-6.02 -3.79,-4.02 -5.69,-8.79 -5.69,-14.31zm6.11 0c0,4.07 1.27,7.54 3.81,10.42 2.54,2.87 5.7,4.31 9.49,4.31 3.74,0 6.88,-1.44 9.41,-4.31 2.54,-2.87 3.81,-6.35 3.81,-10.42 0,-3.96 -1.27,-7.37 -3.81,-10.21 -2.54,-2.84 -5.68,-4.27 -9.41,-4.27 -3.73,0 -6.89,1.42 -9.45,4.27 -2.57,2.84 -3.85,6.25 -3.85,10.21z"/>
    <path id="_2_1" class="fil2" d="M307.22 513.38l0 -31.46 -6.19 0c-0.5,0 -0.93,-0.18 -1.3,-0.54 -0.36,-0.36 -0.54,-0.79 -0.54,-1.3l0 -1.67c0,-0.56 0.18,-1 0.54,-1.34 0.36,-0.34 0.79,-0.5 1.3,-0.5l6.19 0 0 -6.11c0,-4.8 1.1,-8.44 3.31,-10.92 2.2,-2.48 5.4,-3.72 9.58,-3.72 4.3,0 7.84,1.34 10.63,4.02 0.73,0.72 0.84,1.45 0.34,2.18l-1.59 2.01c-0.56,0.78 -1.37,0.81 -2.43,0.08 -2.45,-1.79 -4.82,-2.68 -7.11,-2.68 -4.35,0 -6.53,3.01 -6.53,9.04l0 6.11 11.46 0c0.5,0 0.93,0.17 1.3,0.5 0.36,0.33 0.54,0.78 0.54,1.34l0 1.67c0,0.5 -0.18,0.94 -0.54,1.3 -0.36,0.36 -0.79,0.54 -1.3,0.54l-11.46 0 0 31.46c0,0.5 -0.18,0.94 -0.54,1.3 -0.36,0.36 -0.79,0.54 -1.3,0.54l-2.51 0c-0.5,0 -0.94,-0.18 -1.3,-0.54 -0.36,-0.36 -0.54,-0.79 -0.54,-1.3z"/>
    <path id="_3_2" class="fil2" d="M337.51 481.91l-5.1 0c-0.56,0 -1.02,-0.18 -1.38,-0.54 -0.36,-0.36 -0.54,-0.79 -0.54,-1.3l0 -1.67c0,-1.23 0.64,-1.84 1.93,-1.84l5.1 0 0 -10.71c0,-0.5 0.18,-0.92 0.54,-1.26 0.36,-0.33 0.8,-0.53 1.3,-0.59l2.59 -0.17c0.5,-0.06 0.92,0.11 1.26,0.5 0.34,0.39 0.5,0.84 0.5,1.34l0 10.88 11.38 0c0.56,0 1.02,0.17 1.38,0.5 0.36,0.33 0.54,0.78 0.54,1.34l0 1.67c0,0.5 -0.18,0.94 -0.54,1.3 -0.36,0.36 -0.82,0.54 -1.38,0.54l-11.38 0 0 23.1c0,3.68 1.14,5.52 3.43,5.52 2.4,0 4.94,-0.84 7.61,-2.51 1.06,-0.67 1.87,-0.42 2.43,0.75l0.75 1.76c0.45,1.06 0.22,1.9 -0.67,2.51 -2.96,2.07 -6.58,3.1 -10.88,3.1 -3.4,0 -5.73,-0.94 -6.99,-2.8 -1.25,-1.87 -1.88,-4.5 -1.88,-7.91l0 -23.51z"/>
    <path id="_4_3" class="fil2" d="M389.56 486.1l-0.17 0 -11.38 29.04c-0.22,0.67 -0.75,1 -1.59,1l-0.5 0c-0.83,0 -1.39,-0.34 -1.67,-1l-10.71 -36.4c-0.39,-1.45 0.11,-2.18 1.51,-2.18l2.84 0c1,0 1.59,0.36 1.76,1.09l7.11 26.27 0.17 0 10.88 -27.28c0.22,-0.62 0.78,-0.92 1.67,-0.92l0.5 0c0.84,0 1.37,0.31 1.59,0.92l10.79 27.36 0.17 0 7.11 -26.36c0.17,-0.73 0.7,-1.09 1.59,-1.09l2.93 0c1.39,0 1.84,0.73 1.34,2.18l-10.54 36.4c-0.17,0.67 -0.7,1 -1.59,1l-0.5 0c-0.78,0 -1.34,-0.34 -1.67,-1l-11.63 -29.04z"/>
    <path id="_5_4" class="fil2" d="M425.41 512.67c-2.26,-2.31 -3.39,-5.37 -3.39,-9.16 0,-3.79 1.37,-6.87 4.1,-9.24 2.73,-2.37 6.53,-3.56 11.38,-3.56 1.23,0 2.52,0.1 3.89,0.29 1.37,0.19 2.44,0.4 3.22,0.63l1.17 0.34c0.06,-3.85 -0.34,-6.58 -1.17,-8.2 -0.84,-1.62 -2.57,-2.43 -5.19,-2.43 -3.12,0 -6.94,0.75 -11.46,2.26 -0.84,0.34 -1.45,0 -1.84,-1l-0.84 -2.26c-0.28,-0.89 0.11,-1.59 1.17,-2.09 3.85,-1.67 8.29,-2.51 13.3,-2.51 4.74,0 7.92,1.21 9.54,3.64 1.62,2.43 2.43,6.62 2.43,12.59l0 21.42c0,0.5 -0.18,0.94 -0.54,1.3 -0.36,0.36 -0.79,0.54 -1.3,0.54l-1.59 0c-0.78,0 -1.31,-0.47 -1.59,-1.42l-0.75 -2.59c-3.29,3.29 -7.28,4.94 -11.96,4.94 -3.46,0 -6.32,-1.16 -8.58,-3.47zm2.72 -9.16c0,2.01 0.64,3.68 1.92,5.02 1.28,1.34 2.96,2.01 5.02,2.01 2.23,0 4.34,-0.52 6.32,-1.55 1.98,-1.03 3.42,-2.25 4.31,-3.64l0 -7.87c-1.9,-1 -4.63,-1.51 -8.2,-1.51 -2.79,0 -5.05,0.66 -6.78,1.97 -1.73,1.31 -2.59,3.16 -2.59,5.56z"/>
    <path id="_6" class="fil2" d="M464.44 513.38l0 -34.98c0,-0.44 0.18,-0.86 0.54,-1.25 0.36,-0.39 0.79,-0.59 1.3,-0.59l1.34 0c0.89,0 1.45,0.45 1.67,1.34l0.67 2.76c0.28,-0.39 0.71,-0.85 1.3,-1.38 0.59,-0.53 1.9,-1.26 3.93,-2.18 2.04,-0.92 4.25,-1.38 6.65,-1.38 0.89,0 1.72,0.04 2.47,0.12 0.75,0.09 1.54,0.22 2.34,0.42 0.81,0.2 1.39,0.52 1.76,0.96 0.36,0.45 0.43,0.98 0.21,1.59l-1.09 3.01c-0.39,1.11 -1.14,1.42 -2.26,0.92 -1.62,-0.73 -3.01,-1.09 -4.18,-1.09 -1.39,0 -2.71,0.17 -3.93,0.5 -1.23,0.33 -2.22,0.74 -2.97,1.21 -0.75,0.47 -1.42,0.96 -2.01,1.46 -0.59,0.5 -0.99,0.92 -1.21,1.25l-0.34 0.5 0 26.78c0,0.5 -0.2,0.94 -0.59,1.3 -0.39,0.36 -0.81,0.54 -1.26,0.54l-2.51 0c-0.5,0 -0.93,-0.18 -1.3,-0.54 -0.36,-0.36 -0.54,-0.79 -0.54,-1.3z"/>
    <path id="_7" class="fil2" d="M493.06 495.89c0,-5.64 1.7,-10.4 5.1,-14.31 3.4,-3.9 7.95,-5.86 13.64,-5.86 5.08,0 9.26,1.66 12.55,4.98 3.29,3.32 4.94,7.52 4.94,12.59 0,0.67 -0.06,1.45 -0.17,2.34 -0.11,1.12 -0.7,1.67 -1.76,1.67l-28.11 0c0.11,3.35 1.39,6.39 3.85,9.12 2.45,2.73 5.38,4.1 8.79,4.1 3.74,0 7.22,-1.06 10.46,-3.18 0.73,-0.5 1.26,-0.77 1.59,-0.79 0.34,-0.03 0.78,0.32 1.34,1.04l1.01 1.42c0.33,0.5 0.53,0.84 0.59,1.01 0.06,0.17 0.03,0.4 -0.08,0.71 -0.11,0.31 -0.39,0.63 -0.84,0.96 -3.74,2.96 -8.45,4.44 -14.14,4.44 -5.69,0 -10.24,-1.94 -13.64,-5.81 -3.4,-3.88 -5.1,-8.69 -5.1,-14.43zm6.28 -3.52l23.76 0c-0.11,-2.96 -1.23,-5.54 -3.35,-7.74 -2.12,-2.2 -4.77,-3.31 -7.95,-3.31 -3.24,0 -6.02,1.07 -8.37,3.22 -2.34,2.15 -3.71,4.76 -4.1,7.82z"/>
   </g>
  </g>
 </g>
</svg>
