<svg xmlns="http://www.w3.org/2000/svg" version="1.1" viewBox="0 0 980 240">
<g stroke-width="2.00" fill="none" stroke-linecap="butt">

<path stroke="#b0c5eb" vector-effect="non-scaling-stroke" d="M 381.6 87.3 Q 373.5 78.6 361.3 78.5 Q 345.4 78.5 330.1 78.5 A 1.3 1.3 -90 0 0 328.8 79.8 L 328.8 158 Q 328.8 159.5 330.3 159.5 L 338.8 159.5 A 1.5 1.5 0 0 0 340.3 158 L 340.3 133.5 A 0.5 0.5 0 0 1 340.8 133 L 359.8 133 Q 360.3 133 360.7 133.5 Q 368.3 144.7 376 156 C 379.4 161 383.8 159.5 388.8 159.5 A 1.1 1.1 72.7 0 0 389.7 157.8 L 371.7 131.8 Q 371.4 131.4 371.9 131.2 Q 387.3 124.1 388.8 107"/>

<path stroke="#b0c5eb" vector-effect="non-scaling-stroke" d="M 423.2 156.5 Q 423.8 158.6 425.7 159.4"/>

<path stroke="#b0c5eb" vector-effect="non-scaling-stroke" d="M 94.4 47 A 3.9 3.9 0 0 0 90.5 43.1 L 90.2 43.1 A 3.9 3.9 0 0 0 86.3 47 L 86.3 61 A 3.9 3.9 0 0 0 90.2 64.9 L 90.5 64.9 A 3.9 3.9 0 0 0 94.4 61 L 94.4 47"/>
<path stroke="#b0c5eb" vector-effect="non-scaling-stroke" d="M 115.7 47.1 A 3.9 3.9 0 0 0 111.8 43.3 L 111.5 43.3 A 3.9 3.9 0 0 0 107.6 47.1 L 107.6 61 A 3.9 3.9 0 0 0 111.5 64.9 L 111.8 64.9 A 3.9 3.9 0 0 0 115.7 61 L 115.7 47.1"/>
<path stroke="#b0c5eb" vector-effect="non-scaling-stroke" d="M 138.7 47.1 A 3.8 3.8 0 0 0 134.9 43.2 L 134.6 43.2 A 3.8 3.8 0 0 0 130.8 47.1 L 130.8 61.1 A 3.8 3.8 0 0 0 134.6 64.9 L 134.9 64.9 A 3.8 3.8 0 0 0 138.7 61.1 L 138.7 47.1"/>
<path stroke="#b0c5eb" vector-effect="non-scaling-stroke" d="M 160.2 47.2 A 3.9 3.9 0 0 0 156.3 43.3 L 156 43.3 A 3.9 3.9 0 0 0 152.1 47.2 L 152.1 61 A 3.9 3.9 0 0 0 156 64.9 L 156.3 64.9 A 3.9 3.9 0 0 0 160.2 61 L 160.2 47.2"/>
<path stroke="#b0c5eb" vector-effect="non-scaling-stroke" d="M 166.2 89.5 A 14.5 14.5 0 0 0 151.6 75 L 94.5 75 A 14.5 14.5 0 0 0 79.9 89.6 L 80 146.8 A 14.5 14.5 0 0 0 94.6 161.3 L 151.8 161.2 A 14.5 14.5 0 0 0 166.3 146.6 L 166.2 89.5"/>
<path stroke="#b0c5eb" vector-effect="non-scaling-stroke" d="M 302.8 136.9 Q 278.4 108.6 253.8 79.5 C 252.5 77.9 248.2 78.5 246.5 78.5 A 1.6 1.6 0 0 0 245 80.1 L 245 157.8 A 1.8 1.8 0 0 0 246.8 159.5 L 254.8 159.5 A 1.5 1.5 0 0 0 256.3 158 L 256.6 101.7 Q 256.6 101 257 101.6 Q 280.8 128.8 304.5 156 Q 308.2 160.2 313.9 159.5 A 1.2 1.2 0 0 0 315 158.2 L 315 79.5 A 1 1 0 0 0 314 78.5 L 304.8 78.5 A 1 1 0 0 0 303.8 79.5 L 303.8 136.5 Q 303.8 137.9 302.8 136.9"/>
<path stroke="#b0c5eb" vector-effect="non-scaling-stroke" d="M 69.7 85.1 A 3.8 3.8 0 0 0 65.9 81.3 L 52.1 81.2 A 3.8 3.8 0 0 0 48.3 85.1 L 48.2 85.4 A 3.8 3.8 0 0 0 52.1 89.2 L 65.9 89.3 A 3.8 3.8 0 0 0 69.7 85.5 L 69.7 85.1"/>
<path stroke="#b0c5eb" vector-effect="non-scaling-stroke" d="M 198.2 85.1 A 3.8 3.8 0 0 0 194.3 81.3 L 180.3 81.3 A 3.8 3.8 0 0 0 176.5 85.1 L 176.5 85.4 A 3.8 3.8 0 0 0 180.3 89.3 L 194.3 89.2 A 3.8 3.8 0 0 0 198.2 85.4 L 198.2 85.1"/>
<path stroke="#b0c5eb" vector-effect="non-scaling-stroke" d="M 69.7 106.5 A 3.9 3.9 0 0 0 65.8 102.6 L 52.2 102.5 A 3.9 3.9 0 0 0 48.3 106.4 L 48.3 106.8 A 3.9 3.9 0 0 0 52.2 110.7 L 65.8 110.8 A 3.9 3.9 0 0 0 69.7 106.9 L 69.7 106.5"/>
<path stroke="#b0c5eb" vector-effect="non-scaling-stroke" d="M 198.1 106.5 A 3.9 3.9 0 0 0 194.2 102.6 L 180.5 102.6 A 3.9 3.9 0 0 0 176.6 106.5 L 176.6 106.8 A 3.9 3.9 0 0 0 180.5 110.7 L 194.2 110.7 A 3.9 3.9 0 0 0 198.1 106.8 L 198.1 106.5"/>
<path stroke="#b0c5eb" vector-effect="non-scaling-stroke" d="M 69.7 129.6 A 3.9 3.9 0 0 0 65.8 125.6 L 52.2 125.6 A 3.9 3.9 0 0 0 48.3 129.4 L 48.3 129.8 A 3.9 3.9 0 0 0 52.1 133.7 L 65.8 133.8 A 3.9 3.9 0 0 0 69.7 129.9 L 69.7 129.6"/>
<path stroke="#b0c5eb" vector-effect="non-scaling-stroke" d="M 198.1 129.5 A 3.9 3.9 0 0 0 194.3 125.7 L 180.4 125.6 A 3.9 3.9 0 0 0 176.6 129.5 L 176.6 129.8 A 3.9 3.9 0 0 0 180.4 133.7 L 194.3 133.7 A 3.9 3.9 0 0 0 198.1 129.9 L 198.1 129.5"/>
<path stroke="#b0c5eb" vector-effect="non-scaling-stroke" d="M 69.7 150.9 A 3.9 3.9 0 0 0 65.8 147 L 52.2 147 A 3.9 3.9 0 0 0 48.3 150.9 L 48.3 151.3 A 3.9 3.9 0 0 0 52.2 155.2 L 65.8 155.2 A 3.9 3.9 0 0 0 69.7 151.3 L 69.7 150.9"/>
<path stroke="#b0c5eb" vector-effect="non-scaling-stroke" d="M 198.1 151 A 3.9 3.9 0 0 0 194.2 147 L 180.5 147 A 3.9 3.9 0 0 0 176.5 150.9 L 176.5 151.3 A 3.9 3.9 0 0 0 180.5 155.2 L 194.2 155.2 A 3.9 3.9 0 0 0 198.1 151.3 L 198.1 151"/>
<path stroke="#b0c5eb" vector-effect="non-scaling-stroke" d="M 94.4 175.5 A 3.9 3.9 0 0 0 90.5 171.6 L 90.2 171.6 A 3.9 3.9 0 0 0 86.3 175.5 L 86.3 189.1 A 3.9 3.9 0 0 0 90.2 193 L 90.5 193 A 3.9 3.9 0 0 0 94.4 189.1 L 94.4 175.5"/>
<path stroke="#b0c5eb" vector-effect="non-scaling-stroke" d="M 138.8 175.4 A 3.8 3.8 0 0 0 134.9 171.6 L 134.6 171.6 A 3.8 3.8 0 0 0 130.8 175.4 L 130.7 189.2 A 3.8 3.8 0 0 0 134.6 193 L 134.9 193.1 A 3.8 3.8 0 0 0 138.7 189.2 L 138.8 175.4"/>
<path stroke="#b0c5eb" vector-effect="non-scaling-stroke" d="M 115.8 175.6 A 3.8 3.8 0 0 0 112 171.8 L 111.4 171.8 A 3.8 3.8 0 0 0 107.6 175.5 L 107.6 189.2 A 3.8 3.8 0 0 0 111.3 193 L 111.9 193 A 3.8 3.8 0 0 0 115.7 189.2 L 115.8 175.6"/>
<path stroke="#b0c5eb" vector-effect="non-scaling-stroke" d="M 160.3 175.7 A 3.9 3.9 0 0 0 156.3 171.8 L 155.9 171.8 A 3.9 3.9 0 0 0 152 175.7 L 152 189.1 A 3.9 3.9 0 0 0 155.9 193.1 L 156.3 193.1 A 3.9 3.9 0 0 0 160.3 189.1 L 160.3 175.7"/>
<path stroke="#b7caec" vector-effect="non-scaling-stroke" d="M 425.7 159.4 L 433.3 159.4 Q 434.5 159.4 434.5 158.3 L 434.7 89.9 Q 434.7 89.5 435.1 89.5 L 459.3 89.5 A 1.4 1.4 89.8 0 0 460.7 88.1 L 460.6 79.2 A 0.7 0.7 0 0 0 459.9 78.5 L 398.3 78.5 A 1.3 1.3 0 0 0 397 79.8 L 397 87.5 A 2 2 0 0 0 399 89.5 L 422.7 89.5 Q 423.2 89.5 423.2 90 L 423.2 156.5"/>
<path stroke="#b7caec" vector-effect="non-scaling-stroke" d="M 388.8 107 Q 388.9 95.9 381.6 87.3"/>
<path stroke="#b7caec" vector-effect="non-scaling-stroke" d="M 477 86 C 470.3 93.5 469.4 105.7 476.9 113.1 C 483.7 119.8 493.8 123.3 504.4 127.3 C 515.5 131.4 516.3 144 504.6 148 C 494 151.7 485.9 147 477.9 140 A 1.8 1.8 0 0 0 475.3 140.2 L 470.3 145.7 A 1.4 1.4 45.5 0 0 470.3 147.6 C 480.5 159.1 496.3 163.7 511.1 157.1 C 518.9 153.6 524.8 145.5 524.4 136.8 C 523.6 122.6 507.9 116.8 497 112.5 C 491.8 110.5 485.3 108 483.4 102.6 C 480.8 95.2 488.3 89.3 495.3 88.8 C 503.6 88.2 508.9 91.9 515.3 96.5 A 1.6 1.6 -51 0 0 517.4 96.3 C 519.1 94.3 524.1 89.9 521 87.2 C 509.3 77.1 488.6 73 477 86"/>
<path stroke="#b7caec" vector-effect="non-scaling-stroke" d="M 612.4 108.8 Q 611.9 98.9 612.5 96.3 C 614.6 87.4 624.1 86.9 630.6 90.5 A 1.7 1.7 0 0 0 633 89.7 L 635.9 83.2 A 1.3 1.3 -63 0 0 635.4 81.5 C 623.4 74.6 604.1 77.5 601.8 93.8 Q 600.9 99.5 601.3 108.6 Q 601.4 109.2 600.8 109.2 L 595.3 109.4 A 2.6 2.6 0 0 0 592.8 112 L 592.8 118.6 A 0.9 0.9 0 0 0 593.6 119.5 L 600.7 119.5 Q 601.3 119.5 601.3 120 Q 601.3 137.6 601.3 155.3 C 601.3 160.9 607.5 159.5 611 159.5 A 1.3 1.3 0 0 0 612.3 158.2 L 612.3 120.3 Q 612.3 119.5 613 119.5 L 624.6 119.5 A 1.1 1.1 0 0 0 625.8 118.4 L 625.8 110.8 A 1.5 1.5 0.2 0 0 624.3 109.3 L 612.8 109.2 Q 612.4 109.2 612.4 108.8"/>
<path stroke="#b7caec" vector-effect="non-scaling-stroke" d="M 654.3 108.7 L 654.3 95 A 1.7 1.7 54.8 0 0 650.9 94.4 Q 646.8 105.9 637.2 113.9 C 635.4 115.4 634.8 117.5 635.9 119.5 A 1 1 -13.9 0 0 636.8 120 L 642.5 120 Q 643 120 643 120.5 Q 643 139.7 643.4 145.9 C 643.8 151.9 646.2 157.6 652 159.2 C 656.2 160.3 664.2 160.6 667.9 157.5 A 1 1 -26.7 0 0 668.2 156.5 L 666.7 149.9 A 1.3 1.3 0 0 0 665.1 149 C 661 149.9 654.4 150.6 654.3 144.3 Q 654.2 132.4 654.2 120.5 Q 654.2 120 654.8 120 L 664.8 120 Q 666.5 120 666.5 118.3 L 666.5 111.2 Q 666.5 109.3 664.6 109.3 L 654.7 109.2 Q 654.3 109.2 654.3 108.7"/>
<path stroke="#b7caec" vector-effect="non-scaling-stroke" d="M 584.9 134.4 A 25.8 25.8 0 0 0 559.1 108.7 A 25.8 25.8 0 0 0 533.4 134.4 A 25.8 25.8 0 0 0 559.1 160.2 A 25.8 25.8 0 0 0 584.9 134.4"/>
<path stroke="#b7caec" vector-effect="non-scaling-stroke" d="M 791 126.4 C 783.1 128.2 775.4 129.3 767.9 132.6 C 755 138.3 754.8 156.3 770.2 159.4 Q 781.9 161.9 791.9 154.6 A 0.6 0.5 -20.5 0 1 792.8 155 Q 793 157.4 794.7 159.1 Q 795.1 159.5 795.7 159.5 L 802 159.5 A 1.1 1.1 87.5 0 0 803 158.3 Q 801.8 143.8 801.9 129.7 Q 802 122.9 801 120 C 795.5 103.8 773.3 108.3 761.8 114.2 A 1.6 1.6 0 0 0 761.1 116.2 L 763.8 122.4 A 1.4 1.4 -25.9 0 0 765.7 123.1 C 771.7 119.9 791 113.2 791.5 125.8 A 0.6 0.6 -7.9 0 1 791 126.4"/>
<path stroke="#b7caec" vector-effect="non-scaling-stroke" d="M 868.8 138.5 Q 884.8 138.4 900.8 138.5 C 904.2 138.5 905.9 135.3 905.8 132 C 904.7 104.8 867.6 100.3 858.1 125 Q 855.3 132.2 857 140 C 861.6 161.5 889 166.7 902.7 150.5 A 1.4 1.3 -44.3 0 0 902.7 148.8 L 899.9 145.2 Q 899.5 144.7 899 145 Q 896.4 146.4 893.8 147.7 C 884.7 152.4 870.9 151.1 868.3 139.1 Q 868.2 138.5 868.8 138.5"/>
<path stroke="#b7caec" vector-effect="non-scaling-stroke" d="M 826 113.6 C 825.1 108.5 820.2 109.1 816.3 109.4 A 1.4 1.4 -1.8 0 0 815 110.7 L 815 158.3 A 1.3 1.3 0 0 0 816.3 159.5 L 824.5 159.5 A 1.5 1.5 90 0 0 826 158 Q 826 143.6 826 129.4 C 826 122.3 833 118.7 839.5 119.3 Q 840.9 119.4 845.4 121.2 A 0.8 0.8 28.7 0 0 846.4 121 L 851.2 114.1 A 1.4 1.3 32.1 0 0 850.8 112.1 Q 837.9 105 826.6 113.8 Q 826.1 114.2 826 113.6"/>
<path stroke="#b7caec" vector-effect="non-scaling-stroke" d="M 729.6 140.4 Q 729.3 141.5 728.8 140.4 L 716.5 111.5 A 3.2 3.2 0 0 0 710.6 111.5 L 698.3 140.6 Q 697.9 141.5 697.6 140.6 L 686.5 110.5 Q 686.1 109.3 684.8 109.3 L 675.9 109.3 A 1 1 0 0 0 674.9 110.7 L 694.1 158.5 A 1.6 1.6 -4.4 0 0 695.2 159.4 Q 698.1 160 699.1 157.8 Q 706.1 143.1 713.2 128.5 Q 713.5 127.7 713.9 128.5 L 728.2 158.1 A 2.8 2.8 0 0 0 733.2 157.9 L 752.2 110.5 A 0.9 0.9 -79.1 0 0 751.4 109.3 L 742.2 109.3 A 1.7 1.6 9.7 0 0 740.6 110.4 L 729.6 140.4"/>
<path stroke="#b0c5eb" vector-effect="non-scaling-stroke" d="M 158.1 89.5 A 6.2 6.2 0 0 0 152 83.3 L 94.5 83.2 A 6.2 6.2 0 0 0 88.3 89.4 L 88.2 146.7 A 6.2 6.2 0 0 0 94.4 152.9 L 151.8 153 A 6.2 6.2 0 0 0 158 146.9 L 158.1 89.5"/>
<path stroke="#b7caec" vector-effect="non-scaling-stroke" d="M 340.2 90.1 L 340.2 121.4 A 0.6 0.6 0 0 0 340.9 122 L 360.8 122 A 16.5 15.4 -0.1 0 0 377.3 106.5 L 377.3 104.9 A 16.5 15.4 -0.1 0 0 360.8 89.5 L 340.8 89.5 A 0.6 0.6 0 0 0 340.2 90.1"/>
<path stroke="#b7caec" vector-effect="non-scaling-stroke" d="M 574.4 134.5 A 15.3 15.3 0 0 0 559.2 119.2 A 15.3 15.3 0 0 0 543.9 134.5 A 15.3 15.3 0 0 0 559.2 149.7 A 15.3 15.3 0 0 0 574.4 134.5"/>
<path stroke="#b7caec" vector-effect="non-scaling-stroke" d="M 770.7 143.4 Q 768.6 146.3 770.6 148.9 C 774.7 154.2 786.4 149.8 790.9 146.7 Q 791.3 146.4 791.3 146 L 791.3 136.3 Q 791.3 135.8 790.8 135.9 C 785.1 136.9 774.2 138.7 770.7 143.4"/>
<path stroke="#b7caec" vector-effect="non-scaling-stroke" d="M 868.3 130.1 L 894.1 130 A 0.1 0.1 0 0 0 894.3 129.9 L 894.3 129.9 A 13 10.9 -0.1 0 0 881.3 119 L 881.1 119 A 13 10.9 -0.1 0 0 868.1 129.9 L 868.1 129.9 A 0.1 0.1 0 0 0 868.3 130.1"/>
</g>
<rect x="86.3" y="43.1" width="8.1" height="21.8" rx="3.9" fill="#ffffff"/>
<rect x="107.6" y="43.3" width="8.1" height="21.6" rx="3.9" fill="#ffffff"/>
<rect fill="#ffffff" x="130.8" y="43.2" width="8" height="21.7" rx="3.8"/>
<rect fill="#ffffff" x="152.1" y="43.3" width="8.2" height="21.6" rx="3.9"/>
<path d="M 166.3 146.6 A 14.5 14.5 0 0 1 151.8 161.2 L 94.6 161.3 A 14.5 14.5 0 0 1 80 146.8 L 79.9 89.6 A 14.5 14.5 0 0 1 94.5 75 L 151.6 75 A 14.5 14.5 0 0 1 166.2 89.5 L 166.3 146.6 Z M 158.1 89.5 A 6.2 6.2 0 0 0 152 83.3 L 94.5 83.2 A 6.2 6.2 0 0 0 88.3 89.4 L 88.2 146.7 A 6.2 6.2 0 0 0 94.4 152.9 L 151.8 153 A 6.2 6.2 0 0 0 158 146.9 L 158.1 89.5 Z" fill="#ffffff"/>
<path d="M 477 86 C 488.6 73 509.3 77.1 521 87.2 C 524.1 89.9 519.1 94.3 517.4 96.3 A 1.6 1.6 -51 0 1 515.3 96.5 C 508.9 91.9 503.6 88.2 495.3 88.8 C 488.3 89.3 480.8 95.2 483.4 102.6 C 485.3 108 491.8 110.5 497 112.5 C 507.9 116.8 523.6 122.6 524.4 136.8 C 524.8 145.5 518.9 153.6 511.1 157.1 C 496.3 163.7 480.5 159.1 470.3 147.6 A 1.4 1.4 45.5 0 1 470.3 145.7 L 475.3 140.2 A 1.8 1.8 0 0 1 477.9 140 C 485.9 147 494 151.7 504.6 148 C 516.3 144 515.5 131.4 504.4 127.3 C 493.8 123.3 483.7 119.8 476.9 113.1 C 469.4 105.7 470.3 93.5 477 86 Z" fill="#ffffff"/>
<path fill="#ffffff" d="M 612.8 109.2 L 624.3 109.3 A 1.5 1.5 0.2 0 1 625.8 110.8 L 625.8 118.4 A 1.1 1.1 0 0 1 624.6 119.5 L 613 119.5 Q 612.3 119.5 612.3 120.3 L 612.3 158.2 A 1.3 1.3 0 0 1 611 159.5 C 607.5 159.5 601.3 160.9 601.3 155.3 Q 601.3 137.6 601.3 120 Q 601.3 119.5 600.7 119.5 L 593.6 119.5 A 0.9 0.9 0 0 1 592.8 118.6 L 592.8 112 A 2.6 2.6 0 0 1 595.3 109.4 L 600.8 109.2 Q 601.4 109.2 601.3 108.6 Q 600.9 99.5 601.8 93.8 C 604.1 77.5 623.4 74.6 635.4 81.5 A 1.3 1.3 -63 0 1 635.9 83.2 L 633 89.7 A 1.7 1.7 0 0 1 630.6 90.5 C 624.1 86.9 614.6 87.4 612.5 96.3 Q 611.9 98.9 612.4 108.8 Q 612.4 109.2 612.8 109.2 Z"/>
<path fill="#ffffff" d="M 302.8 136.9 Q 303.8 137.9 303.8 136.5 L 303.8 79.5 A 1 1 0 0 1 304.8 78.5 L 314 78.5 A 1 1 0 0 1 315 79.5 L 315 158.2 A 1.2 1.2 0 0 1 313.9 159.5 Q 308.2 160.2 304.5 156 Q 280.8 128.8 257 101.6 Q 256.6 101 256.6 101.7 L 256.3 158 A 1.5 1.5 0 0 1 254.8 159.5 L 246.8 159.5 A 1.8 1.8 0 0 1 245 157.8 L 245 80.1 A 1.6 1.6 0 0 1 246.5 78.5 C 248.2 78.5 252.5 77.9 253.8 79.5 Q 278.4 108.6 302.8 136.9 Z"/>
<path fill="#ffffff" d="M 381.6 87.3 Q 388.9 95.9 388.8 107 Q 387.3 124.1 371.9 131.2 Q 371.4 131.4 371.7 131.8 L 389.7 157.8 A 1.1 1.1 72.7 0 1 388.8 159.5 C 383.8 159.5 379.4 161 376 156 Q 368.3 144.7 360.7 133.5 Q 360.3 133 359.8 133 L 340.8 133 A 0.5 0.5 0 0 0 340.3 133.5 L 340.3 158 A 1.5 1.5 0 0 1 338.8 159.5 L 330.3 159.5 Q 328.8 159.5 328.8 158 L 328.8 79.8 A 1.3 1.3 -90 0 1 330.1 78.5 Q 345.4 78.5 361.3 78.5 Q 373.5 78.6 381.6 87.3 Z M 340.2 90.1 L 340.2 121.4 A 0.6 0.6 0 0 0 340.9 122 L 360.8 122 A 16.5 15.4 -0.1 0 0 377.3 106.5 L 377.3 104.9 A 16.5 15.4 -0.1 0 0 360.8 89.5 L 340.8 89.5 A 0.6 0.6 0 0 0 340.2 90.1 Z"/>
<path fill="#ffffff" d="M 425.7 159.4 Q 423.8 158.6 423.2 156.5 L 423.2 90 Q 423.2 89.5 422.7 89.5 L 399 89.5 A 2 2 0 0 1 397 87.5 L 397 79.8 A 1.3 1.3 0 0 1 398.3 78.5 L 459.9 78.5 A 0.7 0.7 0 0 1 460.6 79.2 L 460.7 88.1 A 1.4 1.4 89.8 0 1 459.3 89.5 L 435.1 89.5 Q 434.7 89.5 434.7 89.9 L 434.5 158.3 Q 434.5 159.4 433.3 159.4 L 425.7 159.4 Z"/>
<rect transform="translate(59,85.3) rotate(0.2)" x="-10.7" y="-4" width="21.5" height="8" rx="3.8" fill="#ffffff"/>
<rect transform="translate(187.3,85.3) rotate(-0.1)" x="-10.8" y="-4" width="21.6" height="8" rx="3.8" fill="#ffffff"/>
<path d="M 654.7 109.2 L 664.6 109.3 Q 666.5 109.3 666.5 111.2 L 666.5 118.3 Q 666.5 120 664.8 120 L 654.8 120 Q 654.2 120 654.2 120.5 Q 654.2 132.4 654.3 144.3 C 654.4 150.6 661 149.9 665.1 149 A 1.3 1.3 0 0 1 666.7 149.9 L 668.2 156.5 A 1 1 -26.7 0 1 667.9 157.5 C 664.2 160.6 656.2 160.3 652 159.2 C 646.2 157.6 643.8 151.9 643.4 145.9 Q 643 139.7 643 120.5 Q 643 120 642.5 120 L 636.8 120 A 1 1 -13.9 0 1 635.9 119.5 C 634.8 117.5 635.4 115.4 637.2 113.9 Q 646.8 105.9 650.9 94.4 A 1.7 1.7 54.8 0 1 654.3 95 L 654.3 108.7 Q 654.3 109.2 654.7 109.2 Z" fill="#ffffff"/>
<rect transform="translate(59,106.6) rotate(0.3)" x="-10.7" y="-4.1" width="21.5" height="8.2" rx="3.9" fill="#ffffff"/>
<rect transform="translate(187.3,106.7) rotate(-0.1)" x="-10.8" y="-4.1" width="21.6" height="8.1" rx="3.9" fill="#ffffff"/>
<path d="M 584.9 134.4 A 25.8 25.8 0 0 1 559.1 160.2 A 25.8 25.8 0 0 1 533.4 134.4 A 25.8 25.8 0 0 1 559.1 108.7 A 25.8 25.8 0 0 1 584.9 134.4 Z M 574.4 134.5 A 15.3 15.3 0 0 0 559.2 119.2 A 15.3 15.3 0 0 0 543.9 134.5 A 15.3 15.3 0 0 0 559.2 149.7 A 15.3 15.3 0 0 0 574.4 134.5 Z" fill="#ffffff"/>
<path d="M 791.5 125.8 C 791 113.2 771.7 119.9 765.7 123.1 A 1.4 1.4 -25.9 0 1 763.8 122.4 L 761.1 116.2 A 1.6 1.6 0 0 1 761.8 114.2 C 773.3 108.3 795.5 103.8 801 120 Q 802 122.9 801.9 129.7 Q 801.8 143.8 803 158.3 A 1.1 1.1 87.5 0 1 802 159.5 L 795.7 159.5 Q 795.1 159.5 794.7 159.1 Q 793 157.4 792.8 155 A 0.6 0.5 -20.5 0 0 791.9 154.6 Q 781.9 161.9 770.2 159.4 C 754.8 156.3 755 138.3 767.9 132.6 C 775.4 129.3 783.1 128.2 791 126.4 A 0.6 0.6 -7.9 0 0 791.5 125.8 Z M 770.7 143.4 Q 768.6 146.3 770.6 148.9 C 774.7 154.2 786.4 149.8 790.9 146.7 Q 791.3 146.4 791.3 146 L 791.3 136.3 Q 791.3 135.8 790.8 135.9 C 785.1 136.9 774.2 138.7 770.7 143.4 Z" fill="#ffffff"/>
<path d="M 868.3 139.1 C 870.9 151.1 884.7 152.4 893.8 147.7 Q 896.4 146.4 899 145 Q 899.5 144.7 899.9 145.2 L 902.7 148.8 A 1.4 1.3 -44.3 0 1 902.7 150.5 C 889 166.7 861.6 161.5 857 140 Q 855.3 132.2 858.1 125 C 867.6 100.3 904.7 104.8 905.8 132 C 905.9 135.3 904.2 138.5 900.8 138.5 Q 884.8 138.4 868.8 138.5 Q 868.2 138.5 868.3 139.1 Z M 868.3 130.1 L 894.1 130 A 0.1 0.1 0 0 0 894.3 129.9 L 894.3 129.9 A 13 10.9 -0.1 0 0 881.3 119 L 881.1 119 A 13 10.9 -0.1 0 0 868.1 129.9 L 868.1 129.9 A 0.1 0.1 0 0 0 868.3 130.1 Z" fill="#ffffff"/>
<path d="M 826.6 113.8 Q 837.9 105 850.8 112.1 A 1.4 1.3 32.1 0 1 851.2 114.1 L 846.4 121 A 0.8 0.8 28.7 0 1 845.4 121.2 Q 840.9 119.4 839.5 119.3 C 833 118.7 826 122.3 826 129.4 Q 826 143.6 826 158 A 1.5 1.5 -90 0 1 824.5 159.5 L 816.3 159.5 A 1.3 1.3 0 0 1 815 158.3 L 815 110.7 A 1.4 1.4 -1.8 0 1 816.3 109.4 C 820.2 109.1 825.1 108.5 826 113.6 Q 826.1 114.2 826.6 113.8 Z" fill="#ffffff"/>
<path fill="#ffffff" d="M 729.6 140.4 L 740.6 110.4 A 1.7 1.6 9.7 0 1 742.2 109.3 L 751.4 109.3 A 0.9 0.9 -79.1 0 1 752.2 110.5 L 733.2 157.9 A 2.8 2.8 0 0 1 728.2 158.1 L 713.9 128.5 Q 713.5 127.7 713.2 128.5 Q 706.1 143.1 699.1 157.8 Q 698.1 160 695.2 159.4 A 1.6 1.6 -4.4 0 1 694.1 158.5 L 674.9 110.7 A 1 1 0 0 1 675.9 109.3 L 684.8 109.3 Q 686.1 109.3 686.5 110.5 L 697.6 140.6 Q 697.9 141.5 698.3 140.6 L 710.6 111.5 A 3.2 3.2 0 0 1 716.5 111.5 L 728.8 140.4 Q 729.3 141.5 729.6 140.4 Z"/>

<rect transform="translate(59,129.7) rotate(0.3)" x="-10.7" y="-4.1" width="21.4" height="8.1" rx="3.9" fill="#ffffff"/>
<rect transform="translate(187.3,129.7) rotate(0.2)" x="-10.8" y="-4" width="21.6" height="8.1" rx="3.9" fill="#ffffff"/>

<rect x="48.3" y="147" width="21.5" height="8.2" rx="3.9" fill="#ffffff"/>
<rect transform="translate(187.3,151.1) rotate(0.1)" x="-10.8" y="-4.1" width="21.6" height="8.2" rx="3.9" fill="#ffffff"/>
<rect x="86.3" y="171.6" width="8.2" height="21.4" rx="3.9" fill="#ffffff"/>
<rect transform="translate(134.7,182.3) rotate(0.1)" x="-4" y="-10.7" width="8" height="21.5" rx="3.8" fill="#ffffff"/>
<rect transform="translate(111.7,182.4) rotate(0.2)" fill="#ffffff" x="-4.1" y="-10.6" width="8.1" height="21.2" rx="3.8"/>
<rect fill="#ffffff" x="152" y="171.8" width="8.2" height="21.3" rx="3.9"/>
</svg>