<?xml version="1.0" encoding="UTF-8"?>
<!DOCTYPE svg PUBLIC "-//W3C//DTD SVG 1.1//EN" "http://www.w3.org/Graphics/SVG/1.1/DTD/svg11.dtd">
<!-- Creator: CorelDRAW -->
<svg xmlns="http://www.w3.org/2000/svg" xml:space="preserve" width="34.5062mm" height="34.5061mm" version="1.1" style="shape-rendering:geometricPrecision; text-rendering:geometricPrecision; image-rendering:optimizeQuality; fill-rule:evenodd; clip-rule:evenodd"
viewBox="0 0 1365.51 1365.51"
 xmlns:xlink="http://www.w3.org/1999/xlink"
 xmlns:xodm="http://www.corel.com/coreldraw/odm/2003">
 <defs>
  <style type="text/css">
   <![CDATA[
    .str0 {stroke:#999999;stroke-width:3.35;stroke-miterlimit:22.9256}
    .str1 {stroke:black;stroke-width:3.02;stroke-miterlimit:22.9256}
    .fil1 {fill:none;fill-rule:nonzero}
    .fil0 {fill:black;fill-rule:nonzero}
    .fil2 {fill:#999999;fill-rule:nonzero}
   ]]>
  </style>
 </defs>
 <g id="Layer_x0020_1">
  <metadata id="CorelCorpID_0Corel-Layer"/>
  <g id="Hollow_x0020_Monocromático">
   <g id="Chipset">
    <g>
     <path class="fil0" d="M1327.2 337.32l-140.9 0.31c-21.13,0.04 -38.21,21.75 -38.18,48.47l0 5.09c0.04,26.72 17.19,48.35 38.31,48.31l140.9 -0.31c21.12,-0.05 38.21,-21.75 38.17,-48.48l0 -5.09c-0.04,-26.73 -17.19,-48.35 -38.31,-48.31z"/>
     <path class="fil0" d="M1326.19 528.19l-138.89 0.3c-21.68,0.05 -39.22,22.05 -39.18,49.15l0 3.77c0.04,27.09 17.64,49.02 39.32,48.96l138.88 -0.3c21.68,-0.05 39.22,-22.05 39.18,-49.14l0 -3.77c-0.04,-27.1 -17.64,-49.02 -39.32,-48.97z"/>
     <path class="fil0" d="M1326.4 735.33l-138.87 -0.6c-21.68,-0.1 -39.31,21.71 -39.39,48.71l-0.01 3.76c-0.07,27 17.44,48.97 39.12,49.07l138.87 0.6c21.68,0.1 39.31,-21.71 39.38,-48.71l0.01 -3.76c0.08,-27 -17.43,-48.97 -39.1,-49.07z"/>
     <path class="fil0" d="M1326.33 925.88l-138.88 -0.3c-21.68,-0.05 -39.28,21.6 -39.32,48.35l0 4.97c-0.04,26.75 17.5,48.48 39.18,48.53l138.89 0.3c21.67,0.05 39.28,-21.6 39.32,-48.35l0 -4.97c0.04,-26.76 -17.5,-48.48 -39.18,-48.53z"/>
    </g>
    <g>
     <path class="fil0" d="M179.54 337.95l-140.52 -0.62c-21.22,-0.09 -38.48,21.43 -38.55,48.07l-0.01 5.08c-0.08,26.64 17.06,48.31 38.28,48.41l140.52 0.61c21.22,0.09 38.48,-21.42 38.55,-48.07l0.01 -5.07c0.08,-26.64 -17.06,-48.31 -38.28,-48.41z"/>
     <path class="fil0" d="M178.61 528.64l-138.51 -0.89c-21.78,-0.13 -39.52,21.32 -39.63,47.92l-0.02 4.95c-0.11,26.6 17.44,48.28 39.22,48.41l138.5 0.89c21.78,0.13 39.52,-21.32 39.64,-47.91l0.02 -4.94c0.11,-26.6 -17.44,-48.29 -39.22,-48.43z"/>
     <path class="fil0" d="M177.98 734.72l-138.13 -0.9c-21.88,-0.14 -39.7,21.58 -39.81,48.51l-0.02 3.75c-0.11,26.93 17.53,48.87 39.4,49.01l138.13 0.9c21.88,0.13 39.71,-21.58 39.82,-48.51l0.02 -3.75c0.11,-26.93 -17.53,-48.87 -39.41,-49.01z"/>
     <path class="fil0" d="M178.4 925.55l-138.53 0c-21.78,0 -39.43,21.76 -39.43,48.62l0 4.99c0,26.85 17.66,48.62 39.43,48.62l138.53 0c21.78,0 39.43,-21.77 39.43,-48.62l0 -4.99c0,-26.85 -17.65,-48.62 -39.43,-48.62z"/>
    </g>
    <g>
     <path class="fil0" d="M392.18 1146.99l-4.99 0c-26.87,0 -48.66,17.72 -48.66,39.58l0 138.03c0,21.86 21.78,39.58 48.66,39.58l4.99 0c26.87,0 48.66,-17.72 48.66,-39.58l0 -138.03c0,-21.86 -21.78,-39.58 -48.66,-39.58z"/>
     <path class="fil0" d="M788.91 1147.46l-5.1 0c-26.75,-0.04 -48.47,17.11 -48.52,38.31l-0.31 140.39c-0.05,21.2 21.59,38.41 48.34,38.45l5.1 0c26.75,0.04 48.47,-17.11 48.52,-38.31l0.3 -140.39c0.05,-21.2 -21.6,-38.41 -48.33,-38.45z"/>
     <path class="fil0" d="M583.44 1147.91l-6.28 -0.02c-26.34,-0.07 -47.77,17.29 -47.85,38.79l-0.61 139.3c-0.09,21.49 21.19,38.98 47.54,39.05l6.28 0.02c26.34,0.08 47.77,-17.29 47.86,-38.79l0.6 -139.31c0.09,-21.5 -21.19,-38.98 -47.54,-39.05z"/>
     <path class="fil0" d="M980.11 1148.34l-4.99 0c-26.88,0 -48.67,17.8 -48.67,39.77l0 137.64c0,21.96 21.79,39.76 48.67,39.76l4.99 0c26.88,0 48.67,-17.8 48.67,-39.76l0 -137.64c0,-21.96 -21.78,-39.77 -48.67,-39.77z"/>
    </g>
    <g>
     <path class="fil0" d="M391.13 0l-3.79 0c-27.21,0 -49.26,17.4 -49.26,38.86l0 139.48c0,21.46 22.05,38.86 49.26,38.86l3.79 0c27.2,0 49.25,-17.4 49.25,-38.86l0 -139.48c0,-21.46 -22.05,-38.86 -49.25,-38.86z"/>
     <path class="fil0" d="M581.74 0.9l-3.79 0c-27.21,0 -49.27,17.55 -49.27,39.21l0 138.76c0,21.66 22.06,39.21 49.27,39.21l3.79 0c27.21,0 49.26,-17.55 49.26,-39.21l0 -138.76c0,-21.66 -22.06,-39.21 -49.26,-39.21z"/>
     <path class="fil0" d="M789.56 0.45l-5.12 0c-26.85,0 -48.6,17.02 -48.6,38.03l0 141.13c0,21.01 21.75,38.03 48.6,38.03l5.12 0c26.85,0 48.6,-17.03 48.6,-38.03l0 -141.13c0,-21.01 -21.75,-38.03 -48.6,-38.03z"/>
     <path class="fil0" d="M981.01 0.89l-4.99 0c-26.87,0 -48.66,17.55 -48.66,39.22l0 138.77c0,21.66 21.78,39.22 48.66,39.22l4.99 0c26.87,0 48.66,-17.56 48.66,-39.22l0 -138.77c0,-21.66 -21.78,-39.22 -48.66,-39.22z"/>
    </g>
    <path class="fil0 str0" d="M1065.02 934.17c0.11,16.95 -3.12,33.75 -9.53,49.44 -6.4,15.68 -15.85,29.95 -27.78,41.98 -11.94,12.02 -26.14,21.57 -41.79,28.08 -15.65,6.51 -32.41,9.86 -49.36,9.86l-506.73 0.89c-16.95,0.11 -33.74,-3.11 -49.43,-9.52 -15.69,-6.41 -29.96,-15.85 -41.98,-27.79 -12.02,-11.94 -21.57,-26.15 -28.07,-41.79 -6.51,-15.65 -9.87,-32.42 -9.87,-49.38l-0.88 -506.81c-0.12,-17.02 3.15,-33.9 9.6,-49.65 6.45,-15.75 15.98,-30.06 28.01,-42.09 12.03,-12.03 26.34,-21.56 42.09,-28.02 15.74,-6.46 32.62,-9.73 49.63,-9.61l505.85 0c16.95,-0.11 33.74,3.12 49.43,9.53 15.68,6.4 29.95,15.85 41.98,27.79 12.02,11.94 21.56,26.15 28.07,41.79 6.51,15.64 9.86,32.43 9.86,49.37l0.89 505.93zm-72.64 -505.93c0,-14.42 -5.66,-28.26 -15.77,-38.54 -10.11,-10.28 -23.86,-16.17 -38.27,-16.4l-509.39 -0.89c-14.57,0 -28.54,5.79 -38.84,16.09 -10.3,10.3 -16.09,24.27 -16.09,38.84l-0.89 507.71c0,14.57 5.79,28.54 16.09,38.84 10.3,10.3 24.27,16.09 38.84,16.09l508.5 0.89c14.42,0 28.26,-5.66 38.53,-15.77 10.28,-10.12 16.17,-23.86 16.4,-38.27l0.89 -508.59z"/>
   </g>
   <g>
    <path class="fil0" d="M696.02 837.51c0,1.55 1.39,2.94 2.94,2.94l14.11 0c1.71,0 2.94,-1.4 2.94,-2.94l0 -66.68 0.31 0 63.57 70.09c0.77,0.77 1.55,1.08 2.64,1.08l2.17 0c1.55,0 2.95,-1.24 2.95,-2.79l0 -104.36c0,-1.55 -1.4,-2.94 -2.95,-2.94l-14.27 0c-1.71,0 -2.94,1.4 -2.94,2.94l0 64.04 -0.31 0 -63.27 -67.45c-0.78,-0.78 -1.55,-1.08 -2.64,-1.08l-2.33 0c-1.55,0 -2.94,1.24 -2.94,2.79l0 104.36z"/>
    <path id="_1" class="fil0" d="M814.02 837.51c0,1.55 1.24,2.94 2.94,2.94l14.27 0c1.55,0 2.94,-1.4 2.94,-2.94l0 -39.54 17.22 0 20.62 41.09c0.31,0.62 1.08,1.4 2.48,1.4l16.28 0c2.64,0 3.72,-2.48 2.64,-4.5l-21.24 -39.39c13.49,-5.43 22.95,-17.06 22.95,-31.32 0,-18.45 -15.2,-33.34 -33.8,-33.34l-44.35 0c-1.71,0 -2.94,1.4 -2.94,2.94l0 102.65zm20.31 -56.13l0 -30.86 25.28 0c8.22,0 15.35,6.82 15.35,15.04 0,8.68 -7.13,15.81 -15.35,15.81l-25.28 0z"/>
    <path id="_2" class="fil0" d="M933.88 837.51c0,1.55 1.4,2.94 2.95,2.94l14.42 0c1.55,0 2.94,-1.4 2.94,-2.94l0 -86.99 23.72 0c1.71,0 2.95,-1.4 2.95,-2.95l0 -12.71c0,-1.55 -1.24,-2.94 -2.95,-2.94l-67.76 0c-1.71,0 -2.94,1.4 -2.94,2.94l0 12.71c0,1.55 1.24,2.95 2.94,2.95l23.72 0 0 86.99z"/>
    <path id="_3" class="fil1 str1" d="M696.02 837.51c0,1.55 1.39,2.94 2.94,2.94l14.11 0c1.71,0 2.94,-1.4 2.94,-2.94l0 -66.68 0.31 0 63.57 70.09c0.77,0.77 1.55,1.08 2.64,1.08l2.17 0c1.55,0 2.95,-1.24 2.95,-2.79l0 -104.36c0,-1.55 -1.4,-2.94 -2.95,-2.94l-14.27 0c-1.71,0 -2.94,1.4 -2.94,2.94l0 64.04 -0.31 0 -63.27 -67.45c-0.78,-0.78 -1.55,-1.08 -2.64,-1.08l-2.33 0c-1.55,0 -2.94,1.24 -2.94,2.79l0 104.36z"/>
    <path id="_4" class="fil1 str1" d="M814.02 837.51c0,1.55 1.24,2.94 2.94,2.94l14.27 0c1.55,0 2.94,-1.4 2.94,-2.94l0 -39.54 17.22 0 20.62 41.09c0.31,0.62 1.08,1.4 2.48,1.4l16.28 0c2.64,0 3.72,-2.48 2.64,-4.5l-21.24 -39.39c13.49,-5.43 22.95,-17.06 22.95,-31.32 0,-18.45 -15.2,-33.34 -33.8,-33.34l-44.35 0c-1.71,0 -2.94,1.4 -2.94,2.94l0 102.65zm20.31 -56.13l0 -30.86 25.28 0c8.22,0 15.35,6.82 15.35,15.04 0,8.68 -7.13,15.81 -15.35,15.81l-25.28 0z"/>
    <path id="_5" class="fil1 str1" d="M933.88 837.51c0,1.55 1.4,2.94 2.95,2.94l14.42 0c1.55,0 2.94,-1.4 2.94,-2.94l0 -86.99 23.72 0c1.71,0 2.95,-1.4 2.95,-2.95l0 -12.71c0,-1.55 -1.24,-2.94 -2.95,-2.94l-67.76 0c-1.71,0 -2.94,1.4 -2.94,2.94l0 12.71c0,1.55 1.24,2.95 2.94,2.95l23.72 0 0 86.99z"/>
    <path class="fil2" d="M392.56 943.74c-1.97,-1.76 -2.28,-3.51 -0.93,-5.27l2.33 -2.95c1.55,-2.07 3.21,-2.37 4.96,-0.93 8.79,7.55 17.68,11.32 26.67,11.32 6.2,0 11.21,-1.71 15.04,-5.12 3.83,-3.41 5.74,-7.6 5.74,-12.56 0,-5.07 -2.12,-9.41 -6.36,-13.03 -4.24,-3.62 -11.17,-7.44 -20.78,-11.47 -4.76,-2.07 -8.61,-3.93 -11.55,-5.58 -2.95,-1.65 -5.74,-3.7 -8.37,-6.13 -2.64,-2.43 -4.52,-5.24 -5.66,-8.45 -1.14,-3.21 -1.71,-6.98 -1.71,-11.32 0,-2.9 0.59,-5.84 1.78,-8.84 1.19,-3 3,-5.94 5.43,-8.84 2.43,-2.9 5.89,-5.27 10.39,-7.14 4.5,-1.86 9.64,-2.79 15.43,-2.79 4.55,0 9.02,0.67 13.41,2.01 4.39,1.35 7.68,2.64 9.85,3.88l3.26 2.01c2.07,1.04 2.38,2.79 0.93,5.28l-1.55 2.64c-1.14,1.96 -2.94,2.22 -5.43,0.78 -6.93,-4.14 -13.8,-6.21 -20.62,-6.21 -7.34,0 -12.74,1.81 -16.21,5.43 -3.46,3.62 -5.2,7.5 -5.2,11.63 0,5.07 1.65,9.13 4.96,12.17 3.31,3.05 8.63,6.07 15.97,9.07 11.89,4.86 20.6,9.72 26.13,14.57 5.53,4.86 8.3,11.47 8.3,19.85 0,7.96 -3.28,14.71 -9.85,20.24 -6.57,5.53 -14.45,8.29 -23.65,8.29 -5.48,0 -10.88,-1.01 -16.2,-3.02 -5.33,-2.02 -9.05,-3.78 -11.17,-5.27 -2.12,-1.5 -3.9,-2.92 -5.35,-4.27z"/>
    <path id="_1_0" class="fil2" d="M472.73 918.77c0,-10.13 3.51,-18.87 10.54,-26.21 7.03,-7.34 15.51,-11.01 25.43,-11.01 9.92,0 18.4,3.67 25.43,11.01 7.03,7.34 10.55,16.07 10.55,26.21 0,10.23 -3.51,19.07 -10.55,26.51 -7.03,7.44 -15.5,11.16 -25.43,11.16 -9.92,0 -18.4,-3.72 -25.43,-11.16 -7.03,-7.44 -10.54,-16.28 -10.54,-26.51zm11.32 0c0,7.54 2.35,13.98 7.06,19.3 4.71,5.32 10.57,7.99 17.6,7.99 6.93,0 12.74,-2.66 17.44,-7.99 4.71,-5.32 7.06,-11.76 7.06,-19.3 0,-7.34 -2.35,-13.65 -7.06,-18.92 -4.7,-5.27 -10.52,-7.91 -17.44,-7.91 -6.93,0 -12.77,2.64 -17.52,7.91 -4.76,5.27 -7.14,11.58 -7.14,18.92z"/>
    <path id="_2_1" class="fil2" d="M569.33 951.33l0 -58.3 -11.48 0c-0.93,0 -1.73,-0.34 -2.4,-1.01 -0.67,-0.67 -1.01,-1.47 -1.01,-2.4l0 -3.1c0,-1.03 0.34,-1.86 1.01,-2.48 0.67,-0.62 1.47,-0.93 2.4,-0.93l11.48 0 0 -11.32c0,-8.89 2.04,-15.64 6.13,-20.23 4.08,-4.6 10,-6.9 17.75,-6.9 7.96,0 14.52,2.48 19.69,7.44 1.35,1.34 1.55,2.69 0.62,4.03l-2.94 3.72c-1.04,1.45 -2.53,1.5 -4.5,0.15 -4.55,-3.31 -8.94,-4.96 -13.18,-4.96 -8.06,0 -12.09,5.58 -12.09,16.75l0 11.32 21.24 0c0.93,0 1.73,0.31 2.4,0.93 0.67,0.62 1.01,1.44 1.01,2.48l0 3.1c0,0.93 -0.34,1.73 -1.01,2.4 -0.67,0.67 -1.47,1.01 -2.4,1.01l-21.24 0 0 58.3c0,0.93 -0.34,1.73 -1.01,2.4 -0.67,0.67 -1.47,1.01 -2.41,1.01l-4.65 0c-0.93,0 -1.73,-0.34 -2.4,-1.01 -0.67,-0.67 -1.01,-1.47 -1.01,-2.4z"/>
    <path id="_3_2" class="fil2" d="M625.46 893.03l-9.46 0c-1.04,0 -1.89,-0.34 -2.56,-1.01 -0.67,-0.67 -1.01,-1.47 -1.01,-2.4l0 -3.1c0,-2.27 1.19,-3.41 3.57,-3.41l9.46 0 0 -19.85c0,-0.93 0.34,-1.71 1.01,-2.33 0.67,-0.62 1.48,-0.98 2.41,-1.08l4.8 -0.31c0.93,-0.1 1.71,0.21 2.33,0.93 0.62,0.72 0.93,1.55 0.93,2.48l0 20.15 21.09 0c1.03,0 1.89,0.31 2.56,0.93 0.67,0.62 1.01,1.44 1.01,2.48l0 3.1c0,0.93 -0.33,1.73 -1.01,2.4 -0.67,0.67 -1.53,1.01 -2.56,1.01l-21.09 0 0 42.8c0,6.82 2.12,10.23 6.36,10.23 4.44,0 9.15,-1.55 14.11,-4.65 1.97,-1.24 3.47,-0.78 4.5,1.4l1.39 3.26c0.83,1.96 0.42,3.51 -1.24,4.65 -5.48,3.83 -12.2,5.74 -20.16,5.74 -6.3,0 -10.62,-1.73 -12.95,-5.2 -2.32,-3.46 -3.49,-8.35 -3.49,-14.65l0 -43.57z"/>
    <path id="_4_3" class="fil2" d="M721.9 900.78l-0.31 0 -21.09 53.81c-0.42,1.24 -1.4,1.86 -2.94,1.86l-0.93 0c-1.55,0 -2.58,-0.62 -3.1,-1.86l-19.85 -67.45c-0.72,-2.69 0.21,-4.03 2.79,-4.03l5.27 0c1.86,0 2.94,0.67 3.26,2.02l13.17 48.69 0.31 0 20.15 -50.55c0.42,-1.14 1.45,-1.71 3.1,-1.71l0.93 0c1.55,0 2.53,0.57 2.95,1.71l20 50.7 0.31 0 13.18 -48.84c0.31,-1.35 1.29,-2.02 2.95,-2.02l5.43 0c2.58,0 3.41,1.35 2.48,4.03l-19.54 67.45c-0.31,1.24 -1.29,1.86 -2.95,1.86l-0.93 0c-1.44,0 -2.48,-0.62 -3.1,-1.86l-21.56 -53.81z"/>
    <path id="_5_4" class="fil2" d="M788.34 950.02c-4.19,-4.29 -6.28,-9.95 -6.28,-16.98 0,-7.03 2.53,-12.74 7.6,-17.13 5.07,-4.4 12.09,-6.59 21.09,-6.59 2.27,0 4.68,0.18 7.21,0.55 2.53,0.36 4.52,0.75 5.97,1.16l2.17 0.62c0.1,-7.13 -0.62,-12.2 -2.17,-15.2 -1.55,-3 -4.76,-4.5 -9.61,-4.5 -5.79,0 -12.87,1.4 -21.24,4.19 -1.55,0.62 -2.69,0 -3.41,-1.86l-1.55 -4.19c-0.52,-1.65 0.21,-2.95 2.17,-3.88 7.14,-3.1 15.35,-4.65 24.65,-4.65 8.79,0 14.68,2.25 17.68,6.74 3,4.5 4.5,12.28 4.5,23.34l0 39.7c0,0.93 -0.34,1.73 -1.01,2.4 -0.67,0.67 -1.47,1.01 -2.4,1.01l-2.95 0c-1.45,0 -2.43,-0.88 -2.94,-2.64l-1.4 -4.81c-6.1,6.1 -13.49,9.15 -22.17,9.15 -6.41,0 -11.71,-2.14 -15.89,-6.43zm5.04 -16.98c0,3.72 1.19,6.82 3.57,9.3 2.38,2.48 5.48,3.72 9.3,3.72 4.14,0 8.04,-0.96 11.71,-2.87 3.67,-1.91 6.33,-4.16 7.98,-6.75l0 -14.57c-3.51,-1.86 -8.58,-2.79 -15.19,-2.79 -5.17,0 -9.36,1.21 -12.56,3.64 -3.21,2.43 -4.81,5.86 -4.81,10.31z"/>
    <path id="_6" class="fil2" d="M860.68 951.33l0 -64.82c0,-0.82 0.34,-1.6 1.01,-2.32 0.67,-0.72 1.47,-1.09 2.4,-1.09l2.48 0c1.65,0 2.69,0.83 3.1,2.48l1.24 5.12c0.52,-0.72 1.32,-1.58 2.41,-2.56 1.08,-0.98 3.51,-2.33 7.29,-4.03 3.78,-1.71 7.88,-2.56 12.33,-2.56 1.65,0 3.18,0.08 4.57,0.23 1.4,0.16 2.85,0.42 4.34,0.78 1.5,0.36 2.58,0.96 3.26,1.78 0.67,0.83 0.8,1.81 0.39,2.94l-2.01 5.58c-0.72,2.07 -2.12,2.64 -4.19,1.71 -3,-1.35 -5.58,-2.01 -7.75,-2.01 -2.58,0 -5.01,0.31 -7.29,0.93 -2.28,0.62 -4.11,1.37 -5.5,2.25 -1.4,0.88 -2.64,1.78 -3.72,2.71 -1.09,0.93 -1.84,1.71 -2.25,2.32l-0.62 0.93 0 49.62c0,0.93 -0.36,1.73 -1.08,2.4 -0.72,0.67 -1.5,1.01 -2.33,1.01l-4.65 0c-0.93,0 -1.73,-0.34 -2.4,-1.01 -0.67,-0.67 -1.01,-1.47 -1.01,-2.4z"/>
    <path id="_7" class="fil2" d="M913.71 918.93c0,-10.44 3.15,-19.28 9.46,-26.52 6.31,-7.23 14.73,-10.85 25.28,-10.85 9.41,0 17.16,3.07 23.26,9.22 6.1,6.15 9.15,13.93 9.15,23.34 0,1.24 -0.1,2.69 -0.31,4.34 -0.21,2.07 -1.29,3.1 -3.26,3.1l-52.1 0c0.21,6.2 2.58,11.84 7.13,16.9 4.55,5.07 9.98,7.6 16.28,7.6 6.93,0 13.39,-1.97 19.38,-5.89 1.35,-0.93 2.33,-1.42 2.94,-1.47 0.62,-0.06 1.45,0.59 2.48,1.94l1.86 2.64c0.62,0.93 0.98,1.55 1.08,1.86 0.1,0.31 0.05,0.75 -0.15,1.32 -0.21,0.57 -0.72,1.16 -1.55,1.78 -6.93,5.48 -15.66,8.22 -26.21,8.22 -10.54,0 -18.97,-3.59 -25.28,-10.78 -6.3,-7.19 -9.46,-16.1 -9.46,-26.75zm11.63 -6.51l44.04 0c-0.21,-5.48 -2.28,-10.26 -6.21,-14.34 -3.93,-4.08 -8.84,-6.13 -14.73,-6.13 -6,0 -11.16,1.99 -15.5,5.97 -4.34,3.98 -6.87,8.81 -7.6,14.5z"/>
   </g>
  </g>
 </g>
</svg>
