<?xml version="1.0" encoding="UTF-8"?>
<!DOCTYPE svg PUBLIC "-//W3C//DTD SVG 1.1//EN" "http://www.w3.org/Graphics/SVG/1.1/DTD/svg11.dtd">
<!-- Creator: CorelDRAW -->
<svg xmlns="http://www.w3.org/2000/svg" xml:space="preserve" width="40.5827mm" height="17.3345mm" version="1.1" style="shape-rendering:geometricPrecision; text-rendering:geometricPrecision; image-rendering:optimizeQuality; fill-rule:evenodd; clip-rule:evenodd"
viewBox="0 0 3874.26 1654.85"
 xmlns:xlink="http://www.w3.org/1999/xlink"
 xmlns:xodm="http://www.corel.com/coreldraw/odm/2003">
 <defs>
  <style type="text/css">
   <![CDATA[
    .str0 {stroke:black;stroke-width:7.27;stroke-miterlimit:22.9256}
    .fil1 {fill:none;fill-rule:nonzero}
    .fil3 {fill:#999999}
    .fil0 {fill:black;fill-rule:nonzero}
    .fil4 {fill:#999999;fill-rule:nonzero}
    .fil2 {fill:#CC9933;fill-rule:nonzero}
   ]]>
  </style>
 </defs>
 <g id="Layer_x0020_1">
  <metadata id="CorelCorpID_0Corel-Layer"/>
  <g id="Preenchido_x0020_Colorido">
   <path class="fil0" d="M2080.33 907.33c0,9.75 8.77,18.52 18.52,18.52l88.69 0c10.72,0 18.51,-8.77 18.51,-18.52l0 -419.06 1.95 0 399.57 440.5c4.88,4.88 9.75,6.83 16.57,6.83l13.64 0c9.75,0 18.51,-7.8 18.51,-17.55l0 -655.88c0,-9.75 -8.76,-18.52 -18.51,-18.52l-89.66 0c-10.72,0 -18.52,8.77 -18.52,18.52l0 402.49 -1.95 0 -397.62 -423.93c-4.88,-4.87 -9.75,-6.82 -16.57,-6.82l-14.62 0c-9.75,0 -18.52,7.79 -18.52,17.54l0 655.88z"/>
   <path id="_1" class="fil0" d="M2821.98 907.33c0,9.75 7.8,18.52 18.52,18.52l89.66 0c9.75,0 18.51,-8.77 18.51,-18.52l0 -248.51 108.19 0 129.61 258.25c1.95,3.9 6.83,8.77 15.59,8.77l102.33 0c16.57,0 23.39,-15.59 16.57,-28.26l-133.52 -247.54c84.78,-34.11 144.24,-107.2 144.24,-196.86 0,-115.97 -95.51,-209.54 -212.46,-209.54l-278.73 0c-10.72,0 -18.52,8.77 -18.52,18.52l0 645.16zm127.67 -352.78l0 -193.94 158.86 0c51.66,0 96.49,42.87 96.49,94.53 0,54.58 -44.83,99.41 -96.49,99.41l-158.86 0z"/>
   <path id="_2" class="fil0" d="M3575.33 907.33c0,9.75 8.77,18.52 18.51,18.52l90.64 0c9.75,0 18.52,-8.77 18.52,-18.52l0 -546.72 149.11 0c10.72,0 18.52,-8.77 18.52,-18.52l0 -79.91c0,-9.75 -7.8,-18.52 -18.52,-18.52l-425.88 0c-10.72,0 -18.52,8.77 -18.52,18.52l0 79.91c0,9.75 7.8,18.52 18.52,18.52l149.11 0 0 546.72z"/>
   <path id="_3" class="fil1 str0" d="M2080.33 907.33c0,9.75 8.77,18.52 18.52,18.52l88.69 0c10.72,0 18.51,-8.77 18.51,-18.52l0 -419.06 1.95 0 399.57 440.5c4.88,4.88 9.75,6.83 16.57,6.83l13.64 0c9.75,0 18.51,-7.8 18.51,-17.55l0 -655.88c0,-9.75 -8.76,-18.52 -18.51,-18.52l-89.66 0c-10.72,0 -18.52,8.77 -18.52,18.52l0 402.49 -1.95 0 -397.62 -423.93c-4.88,-4.87 -9.75,-6.82 -16.57,-6.82l-14.62 0c-9.75,0 -18.52,7.79 -18.52,17.54l0 655.88z"/>
   <path id="_4" class="fil1 str0" d="M2821.98 907.33c0,9.75 7.8,18.52 18.52,18.52l89.66 0c9.75,0 18.51,-8.77 18.51,-18.52l0 -248.51 108.19 0 129.61 258.25c1.95,3.9 6.83,8.77 15.59,8.77l102.33 0c16.57,0 23.39,-15.59 16.57,-28.26l-133.52 -247.54c84.78,-34.11 144.24,-107.2 144.24,-196.86 0,-115.97 -95.51,-209.54 -212.46,-209.54l-278.73 0c-10.72,0 -18.52,8.77 -18.52,18.52l0 645.16zm127.67 -352.78l0 -193.94 158.86 0c51.66,0 96.49,42.87 96.49,94.53 0,54.58 -44.83,99.41 -96.49,99.41l-158.86 0z"/>
   <path id="_5" class="fil1 str0" d="M3575.33 907.33c0,9.75 8.77,18.52 18.51,18.52l90.64 0c9.75,0 18.52,-8.77 18.52,-18.52l0 -546.72 149.11 0c10.72,0 18.52,-8.77 18.52,-18.52l0 -79.91c0,-9.75 -7.8,-18.52 -18.52,-18.52l-425.88 0c-10.72,0 -18.52,8.77 -18.52,18.52l0 79.91c0,9.75 7.8,18.52 18.52,18.52l149.11 0 0 546.72z"/>
   <g id="Chipset">
    <g>
     <path class="fil2" d="M1315.49 288.9l-120.54 0.27c-18.08,0.04 -32.7,18.63 -32.66,41.52l0 4.36c0.03,22.88 14.7,41.41 32.77,41.37l120.55 -0.26c18.07,-0.05 32.7,-18.63 32.66,-41.52l0 -4.36c-0.03,-22.89 -14.7,-41.41 -32.78,-41.37z"/>
     <path class="fil2" d="M1314.63 452.37l-118.83 0.26c-18.55,0.05 -33.56,18.88 -33.52,42.09l0 3.23c0.03,23.21 15.09,41.99 33.64,41.94l118.83 -0.26c18.55,-0.05 33.56,-18.88 33.52,-42.09l0 -3.23c-0.03,-23.21 -15.09,-41.99 -33.64,-41.94z"/>
     <path class="fil2" d="M1314.81 629.77l-118.83 -0.52c-18.54,-0.09 -33.63,18.6 -33.7,41.72l0 3.23c-0.07,23.12 14.91,41.94 33.46,42.02l118.82 0.52c18.55,0.09 33.63,-18.6 33.7,-41.73l0 -3.22c0.07,-23.13 -14.91,-41.94 -33.45,-42.02z"/>
     <path class="fil2" d="M1314.75 792.98l-118.83 -0.26c-18.55,-0.04 -33.61,18.5 -33.64,41.41l0 4.26c-0.04,22.91 14.97,41.52 33.52,41.57l118.83 0.25c18.55,0.05 33.61,-18.5 33.64,-41.41l0 -4.25c0.04,-22.92 -14.97,-41.52 -33.52,-41.57z"/>
    </g>
    <g>
     <path class="fil2" d="M333.57 289.43l-120.23 -0.53c-18.16,-0.08 -32.93,18.36 -32.98,41.16l-0.01 4.35c-0.07,22.82 14.6,41.37 32.75,41.45l120.23 0.53c18.15,0.08 32.92,-18.36 32.98,-41.17l0.01 -4.34c0.07,-22.82 -14.6,-41.37 -32.75,-41.46z"/>
     <path class="fil2" d="M332.77 452.76l-118.5 -0.76c-18.63,-0.11 -33.81,18.25 -33.91,41.04l-0.02 4.24c-0.1,22.79 14.93,41.35 33.57,41.46l118.49 0.76c18.63,0.11 33.81,-18.25 33.92,-41.03l0.01 -4.24c0.11,-22.78 -14.92,-41.36 -33.56,-41.47z"/>
     <path class="fil2" d="M332.23 629.25l-118.19 -0.77c-18.72,-0.11 -33.98,18.48 -34.07,41.55l-0.01 3.22c-0.1,23.06 14.99,41.85 33.71,41.98l118.19 0.76c18.72,0.11 33.98,-18.48 34.06,-41.55l0.02 -3.21c0.11,-23.06 -15,-41.86 -33.71,-41.98z"/>
     <path class="fil2" d="M332.59 792.69l-118.52 0c-18.63,0 -33.75,18.63 -33.75,41.63l0 4.28c0,23 15.11,41.63 33.75,41.63l118.52 0c18.63,0 33.74,-18.63 33.74,-41.63l0 -4.28c0,-23 -15.1,-41.63 -33.74,-41.63z"/>
    </g>
    <g>
     <path class="fil2" d="M515.5 982.33l-4.27 0c-22.99,0 -41.63,15.18 -41.63,33.91l0 118.21c0,18.73 18.64,33.9 41.63,33.9l4.27 0c23,0 41.63,-15.17 41.63,-33.9l0 -118.21c0,-18.73 -18.63,-33.91 -41.63,-33.91z"/>
     <path class="fil2" d="M854.93 982.74l-4.36 0c-22.88,-0.04 -41.47,14.65 -41.51,32.81l-0.27 120.23c-0.04,18.16 18.47,32.9 41.37,32.93l4.36 0c22.88,0.04 41.46,-14.65 41.51,-32.8l0.26 -120.24c0.05,-18.16 -18.48,-32.9 -41.36,-32.93z"/>
     <path class="fil2" d="M679.14 983.14l-5.37 -0.02c-22.54,-0.07 -40.88,14.81 -40.95,33.22l-0.52 119.3c-0.08,18.41 18.12,33.38 40.67,33.45l5.37 0.01c22.54,0.07 40.87,-14.81 40.95,-33.21l0.52 -119.31c0.08,-18.41 -18.13,-33.38 -40.67,-33.44z"/>
     <path class="fil2" d="M1018.52 983.5l-4.27 0c-23,0 -41.64,15.25 -41.64,34.05l0 117.89c0,18.81 18.64,34.05 41.64,34.05l4.27 0c23.01,0 41.64,-15.25 41.64,-34.05l0 -117.89c0,-18.81 -18.63,-34.05 -41.64,-34.05z"/>
    </g>
    <g>
     <path class="fil2" d="M514.6 0l-3.25 0c-23.27,0 -42.14,14.9 -42.14,33.28l0 119.47c0,18.38 18.86,33.28 42.14,33.28l3.25 0c23.27,0 42.14,-14.9 42.14,-33.28l0 -119.47c0,-18.38 -18.86,-33.28 -42.14,-33.28z"/>
     <path class="fil2" d="M677.68 0.77l-3.25 0c-23.27,0 -42.15,15.04 -42.15,33.58l0 118.84c0,18.55 18.87,33.58 42.15,33.58l3.25 0c23.28,0 42.16,-15.04 42.16,-33.58l0 -118.84c0,-18.55 -18.87,-33.58 -42.16,-33.58z"/>
     <path class="fil2" d="M855.5 0.39l-4.38 0c-22.97,0 -41.58,14.58 -41.58,32.57l0 120.86c0,18 18.61,32.58 41.58,32.58l4.38 0c22.97,0 41.58,-14.59 41.58,-32.58l0 -120.86c0,-18 -18.61,-32.57 -41.58,-32.57z"/>
     <path class="fil2" d="M1019.3 0.77l-4.27 0c-23,0 -41.63,15.03 -41.63,33.58l0 118.85c0,18.55 18.63,33.58 41.63,33.58l4.27 0c22.99,0 41.63,-15.04 41.63,-33.58l0 -118.85c0,-18.56 -18.64,-33.58 -41.63,-33.58z"/>
    </g>
    <rect class="fil3" x="437.68" y="264.75" width="654.91" height="654.91" rx="116.96" ry="116.2"/>
   </g>
   <path class="fil4" d="M11 1574.94c-12.34,-11.05 -14.29,-22.09 -5.84,-33.14l14.62 -18.52c9.75,-12.98 20.14,-14.93 31.19,-5.84 55.23,47.43 111.1,71.14 167.61,71.14 38.99,0 70.5,-10.72 94.54,-32.16 24.04,-21.44 36.06,-47.74 36.06,-78.93 0,-31.83 -13.32,-59.12 -39.96,-81.86 -26.63,-22.74 -70.17,-46.78 -130.59,-72.11 -29.88,-12.99 -54.08,-24.69 -72.59,-35.08 -18.52,-10.4 -36.07,-23.23 -52.63,-38.49 -16.56,-15.27 -28.42,-32.97 -35.57,-53.12 -7.15,-20.14 -10.72,-43.86 -10.72,-71.14 0,-18.2 3.73,-36.71 11.21,-55.55 7.47,-18.84 18.84,-37.36 34.11,-55.54 15.26,-18.19 37.03,-33.14 65.3,-44.83 28.26,-11.69 60.57,-17.54 96.96,-17.54 28.59,0 56.69,4.22 84.3,12.67 27.62,8.44 48.25,16.56 61.89,24.36l20.47 12.67c12.99,6.5 14.94,17.55 5.84,33.13l-9.75 16.56c-7.14,12.34 -18.51,13.98 -34.11,4.88 -43.52,-26 -86.73,-38.98 -129.61,-38.98 -46.12,0 -80.07,11.37 -101.83,34.1 -21.77,22.74 -32.65,47.1 -32.65,73.1 0,31.83 10.4,57.34 31.19,76.5 20.79,19.17 54.25,38.18 100.37,57.01 74.71,30.54 129.45,61.08 164.21,91.61 34.76,30.54 52.14,72.12 52.14,124.75 0,50.02 -20.63,92.41 -61.89,127.17 -41.25,34.76 -90.8,52.14 -148.62,52.14 -34.43,0 -68.37,-6.34 -101.83,-19.01 -33.46,-12.67 -56.85,-23.71 -70.17,-33.14 -13.32,-9.42 -24.53,-18.35 -33.62,-26.8z"/>
   <path id="_1_0" class="fil4" d="M538.01 1418.04c0,-63.67 22.09,-118.57 66.27,-164.7 44.18,-46.13 97.45,-69.19 159.83,-69.19 62.37,0 115.64,23.06 159.82,69.19 44.18,46.13 66.27,101.03 66.27,164.7 0,64.32 -22.09,119.87 -66.27,166.65 -44.18,46.78 -97.45,70.17 -159.82,70.17 -62.38,0 -115.65,-23.39 -159.83,-70.17 -44.18,-46.78 -66.27,-102.32 -66.27,-166.65zm71.14 0c0,47.43 14.79,87.88 44.34,121.33 29.57,33.46 66.43,50.19 110.62,50.19 43.53,0 80.08,-16.73 109.63,-50.19 29.56,-33.45 44.33,-73.9 44.33,-121.33 0,-46.13 -14.78,-85.76 -44.33,-118.89 -29.56,-33.14 -66.1,-49.7 -109.63,-49.7 -43.53,0 -80.24,16.56 -110.13,49.7 -29.88,33.14 -44.83,72.76 -44.83,118.89z"/>
   <path id="_2_1" class="fil4" d="M1168.32 1622.69l0 -366.43 -72.11 0c-5.85,0 -10.88,-2.11 -15.1,-6.33 -4.23,-4.23 -6.34,-9.26 -6.34,-15.11l0 -19.48c0,-6.5 2.11,-11.69 6.34,-15.6 4.22,-3.9 9.25,-5.84 15.1,-5.84l72.11 0 0 -71.14c0,-55.88 12.83,-98.26 38.5,-127.18 25.66,-28.91 62.85,-43.36 111.58,-43.36 50.03,0 91.28,15.59 123.77,46.78 8.45,8.44 9.75,16.89 3.9,25.34l-18.51 23.38c-6.5,9.1 -15.92,9.42 -28.27,0.97 -28.58,-20.78 -56.2,-31.18 -82.84,-31.18 -50.67,0 -76.02,35.07 -76.02,105.25l0 71.14 133.52 0c5.85,0 10.88,1.95 15.1,5.84 4.23,3.9 6.34,9.1 6.34,15.6l0 19.48c0,5.85 -2.11,10.88 -6.34,15.11 -4.22,4.22 -9.25,6.33 -15.1,6.33l-133.52 0 0 366.43c0,5.85 -2.11,10.88 -6.33,15.1 -4.22,4.23 -9.26,6.34 -15.1,6.34l-29.24 0c-5.84,0 -10.88,-2.11 -15.1,-6.34 -4.23,-4.22 -6.34,-9.25 -6.34,-15.1z"/>
   <path id="_3_2" class="fil4" d="M1544.28 1256.26l-59.45 0c-6.5,0 -11.86,-2.11 -16.08,-6.33 -4.23,-4.23 -6.34,-9.26 -6.34,-15.11l0 -19.48c0,-14.3 7.47,-21.44 22.42,-21.44l59.45 0 0 -124.75c0,-5.85 2.11,-10.72 6.34,-14.62 4.22,-3.9 9.26,-6.18 15.1,-6.83l30.21 -1.95c5.84,-0.65 10.72,1.3 14.62,5.84 3.9,4.55 5.84,9.75 5.84,15.6l0 126.69 132.54 0c6.5,0 11.86,1.95 16.08,5.84 4.23,3.9 6.34,9.1 6.34,15.6l0 19.48c0,5.85 -2.11,10.88 -6.34,15.11 -4.22,4.22 -9.58,6.33 -16.08,6.33l-132.54 0 0 268.97c0,42.87 13.33,64.32 39.96,64.32 27.93,0 57.5,-9.75 88.69,-29.23 12.34,-7.8 21.77,-4.88 28.26,8.76l8.77 20.47c5.19,12.34 2.6,22.09 -7.8,29.24 -34.43,24.04 -76.66,36.06 -126.69,36.06 -39.63,0 -66.76,-10.88 -81.37,-32.65 -14.62,-21.77 -21.93,-52.46 -21.93,-92.1l0 -273.84z"/>
   <path id="_4_3" class="fil4" d="M2173.62 1304.99l-1.95 0 -132.54 338.17c-2.6,7.8 -8.77,11.69 -18.52,11.69l-5.84 0c-9.75,0 -16.24,-3.9 -19.49,-11.69l-124.75 -423.93c-4.54,-16.9 1.31,-25.34 17.55,-25.34l33.14 0c11.69,0 18.51,4.22 20.47,12.67l82.84 306.02 1.95 0 126.69 -317.71c2.6,-7.15 9.1,-10.72 19.49,-10.72l5.84 0c9.75,0 15.92,3.57 18.52,10.72l125.71 318.68 1.95 0 82.84 -306.99c1.95,-8.45 8.12,-12.67 18.52,-12.67l34.11 0c16.24,0 21.44,8.44 15.59,25.34l-122.8 423.93c-1.95,7.8 -8.11,11.69 -18.51,11.69l-5.85 0c-9.09,0 -15.59,-3.9 -19.48,-11.69l-135.46 -338.17z"/>
   <path id="_5_4" class="fil4" d="M2614.38 1614.4c-26.31,-26.96 -39.47,-62.53 -39.47,-106.7 0,-44.18 15.91,-80.08 47.75,-107.69 31.84,-27.62 76.01,-41.42 132.54,-41.42 14.3,0 29.4,1.14 45.32,3.41 15.92,2.28 28.43,4.72 37.53,7.31l13.64 3.9c0.65,-44.83 -3.9,-76.66 -13.64,-95.5 -9.75,-18.84 -29.89,-28.26 -60.43,-28.26 -36.38,0 -80.89,8.76 -133.51,26.31 -9.75,3.9 -16.9,0 -21.44,-11.69l-9.75 -26.31c-3.25,-10.4 1.3,-18.52 13.64,-24.37 44.83,-19.48 96.48,-29.23 154.96,-29.23 55.22,0 92.26,14.13 111.09,42.4 18.84,28.26 28.27,77.15 28.27,146.66l0 249.48c0,5.85 -2.11,10.88 -6.34,15.1 -4.22,4.23 -9.26,6.34 -15.1,6.34l-18.52 0c-9.1,0 -15.26,-5.52 -18.51,-16.56l-8.77 -30.21c-38.33,38.33 -84.79,57.5 -139.36,57.5 -40.29,0 -73.59,-13.48 -99.9,-40.45zm31.68 -106.7c0,23.38 7.47,42.87 22.42,58.46 14.94,15.6 34.43,23.39 58.47,23.39 25.99,0 50.51,-6 73.58,-18.02 23.06,-12.02 39.8,-26.16 50.2,-42.4l0 -91.6c-22.09,-11.69 -53.93,-17.55 -95.51,-17.55 -32.49,0 -58.8,7.64 -78.94,22.9 -20.13,15.27 -30.21,36.88 -30.21,64.81z"/>
   <path id="_6" class="fil4" d="M3092.18 1622.69l0 -407.35c0,-5.2 2.11,-10.07 6.33,-14.63 4.23,-4.54 9.26,-6.82 15.1,-6.82l15.6 0c10.4,0 16.89,5.19 19.49,15.59l7.79 32.16c3.26,-4.54 8.29,-9.91 15.11,-16.09 6.82,-6.17 22.08,-14.62 45.8,-25.34 23.71,-10.72 49.54,-16.08 77.47,-16.08 10.4,0 19.98,0.49 28.75,1.46 8.77,0.97 17.86,2.6 27.28,4.87 9.42,2.28 16.25,6.01 20.47,11.21 4.22,5.2 5.03,11.37 2.43,18.52l-12.67 35.08c-4.54,12.99 -13.32,16.57 -26.31,10.72 -18.84,-8.45 -35.08,-12.67 -48.73,-12.67 -16.25,0 -31.51,1.95 -45.8,5.84 -14.3,3.9 -25.83,8.61 -34.6,14.14 -8.77,5.52 -16.57,11.21 -23.4,17.05 -6.82,5.85 -11.53,10.72 -14.13,14.62l-3.9 5.85 0 311.85c0,5.85 -2.27,10.88 -6.83,15.1 -4.54,4.23 -9.41,6.34 -14.62,6.34l-29.24 0c-5.84,0 -10.87,-2.11 -15.1,-6.34 -4.22,-4.22 -6.33,-9.25 -6.33,-15.1z"/>
   <path id="_7" class="fil4" d="M3448.64 1419.01c0,-65.61 19.82,-121.17 59.45,-166.65 39.64,-45.48 92.58,-68.22 158.86,-68.22 59.11,0 107.85,19.33 146.18,57.99 38.33,38.65 57.5,87.55 57.5,146.67 0,7.79 -0.65,16.89 -1.95,27.28 -1.3,12.99 -8.12,19.49 -20.47,19.49l-327.45 0c1.31,38.98 16.25,74.39 44.83,106.22 28.59,31.84 62.7,47.75 102.33,47.75 43.52,0 84.13,-12.34 121.81,-37.03 8.45,-5.84 14.62,-8.94 18.52,-9.26 3.9,-0.32 9.09,3.74 15.59,12.18l11.69 16.57c3.9,5.84 6.17,9.75 6.83,11.69 0.65,1.95 0.32,4.71 -0.98,8.28 -1.3,3.58 -4.54,7.31 -9.74,11.21 -43.53,34.43 -98.43,51.66 -164.7,51.66 -66.27,0 -119.22,-22.58 -158.86,-67.73 -39.63,-45.16 -59.45,-101.18 -59.45,-168.11zm73.1 -40.93l276.76 0c-1.3,-34.43 -14.3,-64.49 -38.99,-90.15 -24.69,-25.66 -55.55,-38.49 -92.57,-38.49 -37.68,0 -70.17,12.51 -97.45,37.52 -27.29,25.01 -43.21,55.39 -47.75,91.12z"/>
  </g>
 </g>
</svg>
